<svg xmlns="http://www.w3.org/2000/svg" xmlns:xlink="http://www.w3.org/1999/xlink" fill="none" height="619" viewBox="0 0 1440 619" width="1440"><linearGradient id="a" gradientUnits="userSpaceOnUse" x1="720" x2="720" y1="0" y2="506.768"><stop offset="0" stop-color="#e1dede" stop-opacity="0"></stop><stop offset=".535" stop-color="#e1dede"></stop><stop offset="1" stop-color="#e1dede" stop-opacity="0"></stop></linearGradient><path clip-rule="evenodd" d="m240 0v135.88h319v-135.88h1v135.88h319v-135.88h1v135.88h319v-135.88h1v135.88h240v1h-240v145.765h240v1h-240v145.765h240v1h-240v188.59h-1v-188.59h-319v188.59h-1v-188.59h-319v188.59h-1v-188.59h-319v188.59h-1v-188.59h-239v-1h239v-145.765h-239v-1h239v-145.765h-239v-1h239v-135.88zm959 429.41v-145.765h-319v145.765zm0-146.765v-145.765h-319v145.765zm-639-145.765h319v145.765h-319zm0 146.765h319v145.765h-319zm-1 145.765v-145.765h-319v145.765zm0-146.765v-145.765h-319v145.765z" fill="url(#a)" fill-rule="evenodd"></path></svg>