<svg width="43" height="43" viewBox="0 0 43 43" xmlns="http://www.w3.org/2000/svg" xmlns:xlink="http://www.w3.org/1999/xlink"><defs><path d="M0 43h11.828C12.933 43 14 42.276 14 41.172V2c0-1.105-1.067-2-2.172-2H0v43z" id="a"/><path d="M36 29.147c0 .471-.627.853-1.4.853H23.4c-.773 0-1.4-.382-1.4-.853V1.853c0-.471.627-.853 1.4-.853h11.2c.773 0 1.4.382 1.4.853v27.294z" id="b"/><path id="c" d="m35 30-6 10-6-10"/></defs><g fill="none" fill-rule="evenodd"><use fill="#FFF" xlink:href="#a"/><path stroke="#00ABEF" stroke-width="3" d="M1.5 41.5h10.328c.419 0 .672-.2.672-.328V2c0-.207-.328-.5-.672-.5H1.5v40z"/><path d="M6 6H2m6 4H2m4 4H2m6 4H2m4 4H2m6 4H2m4 4H2m6 4H2m4 4H2" stroke="#00ABEF" stroke-width="2" stroke-linejoin="round"/><use fill="#FFF" xlink:href="#b"/><path stroke="#00ABEF" stroke-width="3" d="M34.5 28.5v-26h-11v26h11zm.306-25.971.004.002a.083.083 0 0 0-.017-.007zM23.194 28.47a.083.083 0 0 0 .012.004z"/><use fill="#FFF" xlink:href="#c"/><path stroke="#00ABEF" stroke-width="3" d="M32.35 31.5h-6.7L29 37.085l3.35-5.585z"/><path d="M29 1v28" stroke="#00ABEF" stroke-width="2" stroke-linejoin="round"/><path d="M26.5 41.5h15" stroke="#00ABEF" stroke-width="2" stroke-linecap="round" stroke-linejoin="round"/></g></svg>