<svg width="44" height="54" viewBox="0 0 44 54" xmlns="http://www.w3.org/2000/svg" xmlns:xlink="http://www.w3.org/1999/xlink"><defs><path d="M49 36v18H5V36a2 2 0 0 1 2-2h11a2 2 0 0 1 2 2v2.71L27.168 43 34 38.195V36a2 2 0 0 1 2-2h11a2 2 0 0 1 2 2z" id="a"/><path d="M8 15h16a2 2 0 0 1 2 2v3a5 5 0 0 1-5 5H11a5 5 0 0 1-5-5v-3a2 2 0 0 1 2-2z" id="b"/><path d="M2 0h27a2 2 0 0 1 2 2v11a5 5 0 0 1-5 5H5a5 5 0 0 1-5-5V2a2 2 0 0 1 2-2z" id="c"/></defs><g fill="none" fill-rule="evenodd"><g transform="translate(-5)"><use fill="#FFF" xlink:href="#a"/><path stroke="#00ABEF" stroke-width="3" d="M6.5 52.5h41V36a.5.5 0 0 0-.5-.5H36a.5.5 0 0 0-.5.5v2.974l-8.267 5.814-8.733-5.229V36a.5.5 0 0 0-.5-.5H7a.5.5 0 0 0-.5.5v16.5z"/></g><g transform="translate(6)"><path d="M12 23v13.934l4.032 2.835L20 36.938V23h-8z" stroke="#00AEF2" stroke-width="2"/><path fill="#FFF" d="M13 22h6v2h-6z"/><path d="M20 31c0 1.406-.706 2.389-3.96 3.192-3.253.804-4.04 1.146-4.04 2.025M20 26c0 1.687-.706 2.867-3.96 3.83-3.253.965-4.04 1.375-4.04 2.43" stroke="#00AEF2" stroke-width="2"/><use fill="#FFF" xlink:href="#b"/><path stroke="#00ABEF" stroke-width="3" d="M8 16.5a.5.5 0 0 0-.5.5v3a3.5 3.5 0 0 0 3.5 3.5h10a3.5 3.5 0 0 0 3.5-3.5v-3a.5.5 0 0 0-.5-.5H8z"/><use fill="#FFF" xlink:href="#c"/><path stroke="#00ABEF" stroke-width="3" d="M2 1.5a.5.5 0 0 0-.5.5v11A3.5 3.5 0 0 0 5 16.5h21a3.5 3.5 0 0 0 3.5-3.5V2a.5.5 0 0 0-.5-.5H2z"/><path d="M7 6h2v6H7zm5 0h2v6h-2zm5 0h2v6h-2zm5 0h2v6h-2z" fill="#C1E3F1"/><circle fill="#C1E3F1" cx="20" cy="20" r="1"/></g></g></svg>