<svg xmlns="http://www.w3.org/2000/svg" xmlns:xlink="http://www.w3.org/1999/xlink" width="1164" height="706" viewBox="0 0 1164 706"><defs><clipPath id="clip-Artboard_1"><rect width="1164" height="706"></rect></clipPath></defs><g id="Artboard_1" data-name="Artboard &#x2013; 1" clip-path="url(#clip-Artboard_1)"><rect width="1164" height="706" fill="#fff"></rect><circle id="Ellipse_10" data-name="Ellipse 10" cx="9.935" cy="9.935" r="9.935" transform="matrix(0.405, -0.914, 0.914, 0.405, 370.68, 584.026)" fill="none" stroke="#ff5770" stroke-miterlimit="10" stroke-width="1" opacity="0.5"></circle><path id="Path_57" data-name="Path 57" d="M1722.891,784.852l.212-45.5-40.724,28.469Z" transform="translate(-689.237 -250.938)" fill="none" stroke="#928cec" stroke-miterlimit="10" stroke-width="1"></path><path id="Path_58" data-name="Path 58" d="M1139.526,725.23l-25,38.009,49.642-1.638Z" transform="matrix(-0.259, 0.966, -0.966, -0.259, 1815.455, -438.906)" fill="none" stroke="#ff5770" stroke-miterlimit="10" stroke-width="1"></path><circle id="Ellipse_21" data-name="Ellipse 21" cx="9.935" cy="9.935" r="9.935" transform="matrix(0.405, -0.914, 0.914, 0.405, 181.225, 240.308)" fill="none" stroke="#ffcd57" stroke-miterlimit="10" stroke-width="1"></circle><circle id="Ellipse_40" data-name="Ellipse 40" cx="9.935" cy="9.935" r="9.935" transform="matrix(0.405, -0.914, 0.914, 0.405, 1034.225, 363.308)" fill="none" stroke="#ffcd57" stroke-miterlimit="10" stroke-width="1"></circle><path id="Path_123" data-name="Path 123" d="M1264.509,576.714,1230.58,563.7l9.768,38.464Z" transform="translate(-922.692 -341.7)" fill="none" stroke="#00ffb6" stroke-miterlimit="10" stroke-width="1" opacity="0.1"></path><path id="Path_124" data-name="Path 124" d="M1643.762,648.377l38.434-24.343L1636.27,605.09Z" transform="translate(-713.063 -320.313)" fill="none" stroke="#00ffb6" stroke-miterlimit="10" stroke-width="1" opacity="0.3"></path><g id="Group_11" data-name="Group 11" transform="translate(-108.01 -204.03)" opacity="0.2"><path id="Path_120" data-name="Path 120" d="M1090.48,380.41h0a.92.92,0,0,1,.33-1.27l60.58-35.23a.94.94,0,0,1,1.27.34h0a.93.93,0,0,1-.33,1.27l-60.58,35.22a.93.93,0,0,1-1.27-.33Z" fill="#7da2d9"></path><path id="Path_121" data-name="Path 121" d="M1127.76,346.66h0a1.64,1.64,0,0,1-.6,2.26l-14.77,8.59a1.66,1.66,0,0,1-2.27-.6h0a1.65,1.65,0,0,1,.6-2.26l14.78-8.59a1.64,1.64,0,0,1,2.26.6Z" fill="#59eab3"></path></g><g id="Group_18" data-name="Group 18" transform="translate(-1035.01 -9.03)" opacity="0.2"><path id="Path_120-2" data-name="Path 120" d="M1090.48,380.41h0a.92.92,0,0,1,.33-1.27l60.58-35.23a.94.94,0,0,1,1.27.34h0a.93.93,0,0,1-.33,1.27l-60.58,35.22a.93.93,0,0,1-1.27-.33Z" fill="#7da2d9"></path><path id="Path_121-2" data-name="Path 121" d="M1127.76,346.66h0a1.64,1.64,0,0,1-.6,2.26l-14.77,8.59a1.66,1.66,0,0,1-2.27-.6h0a1.65,1.65,0,0,1,.6-2.26l14.78-8.59a1.64,1.64,0,0,1,2.26.6Z" fill="#59eab3"></path></g><g id="Group_20" data-name="Group 20" transform="translate(1.111 1.097)" opacity="0.41"><g id="Group_19" data-name="Group 19" transform="translate(80.484 484.09)"><g id="Rectangle_84" data-name="Rectangle 84" transform="matrix(0.695, 0.719, -0.719, 0.695, 23.982, 0.107)" fill="#fff" stroke="#b532b1" stroke-width="1"><rect width="5.557" height="33.339" rx="2.778" stroke="none"></rect><rect x="0.5" y="0.5" width="4.557" height="32.339" rx="2.278" fill="none"></rect></g><g id="Rectangle_85" data-name="Rectangle 85" transform="translate(27.714 23.575) rotate(135)" fill="#fff" stroke="#b432e2" stroke-width="1"><rect width="5.557" height="33.339" rx="2.778" stroke="none"></rect><rect x="0.5" y="0.5" width="4.557" height="32.339" rx="2.278" fill="none"></rect></g><g id="Rectangle_86" data-name="Rectangle 86" transform="matrix(0.695, 0.719, -0.719, 0.695, 20.629, 4.633)" fill="#fff" stroke="#fff" stroke-width="1"><rect width="3.704" height="22.226" rx="1.852" stroke="none"></rect><rect x="0.5" y="0.5" width="2.704" height="21.226" rx="1.352" fill="none"></rect></g></g></g><g id="Group_21" data-name="Group 21" transform="translate(-1110.01 -20.03)" opacity="0.3"><path id="Path_66" data-name="Path 66" d="M1183.66,89.7a2.54,2.54,0,1,1-2.54-2.53A2.54,2.54,0,0,1,1183.66,89.7Z" fill="#340eb8"></path><path id="Path_67" data-name="Path 67" d="M1196.57,89.7a2.53,2.53,0,1,1-2.53-2.53A2.53,2.53,0,0,1,1196.57,89.7Z" fill="#340eb8"></path><path id="Path_68" data-name="Path 68" d="M1209.49,89.7a2.54,2.54,0,1,1-2.53-2.53,2.54,2.54,0,0,1,2.53,2.53Z" fill="#340eb8"></path><path id="Path_69" data-name="Path 69" d="M1222.41,89.7a2.54,2.54,0,1,1-2.54-2.53,2.54,2.54,0,0,1,2.54,2.53Z" fill="#340eb8"></path><path id="Path_70" data-name="Path 70" d="M1235.32,89.7a2.54,2.54,0,1,1-2.53-2.53,2.54,2.54,0,0,1,2.53,2.53Z" fill="#340eb8"></path><path id="Path_71" data-name="Path 71" d="M1183.66,100.66a2.54,2.54,0,1,1-2.54-2.53,2.54,2.54,0,0,1,2.54,2.53Z" fill="#340eb8"></path><path id="Path_72" data-name="Path 72" d="M1196.57,100.66a2.53,2.53,0,1,1-2.53-2.53,2.53,2.53,0,0,1,2.53,2.53Z" fill="#340eb8"></path><path id="Path_73" data-name="Path 73" d="M1209.49,100.66a2.54,2.54,0,1,1-2.53-2.53,2.54,2.54,0,0,1,2.53,2.53Z" fill="#340eb8"></path><path id="Path_74" data-name="Path 74" d="M1222.41,100.66a2.54,2.54,0,1,1-2.54-2.53,2.54,2.54,0,0,1,2.54,2.53Z" fill="#340eb8"></path><path id="Path_75" data-name="Path 75" d="M1235.32,100.66a2.54,2.54,0,1,1-2.53-2.53,2.54,2.54,0,0,1,2.53,2.53Z" fill="#340eb8"></path><circle id="Ellipse_12" data-name="Ellipse 12" cx="2.53" cy="2.53" r="2.53" transform="translate(1178.59 109.09)" fill="#340eb8"></circle><circle id="Ellipse_13" data-name="Ellipse 13" cx="2.53" cy="2.53" r="2.53" transform="translate(1191.51 109.09)" fill="#340eb8"></circle><path id="Path_76" data-name="Path 76" d="M1209.49,111.62a2.54,2.54,0,1,1-2.53-2.53,2.54,2.54,0,0,1,2.53,2.53Z" fill="#340eb8"></path><path id="Path_77" data-name="Path 77" d="M1222.41,111.62a2.54,2.54,0,1,1-2.54-2.53,2.54,2.54,0,0,1,2.54,2.53Z" fill="#340eb8"></path><path id="Path_78" data-name="Path 78" d="M1235.32,111.62a2.54,2.54,0,1,1-2.53-2.53,2.54,2.54,0,0,1,2.53,2.53Z" fill="#340eb8"></path><circle id="Ellipse_14" data-name="Ellipse 14" cx="2.53" cy="2.53" r="2.53" transform="translate(1178.59 120.05)" fill="#340eb8"></circle><circle id="Ellipse_15" data-name="Ellipse 15" cx="2.53" cy="2.53" r="2.53" transform="translate(1191.51 120.05)" fill="#340eb8"></circle><path id="Path_79" data-name="Path 79" d="M1209.49,122.58a2.54,2.54,0,1,1-2.53-2.53,2.54,2.54,0,0,1,2.53,2.53Z" fill="#340eb8"></path><path id="Path_80" data-name="Path 80" d="M1222.41,122.58a2.54,2.54,0,1,1-2.54-2.53,2.54,2.54,0,0,1,2.54,2.53Z" fill="#340eb8"></path><path id="Path_81" data-name="Path 81" d="M1235.32,122.58a2.54,2.54,0,1,1-2.53-2.53,2.54,2.54,0,0,1,2.53,2.53Z" fill="#340eb8"></path><path id="Path_82" data-name="Path 82" d="M1183.66,133.54a2.54,2.54,0,1,1-2.54-2.53A2.54,2.54,0,0,1,1183.66,133.54Z" fill="#340eb8"></path><path id="Path_83" data-name="Path 83" d="M1196.57,133.54a2.54,2.54,0,1,1-.755-1.807,2.53,2.53,0,0,1,.755,1.807Z" fill="#340eb8"></path><path id="Path_84" data-name="Path 84" d="M1209.49,133.54A2.54,2.54,0,1,1,1207,131a2.54,2.54,0,0,1,2.49,2.54Z" fill="#340eb8"></path><path id="Path_85" data-name="Path 85" d="M1222.41,133.54a2.54,2.54,0,1,1-2.54-2.53,2.54,2.54,0,0,1,2.54,2.53Z" fill="#340eb8"></path><path id="Path_86" data-name="Path 86" d="M1235.32,133.54a2.54,2.54,0,1,1-2.53-2.53,2.54,2.54,0,0,1,2.53,2.53Z" fill="#340eb8"></path><path id="Path_87" data-name="Path 87" d="M1183.66,144.5a2.54,2.54,0,1,1-2.54-2.53A2.54,2.54,0,0,1,1183.66,144.5Z" fill="#340eb8"></path><path id="Path_88" data-name="Path 88" d="M1196.57,144.5A2.53,2.53,0,1,1,1194,142a2.53,2.53,0,0,1,2.57,2.5Z" fill="#340eb8"></path><path id="Path_89" data-name="Path 89" d="M1209.49,144.5A2.54,2.54,0,1,1,1207,142,2.54,2.54,0,0,1,1209.49,144.5Z" fill="#340eb8"></path><path id="Path_90" data-name="Path 90" d="M1222.41,144.5a2.54,2.54,0,1,1-2.54-2.53,2.54,2.54,0,0,1,2.54,2.53Z" fill="#340eb8"></path><path id="Path_91" data-name="Path 91" d="M1235.32,144.5a2.54,2.54,0,1,1-2.53-2.53,2.54,2.54,0,0,1,2.53,2.53Z" fill="#340eb8"></path></g><g id="Group_22" data-name="Group 22" transform="translate(-110.01 22.97)" opacity="0.3"><path id="Path_66-2" data-name="Path 66" d="M1183.66,89.7a2.54,2.54,0,1,1-2.54-2.53A2.54,2.54,0,0,1,1183.66,89.7Z" fill="#b8520e"></path><path id="Path_67-2" data-name="Path 67" d="M1196.57,89.7a2.53,2.53,0,1,1-2.53-2.53A2.53,2.53,0,0,1,1196.57,89.7Z" fill="#b8520e"></path><path id="Path_68-2" data-name="Path 68" d="M1209.49,89.7a2.54,2.54,0,1,1-2.53-2.53,2.54,2.54,0,0,1,2.53,2.53Z" fill="#b8520e"></path><path id="Path_69-2" data-name="Path 69" d="M1222.41,89.7a2.54,2.54,0,1,1-2.54-2.53,2.54,2.54,0,0,1,2.54,2.53Z" fill="#b8520e"></path><path id="Path_70-2" data-name="Path 70" d="M1235.32,89.7a2.54,2.54,0,1,1-2.53-2.53,2.54,2.54,0,0,1,2.53,2.53Z" fill="#b8520e"></path><path id="Path_71-2" data-name="Path 71" d="M1183.66,100.66a2.54,2.54,0,1,1-2.54-2.53,2.54,2.54,0,0,1,2.54,2.53Z" fill="#b8520e"></path><path id="Path_72-2" data-name="Path 72" d="M1196.57,100.66a2.53,2.53,0,1,1-2.53-2.53,2.53,2.53,0,0,1,2.53,2.53Z" fill="#b8520e"></path><path id="Path_73-2" data-name="Path 73" d="M1209.49,100.66a2.54,2.54,0,1,1-2.53-2.53,2.54,2.54,0,0,1,2.53,2.53Z" fill="#b8520e"></path><path id="Path_74-2" data-name="Path 74" d="M1222.41,100.66a2.54,2.54,0,1,1-2.54-2.53,2.54,2.54,0,0,1,2.54,2.53Z" fill="#b8520e"></path><path id="Path_75-2" data-name="Path 75" d="M1235.32,100.66a2.54,2.54,0,1,1-2.53-2.53,2.54,2.54,0,0,1,2.53,2.53Z" fill="#b8520e"></path><circle id="Ellipse_12-2" data-name="Ellipse 12" cx="2.53" cy="2.53" r="2.53" transform="translate(1178.59 109.09)" fill="#b8520e"></circle><circle id="Ellipse_13-2" data-name="Ellipse 13" cx="2.53" cy="2.53" r="2.53" transform="translate(1191.51 109.09)" fill="#b8520e"></circle><path id="Path_76-2" data-name="Path 76" d="M1209.49,111.62a2.54,2.54,0,1,1-2.53-2.53,2.54,2.54,0,0,1,2.53,2.53Z" fill="#b8520e"></path><path id="Path_77-2" data-name="Path 77" d="M1222.41,111.62a2.54,2.54,0,1,1-2.54-2.53,2.54,2.54,0,0,1,2.54,2.53Z" fill="#b8520e"></path><path id="Path_78-2" data-name="Path 78" d="M1235.32,111.62a2.54,2.54,0,1,1-2.53-2.53,2.54,2.54,0,0,1,2.53,2.53Z" fill="#b8520e"></path><circle id="Ellipse_14-2" data-name="Ellipse 14" cx="2.53" cy="2.53" r="2.53" transform="translate(1178.59 120.05)" fill="#b8520e"></circle><circle id="Ellipse_15-2" data-name="Ellipse 15" cx="2.53" cy="2.53" r="2.53" transform="translate(1191.51 120.05)" fill="#b8520e"></circle><path id="Path_79-2" data-name="Path 79" d="M1209.49,122.58a2.54,2.54,0,1,1-2.53-2.53,2.54,2.54,0,0,1,2.53,2.53Z" fill="#b8520e"></path><path id="Path_80-2" data-name="Path 80" d="M1222.41,122.58a2.54,2.54,0,1,1-2.54-2.53,2.54,2.54,0,0,1,2.54,2.53Z" fill="#b8520e"></path><path id="Path_81-2" data-name="Path 81" d="M1235.32,122.58a2.54,2.54,0,1,1-2.53-2.53,2.54,2.54,0,0,1,2.53,2.53Z" fill="#b8520e"></path><path id="Path_82-2" data-name="Path 82" d="M1183.66,133.54a2.54,2.54,0,1,1-2.54-2.53A2.54,2.54,0,0,1,1183.66,133.54Z" fill="#b8520e"></path><path id="Path_83-2" data-name="Path 83" d="M1196.57,133.54a2.54,2.54,0,1,1-.755-1.807,2.53,2.53,0,0,1,.755,1.807Z" fill="#b8520e"></path><path id="Path_84-2" data-name="Path 84" d="M1209.49,133.54A2.54,2.54,0,1,1,1207,131a2.54,2.54,0,0,1,2.49,2.54Z" fill="#b8520e"></path><path id="Path_85-2" data-name="Path 85" d="M1222.41,133.54a2.54,2.54,0,1,1-2.54-2.53,2.54,2.54,0,0,1,2.54,2.53Z" fill="#b8520e"></path><path id="Path_86-2" data-name="Path 86" d="M1235.32,133.54a2.54,2.54,0,1,1-2.53-2.53,2.54,2.54,0,0,1,2.53,2.53Z" fill="#b8520e"></path><path id="Path_87-2" data-name="Path 87" d="M1183.66,144.5a2.54,2.54,0,1,1-2.54-2.53A2.54,2.54,0,0,1,1183.66,144.5Z" fill="#b8520e"></path><path id="Path_88-2" data-name="Path 88" d="M1196.57,144.5A2.53,2.53,0,1,1,1194,142a2.53,2.53,0,0,1,2.57,2.5Z" fill="#b8520e"></path><path id="Path_89-2" data-name="Path 89" d="M1209.49,144.5A2.54,2.54,0,1,1,1207,142,2.54,2.54,0,0,1,1209.49,144.5Z" fill="#b8520e"></path><path id="Path_90-2" data-name="Path 90" d="M1222.41,144.5a2.54,2.54,0,1,1-2.54-2.53,2.54,2.54,0,0,1,2.54,2.53Z" fill="#b8520e"></path><path id="Path_91-2" data-name="Path 91" d="M1235.32,144.5a2.54,2.54,0,1,1-2.53-2.53,2.54,2.54,0,0,1,2.53,2.53Z" fill="#b8520e"></path></g><g id="Group_23" data-name="Group 23" transform="translate(-110.01 -50.03)" opacity="0.3"><path id="Path_66-3" data-name="Path 66" d="M1183.66,89.7a2.54,2.54,0,1,1-2.54-2.53A2.54,2.54,0,0,1,1183.66,89.7Z" fill="#63b80e"></path><path id="Path_67-3" data-name="Path 67" d="M1196.57,89.7a2.53,2.53,0,1,1-2.53-2.53A2.53,2.53,0,0,1,1196.57,89.7Z" fill="#63b80e"></path><path id="Path_68-3" data-name="Path 68" d="M1209.49,89.7a2.54,2.54,0,1,1-2.53-2.53,2.54,2.54,0,0,1,2.53,2.53Z" fill="#63b80e"></path><path id="Path_69-3" data-name="Path 69" d="M1222.41,89.7a2.54,2.54,0,1,1-2.54-2.53,2.54,2.54,0,0,1,2.54,2.53Z" fill="#63b80e"></path><path id="Path_70-3" data-name="Path 70" d="M1235.32,89.7a2.54,2.54,0,1,1-2.53-2.53,2.54,2.54,0,0,1,2.53,2.53Z" fill="#63b80e"></path><path id="Path_71-3" data-name="Path 71" d="M1183.66,100.66a2.54,2.54,0,1,1-2.54-2.53,2.54,2.54,0,0,1,2.54,2.53Z" fill="#63b80e"></path><path id="Path_72-3" data-name="Path 72" d="M1196.57,100.66a2.53,2.53,0,1,1-2.53-2.53,2.53,2.53,0,0,1,2.53,2.53Z" fill="#63b80e"></path><path id="Path_73-3" data-name="Path 73" d="M1209.49,100.66a2.54,2.54,0,1,1-2.53-2.53,2.54,2.54,0,0,1,2.53,2.53Z" fill="#63b80e"></path><path id="Path_74-3" data-name="Path 74" d="M1222.41,100.66a2.54,2.54,0,1,1-2.54-2.53,2.54,2.54,0,0,1,2.54,2.53Z" fill="#63b80e"></path><path id="Path_75-3" data-name="Path 75" d="M1235.32,100.66a2.54,2.54,0,1,1-2.53-2.53,2.54,2.54,0,0,1,2.53,2.53Z" fill="#63b80e"></path><circle id="Ellipse_12-3" data-name="Ellipse 12" cx="2.53" cy="2.53" r="2.53" transform="translate(1178.59 109.09)" fill="#63b80e"></circle><circle id="Ellipse_13-3" data-name="Ellipse 13" cx="2.53" cy="2.53" r="2.53" transform="translate(1191.51 109.09)" fill="#63b80e"></circle><path id="Path_76-3" data-name="Path 76" d="M1209.49,111.62a2.54,2.54,0,1,1-2.53-2.53,2.54,2.54,0,0,1,2.53,2.53Z" fill="#63b80e"></path><path id="Path_77-3" data-name="Path 77" d="M1222.41,111.62a2.54,2.54,0,1,1-2.54-2.53,2.54,2.54,0,0,1,2.54,2.53Z" fill="#63b80e"></path><path id="Path_78-3" data-name="Path 78" d="M1235.32,111.62a2.54,2.54,0,1,1-2.53-2.53,2.54,2.54,0,0,1,2.53,2.53Z" fill="#63b80e"></path><circle id="Ellipse_14-3" data-name="Ellipse 14" cx="2.53" cy="2.53" r="2.53" transform="translate(1178.59 120.05)" fill="#63b80e"></circle><circle id="Ellipse_15-3" data-name="Ellipse 15" cx="2.53" cy="2.53" r="2.53" transform="translate(1191.51 120.05)" fill="#63b80e"></circle><path id="Path_79-3" data-name="Path 79" d="M1209.49,122.58a2.54,2.54,0,1,1-2.53-2.53,2.54,2.54,0,0,1,2.53,2.53Z" fill="#63b80e"></path><path id="Path_80-3" data-name="Path 80" d="M1222.41,122.58a2.54,2.54,0,1,1-2.54-2.53,2.54,2.54,0,0,1,2.54,2.53Z" fill="#63b80e"></path><path id="Path_81-3" data-name="Path 81" d="M1235.32,122.58a2.54,2.54,0,1,1-2.53-2.53,2.54,2.54,0,0,1,2.53,2.53Z" fill="#63b80e"></path><path id="Path_82-3" data-name="Path 82" d="M1183.66,133.54a2.54,2.54,0,1,1-2.54-2.53A2.54,2.54,0,0,1,1183.66,133.54Z" fill="#63b80e"></path><path id="Path_83-3" data-name="Path 83" d="M1196.57,133.54a2.54,2.54,0,1,1-.755-1.807,2.53,2.53,0,0,1,.755,1.807Z" fill="#63b80e"></path><path id="Path_84-3" data-name="Path 84" d="M1209.49,133.54A2.54,2.54,0,1,1,1207,131a2.54,2.54,0,0,1,2.49,2.54Z" fill="#63b80e"></path><path id="Path_85-3" data-name="Path 85" d="M1222.41,133.54a2.54,2.54,0,1,1-2.54-2.53,2.54,2.54,0,0,1,2.54,2.53Z" fill="#63b80e"></path><path id="Path_86-3" data-name="Path 86" d="M1235.32,133.54a2.54,2.54,0,1,1-2.53-2.53,2.54,2.54,0,0,1,2.53,2.53Z" fill="#63b80e"></path><path id="Path_87-3" data-name="Path 87" d="M1183.66,144.5a2.54,2.54,0,1,1-2.54-2.53A2.54,2.54,0,0,1,1183.66,144.5Z" fill="#63b80e"></path><path id="Path_88-3" data-name="Path 88" d="M1196.57,144.5A2.53,2.53,0,1,1,1194,142a2.53,2.53,0,0,1,2.57,2.5Z" fill="#63b80e"></path><path id="Path_89-3" data-name="Path 89" d="M1209.49,144.5A2.54,2.54,0,1,1,1207,142,2.54,2.54,0,0,1,1209.49,144.5Z" fill="#63b80e"></path><path id="Path_90-3" data-name="Path 90" d="M1222.41,144.5a2.54,2.54,0,1,1-2.54-2.53,2.54,2.54,0,0,1,2.54,2.53Z" fill="#63b80e"></path><path id="Path_91-3" data-name="Path 91" d="M1235.32,144.5a2.54,2.54,0,1,1-2.53-2.53,2.54,2.54,0,0,1,2.53,2.53Z" fill="#63b80e"></path></g></g></svg>