<svg version="1.2" xmlns="http://www.w3.org/2000/svg" viewBox="0 0 140 33" width="140" height="33">
	<title>region-ile-de-françe_1</title>
	<defs>
		<clipPath clipPathUnits="userSpaceOnUse" id="cp1">
			<path d="m139.61 0v33h-139.22v-33z"/>
		</clipPath>
	</defs>
	<style>
		.s0 { fill: #d71302 } 
		.s1 { fill: #2a327b } 
	</style>
	<g id="Clip-Path" clip-path="url(#cp1)">
		<g>
			<path fill-rule="evenodd" class="s0" d="m32.1 19.7h-2.8l2.4-3.2h3.3l2 2.6v-2.4h3.7v15.6h-3.7v-12.6h-2.3l-1.3-1.7zm-0.6 12.5v-11.3h3.7v11.3zm17.5-2.5q0.5-0.3 0.8-0.9h3.5c-0.7 2.6-3.1 3.7-5.6 3.7-3.6 0-6.1-2.2-6.1-6 0-3.5 2.7-6 6-6 4 0 6 3.1 5.9 6.9h-8.3c0.1 1.6 1 2.6 2.5 2.6q0.7 0 1.3-0.3zm-3.8-4.3h4.6c-0.1-1.3-1-2.4-2.2-2.4-1.3 0-2.1 1-2.4 2.4zm17.2 6.8h-1.5v-1.2c-0.5 1-1.6 1.4-2.8 1.4-2.7 0-4.1-2.2-4.1-4.7 0-2.5 1.3-4.6 4-4.6 0.9 0 2.2 0.3 2.9 1.4v-4.6h1.5zm-4.1-1.1c1.9 0 2.7-1.7 2.7-3.4 0-1.7-0.8-3.3-2.8-3.3-2 0-2.6 1.7-2.6 3.4 0 1.7 0.8 3.3 2.7 3.3zm4.9-3.4c0-2.7 1.8-4.7 4.2-4.7 3.1 0 4 3 3.9 5.1h-6.5c-0.1 1.6 0.8 3 2.7 3 1.2 0 2-0.6 2.3-1.8h1.4c-0.4 2-1.8 3.1-3.7 3.1-2.8 0-4.2-2-4.3-4.7zm4.1-3.4c-1.5 0-2.4 1.2-2.5 2.5h5c0-0.6-0.3-1.3-0.7-1.8-0.5-0.4-1.1-0.7-1.8-0.7zm5-7.8h11.3v3.3h-7.3v3.2h6.3v3.1h-6.3v6.1h-4zm15.6 6.2c0.6-1.4 1.8-2.2 3.4-2.2q0.4 0 0.9 0.1v3.4q-0.7-0.2-1.4-0.2c-1.8 0-2.8 1.3-2.8 2.7v5.6h-3.7v-11.4h3.6zm4.3 1.5c0-0.6 0.1-1.2 0.4-1.7q0.5-0.8 1.3-1.3c1.1-0.6 2.3-0.8 3.6-0.8 2.6 0 5.2 0.6 5.2 3.8v5c0 1 0 2 0.4 2.9h-3.7q-0.2-0.5-0.2-1.1-0.7 0.7-1.7 1.1-1 0.4-2 0.3c-2.1 0-3.8-1.1-3.8-3.4 0-3 2.7-3.4 5.1-3.7q0.7-0.1 1.4-0.2c0.6-0.2 1-0.4 1-1.1 0-0.8-1-1.2-1.8-1.2-1 0-1.6 0.5-1.8 1.4h-3.4zm4.7 5.9c1.7 0 2.3-1 2.2-3.3-0.3 0.2-0.8 0.3-1.4 0.4q-0.4 0.1-0.8 0.2c-0.8 0.2-1.5 0.6-1.5 1.5 0 0.9 0.7 1.2 1.5 1.2zm10.7-7.8c0.7-1.2 2.2-1.9 3.5-1.9 3.8 0 4.1 2.8 4.1 4.4v7.3h-3.7v-5.5q0-0.2 0-0.3c0-1.5 0-2.8-1.8-2.8-1.4 0-2 1.2-2 2.4v6.2h-3.7v-11.4h3.6zm16.2 2.6c0-0.4-0.2-0.8-0.6-1.1-0.3-0.4-0.7-0.5-1.2-0.5-2 0-2.4 1.8-2.4 3.4 0 1.4 0.7 2.9 2.2 2.9 1.3 0 1.9-0.7 2.1-1.9h3.6c-0.4 3-2.7 4.8-5.7 4.8-3.3 0-5.8-2.4-5.8-5.8 0-3.7 2.2-6.2 5.8-6.2 2.8 0 5.3 1.4 5.6 4.4zm11.2 4.7q0.6-0.3 0.9-0.9h3.4c-0.6 2.6-3 3.8-5.5 3.8-3.7 0-6.2-2.3-6.2-6.1 0-3.5 2.8-6 6.1-6 4 0 6 3.1 5.8 7h-8.2c0.1 1.5 1 2.5 2.5 2.5q0.7 0.1 1.2-0.3zm-3.7-4.3h4.5c0-1.3-0.9-2.3-2.1-2.3-1.3 0-2.2 0.9-2.4 2.3z"/>
			<path fill-rule="evenodd" class="s1" d="m43.4 9.1c0-2.9 1.9-5 4.4-5 3.4 0 4.4 3.2 4.4 5.5h-7.2c0 1.7 0.9 3.2 3 3.2 1.3 0 2.2-0.6 2.5-1.9h1.5c-0.4 2.2-1.9 3.3-4.1 3.3-3 0-4.4-2.1-4.5-5.1zm4.4-3.6c-1.7 0-2.7 1.2-2.8 2.7h5.5c0-0.7-0.3-1.4-0.8-1.9-0.5-0.5-1.2-0.8-1.9-0.8zm-0.1-2.5h-1.2l1.6-2.7h2zm-6 1.1c0 1.6-0.7 3-2.3 3.4v0.1c1.6 0.3 1.9 1.4 2 2.7q0.1 0.4 0.1 0.9c0 1 0.1 2.1 0.7 2.8h-2c-0.3-0.3-0.3-1-0.3-1.7 0-0.5 0-1.1-0.1-1.6-0.2-1.3-0.5-2.4-2.2-2.4h-4.3v5.7h-1.7v-13.4h6.1c2.5 0 4 1.4 4 3.5zm-4.1-2h-4.3v4.7h3.6c1.7 0 3.1-0.4 3.1-2.4 0-1.3-0.7-2.3-2.4-2.3zm24.4 11.1c0 3.1-1.4 4.7-4.4 4.7-1.8 0-3.9-0.7-4-2.8h1.6c0.1 1.1 1.4 1.5 2.5 1.5 2 0 2.8-1.5 2.8-3.6v-0.7c-0.3 0.6-0.7 1-1.2 1.4-0.6 0.3-1.2 0.4-1.8 0.4-2.8 0-4.2-2.3-4.2-4.9 0-2.3 1.1-5.1 4.4-5.1 0.5 0 1.1 0.1 1.6 0.4 0.5 0.3 0.9 0.7 1.2 1.2v-1.4h1.5zm-1.6-4.2c0-1.7-0.7-3.4-2.7-3.4-1.9 0-2.8 1.6-2.8 3.5 0 1.7 0.7 3.7 2.7 3.7 2.1 0 2.8-2 2.8-3.8zm5.6-8.3v1.9h-1.6v-1.9zm0 3.7v9.6h-1.5v-9.6zm6.5-0.2c3 0 4.6 2.2 4.6 5 0 2.9-1.6 5.1-4.6 5.1-3 0-4.6-2.3-4.6-5.1 0-2.8 1.6-5 4.6-5zm0 8.7c1.6 0 3-1.3 3-3.7 0-2.3-1.4-3.6-3-3.6-1.6 0-2.9 1.3-2.9 3.6 0 2.4 1.2 3.7 2.9 3.7zm7.9-7c0.3-0.5 0.8-1 1.3-1.3 0.6-0.3 1.2-0.5 1.8-0.4 2.5 0 3.3 1.4 3.3 3.5v6.3h-1.5v-6.5q0-0.4-0.2-0.8-0.1-0.3-0.4-0.6-0.3-0.3-0.6-0.4-0.4-0.2-0.8-0.1c-1.9 0-2.8 1.2-2.8 3v5.4h-1.6v-9.6h1.5z"/>
			<path class="s0" d="m19.1 12.3q-0.2 0-0.3 0.1-0.1 0-0.1 0c0.1-0.1-0.5 0.4-0.5 0.2 0-0.1 0 0 0 0 0.1 0-1.2 0.4-1.2 0.4q-0.1-0.1-0.1-0.2 0.1-0.1 0.1-0.2c0.1-0.3-0.2-0.7-0.1-0.6q0 0 0 0 0-0.1 0-0.1 0-0.1 0-0.1 0 0 0-0.1c0.1 0.1 0 0 0.1-0.1 0 0-0.1-0.2 0-0.1q0.1-0.2 0.1-0.4 0.1-0.3 0-0.5c-0.2-0.5-0.1-4.3 0-4.2 0-0.2-0.2-0.4-0.1-0.6 0-0.2-0.2-0.2-0.1-0.4-0.1-0.4-0.7-0.4-0.6-0.4-0.3 0-1.4 1.8-1.4 1.8 0 0-0.8 1.2-0.7 1.2-0.1 0-0.2 0.1-0.3 0.3 0 0-0.4 0.6-0.4 0.5-0.1 0.3-0.3 0.5-0.5 0.8 0.2-0.1-0.2 0.2-0.1 0.2 0 0-0.4 0.8-0.4 0.8 0-0.1-0.4 0.4-0.4 0.4-0.1 0.4-1.6-0.6-1.7-1 0 0 0-0.5-0.2-0.5l-1-0.9c-0.6-0.8-1-0.8-1.9-1.6q-0.1-0.3-0.4-0.7c-0.3 0.1-0.7 0.7-0.7 0.8-0.1 0-0.1-0.1-0.2-0.2q0 0.7 0.2 1.4c0 0.1 0 1 0.1 0.8l0.1 0.1c0 0-0.2 0.1 0 0.2 0.1 0.3 0.4 0.5 0.3 0.8-0.2 0 0 0.5 0 0.3-0.2 0.7 1.5 2.1 1.2 3-0.1 0.1 0.3 0.6 0.3 0.6q-0.4 0.2-0.9 0.3c-0.1 0.1-0.2 0-0.3 0 0 0-0.8-0.3-1-0.2 0 0-0.6-0.1-0.6-0.1 0.1-0.1-0.7 0.2-0.6-0.1 0.1-0.2-0.7 0.3-0.5 0.1 0 0-0.3 0.2-0.3 0.2 0-0.1-0.3 0-0.2 0-0.1 0-0.4-0.1-0.3-0.1-0.2-0.1-0.2 0-0.5-0.1q-0.1 0.1-0.3 0.1h-0.4c0 0-0.4 0.1-0.4 0 0 0-0.4 0.2-0.5 0.1 0.1-0.2-0.4 0.1-0.5 0.1 0 0-0.2-0.1-0.2 0 0 0-0.3 0.3-0.3 0.3 0 0 1.5 1.2 1.3 1q0.3 0.2 0.5 0.4c0 0.1 0.6 0 0.5 0.3 0.6-0.3 1.8 1.3 2.2 1.1 0.1 0 0.3 0.3 0.3 0.2-0.1 0 0.3 0.2 0.2 0.2 0.1 0 0.1 0 0.2 0.2 0.5 0 0.7 0.4 0.9 0.5 0.5 1.1-1.7 2.1-1.9 2.6q0 0.1 0 0.1c-0.1-0.1-0.3 0.1-0.4 0.3l-0.3 0.4c-0.3-0.1-1 1.1-1.3 1.3l-0.8 0.3q0 0.1-0.1 0.2-0.1 0.2-0.3 0.3-0.2 0.2-0.5 0.4l-0.1 0.3h0.2q-0.1 0.1-0.1 0.2c-0.1 0.1-0.1 0.2 0 0.3 0.2 0 0.2 0 0.3 0.1 0 0 0.6 0.1 0.6 0.1l0.4-0.2q0.6-0.1 1.3 0 0.7-0.1 1.3-0.4c0.1 0 0.9-0.3 0.9-0.3 0.2-0.1 0.7-0.2 0.8-0.3q0.4-0.2 0.9-0.2c0 0.1 1.9-0.3 2-0.6q0 0 0.1 0.1 0 0 0 0.1 0.1 0.5 0 1.1c0-0.1-0.3 0.2-0.2 0.3 0.2 0.1 0.2 0 0.3 0.3-0.1-0.1 0 0.5 0 0.8 0 0.1 0.2 0.6-0.1 0.7 0 0-0.2 0.5-0.2 0.5 0-0.2 0 0.1 0 0 0.1-0.1 0.1 0.5 0 0.5 0.1 0-0.1 0.2-0.1 0.1-0.2 0.6 0.3 0.6 0 0.7 0.2 0 0.2 0.8 0.2 0.7q0.1 0.3 0 0.7c-0.1-0.2-0.2 0.3-0.2 0.4 0.1 0.3 0 0.9 0.2 1 0-0.1 0.2 0.2 0.2 0.2 0.7 0.3 0.8-0.5 1.1-0.7 0.1 0 0.2-0.4 0.3-0.3 0-0.1 0.4-1.9 0.6-1.8q0.4-0.5 0.6-1c0 0-0.2-0.3 0.3-0.5 0.2 0.1 0.3-0.6 0.4-1 0-0.2 0.2-0.1 0.2-0.3q0.3-0.4 0.5-1c0.1 0 0.1-0.3 0.1-0.2-0.1-0.2 0.1-0.3 0.1-0.4 0-0.2 0-0.3 0.1-0.3 0.1-0.4 0.3-0.2 0.3-0.2 0.1 0 0.3 0 0.3 0.2-0.1 0.2 0.3 0.3 0.3 0.4 0-0.1 2 2.3 2.6 2.8 0 0 1.5 1.6 1.5 1.6 0.2 0.1 0.3 0.4 0.3 0.4-0.1 0.1 0.3 0.2 0.4 0.2 0.2 0.5 0.2 0.4 0.3 0.3 0.1 0.2 0.4 0.1 0.5 0.2 0-0.1 0.3-0.2 0.2-0.3 0.1 0-0.1-0.4 0-0.3-0.1-0.2-0.7-1-0.6-1.1 0-0.1 0-0.1 0.1 0 0 0-0.1-0.1-0.1-0.2q0.1 0 0-0.1c-0.1 0-0.2-0.7-0.1-0.8 0-0.1-0.5-2.3-0.8-2.5q0-0.3-0.1-0.6c-0.4-0.2 0-0.8-0.3-0.8-0.1 0.1-0.4-0.4-0.4-0.8-0.1-0.3 0-0.9-0.1-0.8-0.1-0.1 0.4-0.3 0.5 0 1.1 0.4 3.1-0.3 3.9 0.3 0.1-0.3 0.5-0.1 0.3-0.1 0 0 0.1 0 0.1 0q0.4 0 0.9 0c-0.4 0 0.4 0 0.4 0q0.7-0.1 1.4-0.4c0.3-0.1 0.3-0.3 0.4-0.6-0.1 0.3 0.1-0.3-0.2-0.4-1.5-0.4-2.8-1.6-4.3-2-0.6-0.1-1.6-1.6-2.1-1.5 0.9-1.1 1.8-2.2 2.8-3.1 0.2-0.2 2.1-2.3 2.1-2.3 0.1-0.1 0.2-0.4 0.2-0.3q0-0.1-0.1-0.2c0 0-0.7-0.5-0.9-0.2 0.3 0.2-0.5 0.2-0.7 0.3q0 0-0.1 0 0 0-0.1 0c-0.2-0.1-0.4 0.2-0.5 0.2-0.3-0.3-1 0.2-1.4 0.3q-0.1 0-0.3 0c-0.2 0.2-0.1 0.1-0.1 0.1q-0.3 0.2-0.6 0.3c0.1 0-0.2 0.1-0.3 0.1 0 0-0.1 0.2-0.2 0.1-0.2 0-0.1-0.1-0.2 0"/>
		</g>
	</g>
</svg>