<svg id="Layer_1" data-name="Layer 1" xmlns="http://www.w3.org/2000/svg" viewBox="0 0 100 100"><defs><style>.cls-1{fill:#9f63d3;}.cls-2{fill:#ff9e5e;}.cls-3{fill:#fa8d46;}.cls-4{fill:#fff7e8;}.cls-5{fill:#ffd88f;}.cls-6{fill:#ffc963;}</style></defs><g id="_comment_" data-name="&lt;comment&gt;"><rect class="cls-1" width="100" height="100" rx="5"/><path class="cls-2" d="M775,289.46a30.56,30.56,0,1,0-20.48,28.75l9.33,4.51V313A30.33,30.33,0,0,0,775,289.46Z" transform="translate(-689.08 -244.08)"/><path class="cls-3" d="M744.4,259c-1,0-1.92.05-2.86.13a30.52,30.52,0,0,1,27.74,30.33c0,15.6-12.51,28.85-27.78,30.32,1,.09,1.92.14,2.9.14a30.54,30.54,0,0,0,10.12-1.71l9.33,4.51V313a30.43,30.43,0,0,0-19.45-54Z" transform="translate(-689.08 -244.08)"/><circle class="cls-4" cx="41.12" cy="45.99" r="4.32"/><circle class="cls-4" cx="55.28" cy="45.99" r="4.32"/><circle class="cls-4" cx="69.44" cy="45.99" r="4.32"/><path class="cls-5" d="M704,313.6a15.09,15.09,0,1,1,15.08,15,15.22,15.22,0,0,1-5-.84L709.49,330v-4.81A15,15,0,0,1,704,313.6Z" transform="translate(-689.08 -244.08)"/><path class="cls-6" d="M719.05,298.59a14.91,14.91,0,0,0-2.86.27,15,15,0,0,1,0,29.49,15.65,15.65,0,0,0,2.85.27,15,15,0,1,0,0-30Z" transform="translate(-689.08 -244.08)"/></g></svg>