<svg id="Layer_1" data-name="Layer 1" xmlns="http://www.w3.org/2000/svg" viewBox="0 0 100 100"><defs><style>.cls-1{fill:#dd4e96;}.cls-2{fill:#ffc380;}.cls-3{fill:#ffcf99;}.cls-4{fill:#73c3ff;}.cls-5{fill:#44a4ec;}</style></defs><g id="_dislike_" data-name="&lt;dislike&gt;"><rect class="cls-1" width="100" height="100" rx="5"/><path class="cls-2" d="M541.22,316.37h-16.7a2,2,0,0,0-1.78,1.07,2,2,0,0,0,.75,2.53c7.3,4.31,11.09,9.34,11.59,15.37a4.15,4.15,0,0,0,4.15,3.74,8.2,8.2,0,0,0,8.06-8.18h0v-.65c0-5.28-1.57-8.65-4.45-13A1.93,1.93,0,0,0,541.22,316.37Z" transform="translate(-480.08 -254.08)"/><path class="cls-3" d="M561.86,314.68a6.13,6.13,0,0,1-6.14,5.55H524.55a1.9,1.9,0,0,1-1-.27c-2.2-1.3-4.41-2.36-6.19-3.22-.62-.3-1.21-.58-1.74-.85a1.93,1.93,0,0,1-1.07-1.73V289.34a1.94,1.94,0,0,1,1.07-1.74c7.83-3.91,14.35-4.39,21.94-4.39l3.62,0,4.26,0h6a6.07,6.07,0,0,1,5.31,9.17,6.08,6.08,0,0,1,2.07,8.27,6.07,6.07,0,0,1,1.32,9.28A6,6,0,0,1,561.86,314.68Z" transform="translate(-480.08 -254.08)"/><path id="SVGCleanerId_0" data-name="SVGCleanerId 0" class="cls-4" d="M510.19,311.89V322h-3.87V311.84a1.94,1.94,0,0,1,2.16-1.93A2,2,0,0,1,510.19,311.89Z" transform="translate(-480.08 -254.08)"/><path id="SVGCleanerId_0-2" data-name="SVGCleanerId 0" class="cls-4" d="M510.19,311.89V322h-3.87V311.84a1.94,1.94,0,0,1,2.16-1.93A2,2,0,0,1,510.19,311.89Z" transform="translate(-480.08 -254.08)"/><path class="cls-5" d="M516.5,285.06H500a1.94,1.94,0,0,0-1.94,1.94v33.07a2,2,0,0,0,1.93,2h12.37a6.09,6.09,0,0,0,6-6.09V287A1.93,1.93,0,0,0,516.5,285.06Z" transform="translate(-480.08 -254.08)"/><path class="cls-4" d="M510.19,311.76V322h-3.87V311.71a2,2,0,0,1,2.16-1.93A2,2,0,0,1,510.19,311.76Z" transform="translate(-480.08 -254.08)"/></g></svg>