<svg id="Layer_1" data-name="Layer 1" xmlns="http://www.w3.org/2000/svg" viewBox="0 0 100 100"><defs><style>.cls-1{fill:#d7fffc;}.cls-2{fill:#ffc380;}.cls-3{fill:#ffcf99;}.cls-4{fill:#29ccb1;}.cls-5{fill:#73c3ff;}.cls-6{fill:#44a4ec;}</style></defs><rect class="cls-1" width="100" height="100" rx="5"/><path class="cls-2" d="M719.14,193.85h-16.7a2,2,0,0,1-1.78-1.08,2,2,0,0,1,.75-2.53c7.3-4.31,11.09-9.33,11.59-15.37a4.17,4.17,0,0,1,4.15-3.74,8.2,8.2,0,0,1,8.06,8.18h0V180c0,5.28-1.57,8.65-4.46,13A1.92,1.92,0,0,1,719.14,193.85Z" transform="translate(-659 -148)"/><path class="cls-3" d="M739.78,195.54a6.14,6.14,0,0,0-6.14-5.56H702.47a2,2,0,0,0-1,.27c-2.2,1.3-4.41,2.37-6.19,3.22l-1.74.85a1.94,1.94,0,0,0-1.07,1.74v24.82a1.93,1.93,0,0,0,1.07,1.73c7.83,3.92,14.35,4.39,21.94,4.39l3.62,0q2,0,4.26,0h6a6.07,6.07,0,0,0,5.32-9.16,6.06,6.06,0,0,0,2.91-5.19,6,6,0,0,0-.84-3.08,6.1,6.1,0,0,0,2.91-5.19,6,6,0,0,0-1.59-4.09A6.09,6.09,0,0,0,739.78,195.54Z" transform="translate(-659 -148)"/><path class="cls-4" d="M735.67,179.16H731.6a2,2,0,0,1-2-1.71,1.93,1.93,0,0,1,1.92-2.15h4.07a2,2,0,0,1,2,1.71A1.93,1.93,0,0,1,735.67,179.16Z" transform="translate(-659 -148)"/><path class="cls-4" d="M706.76,179.16H702.7a2,2,0,0,1-2-1.71,1.93,1.93,0,0,1,1.92-2.15h4.07a2,2,0,0,1,2,1.71A1.93,1.93,0,0,1,706.76,179.16Z" transform="translate(-659 -148)"/><path class="cls-4" d="M713,168.45a1.91,1.91,0,0,1-1.67-1l-2.07-3.58a1.93,1.93,0,0,1,3.35-1.93l2.07,3.57a1.94,1.94,0,0,1-.71,2.65A2,2,0,0,1,713,168.45Z" transform="translate(-659 -148)"/><path class="cls-4" d="M725.35,168.45a2,2,0,0,1-1-.26,2,2,0,0,1-.71-2.65l2.07-3.57a1.93,1.93,0,1,1,3.35,1.93L727,167.48A1.94,1.94,0,0,1,725.35,168.45Z" transform="translate(-659 -148)"/><path id="SVGCleanerId_0" data-name="SVGCleanerId 0" class="cls-5" d="M688.11,216.81V227h-3.87V216.76a1.93,1.93,0,0,1,2.15-1.93A2,2,0,0,1,688.11,216.81Z" transform="translate(-659 -148)"/><path class="cls-4" d="M735.67,179.16H731.6a2,2,0,0,1-2-1.71,1.93,1.93,0,0,1,1.92-2.15h4.07a2,2,0,0,1,2,1.71A1.93,1.93,0,0,1,735.67,179.16Z" transform="translate(-659 -148)"/><path class="cls-4" d="M706.76,179.16H702.7a2,2,0,0,1-2-1.71,1.93,1.93,0,0,1,1.92-2.15h4.07a2,2,0,0,1,2,1.71A1.93,1.93,0,0,1,706.76,179.16Z" transform="translate(-659 -148)"/><path class="cls-4" d="M713,168.45a1.91,1.91,0,0,1-1.67-1l-2.07-3.58a1.93,1.93,0,0,1,3.35-1.93l2.07,3.57a1.94,1.94,0,0,1-.71,2.65A2,2,0,0,1,713,168.45Z" transform="translate(-659 -148)"/><path class="cls-4" d="M725.35,168.45a2,2,0,0,1-1-.26,2,2,0,0,1-.71-2.65l2.07-3.57a1.93,1.93,0,1,1,3.35,1.93L727,167.48A1.94,1.94,0,0,1,725.35,168.45Z" transform="translate(-659 -148)"/><path id="SVGCleanerId_0-2" data-name="SVGCleanerId 0" class="cls-5" d="M688.11,216.81V227h-3.87V216.76a1.93,1.93,0,0,1,2.15-1.93A2,2,0,0,1,688.11,216.81Z" transform="translate(-659 -148)"/><path class="cls-6" d="M694.42,190H677.94a1.94,1.94,0,0,0-1.94,1.94V225a2,2,0,0,0,1.93,2H690.3a6.09,6.09,0,0,0,5.41-3.39,6,6,0,0,0,.64-2.71V191.92A1.93,1.93,0,0,0,694.42,190Z" transform="translate(-659 -148)"/><path class="cls-5" d="M688.11,216.68V227h-3.87V216.63a1.94,1.94,0,0,1,2.15-1.93A2,2,0,0,1,688.11,216.68Z" transform="translate(-659 -148)"/></svg>