<svg height="512" viewBox="0 0 58 58" width="512" xmlns="http://www.w3.org/2000/svg"><g id="020---Happy-With-Answer" fill="none"><path id="Shape" d="m11.53 27-7.69 5.89c-.15628742.1240368-.36992234.1472834-.5492301.0597641s-.29240899-.2702442-.2907699-.4697641v-5.48l4-2z" fill="#e57e25"/><path id="Shape" d="m34 2.07v22.93l-10 2h-21.93c-1.1423165-.002201-2.067799-.9276835-2.07-2.07v-22.86c.002201-1.1423165.9276835-2.067799 2.07-2.07h29.86c1.1423165.002201 2.067799.9276835 2.07 2.07z" fill="#f29c1f"/><rect id="Rectangle-path" fill="#3b97d3" height="27" rx="2.07" width="34" x="24" y="25"/><path id="Shape" d="m55.0000176 52-.0000176 5.48c.0016391.1995199-.1114621.3822448-.2907699.4697641s-.3929427.0642727-.5492301-.0597641l-7.69-5.89z" fill="#2980ba"/><path id="Shape" d="m20.6 16h-7.2c-.5522847 0-1-.4477153-1-1s.4477153-1 1-1h7.2c.5522847 0 1 .4477153 1 1s-.4477153 1-1 1z" fill="#fff"/><path id="Shape" d="m23 22c-.408945.0003137-.7768725-.2484037-.929-.628l-5.071-12.68-5.071 12.68c-.2054499.5130725-.7879275.7624499-1.301.557s-.76244993-.7879275-.557-1.301l6-15c.1515178-.38035063.5195806-.62992028.929-.62992028s.7774822.24956965.929.62992028l6 15c.1235323.3082437.0859901.6577041-.1001964.9326749-.1861865.2749709-.4967278.4395799-.8288036.4393251z" fill="#fff"/><path id="Shape" d="m52 36h-1c1.1045695 0 2 .8954305 2 2s-.8954305 2-2 2h-1c1.1045695 0 2 .8954305 2 2s-.8954305 2-2 2h-1c1.1045695 0 2 .8954305 2 2s-.8954305 2-2 2c-9.66 0-9.733.139-10.84-.42-3.314-1.672-2.86-1.58-5.16-1.58v-14h1c2.0489018-.1479949 3.9052272-1.2617901 5-3 1.0732482-1.7008238 1.9235414-3.5324831 2.53-5.45.3707544-1.0555519 1.4472704-1.6912118 2.5506185-1.5060863s1.9134438 1.1373311 1.9193815 2.2560863c0 3.123-.9 4.954-2 7.7h7.89c.9465562-.0193597 1.7877898.6002806 2.05 1.51.151148.5981282.0177987 1.2325375-.3613657 1.719197s-.961704.7710972-1.5786343.770803z" fill="#fdd7ad"/><rect id="Rectangle-path" fill="#5d4c72" height="17" rx="1" width="5" x="28" y="31"/><g fill="#f9c795"><path id="Shape" d="m53 38h-4c-.5522847 0-1-.4477153-1-1s.4477153-1 1-1h2c1.1032019.0032948 1.9967052.8967981 2 2z"/><path id="Shape" d="m52 42h-4c-.5522847 0-1-.4477153-1-1s.4477153-1 1-1h2c1.1032019.0032948 1.9967052.8967981 2 2z"/><path id="Shape" d="m51 46h-4c-.5522847 0-1-.4477153-1-1s.4477153-1 1-1h2c1.1032019.0032948 1.9967052.8967981 2 2z"/><path id="Shape" d="m54 34h-12c-.5522847 0-1-.4477153-1-1s.4477153-1 1-1h9.89c.5458188-.0174838 1.0759572.1840675 1.4723003.5597481.3963432.3756807.6259628.8942793.6376997 1.4402519z"/></g></g></svg>