<svg width="32" height="32" viewBox="0 0 32 32" xmlns="http://www.w3.org/2000/svg"><g fill="none" fill-rule="evenodd"><path d="M23 18v1.99a1 1 0 0 1-1 1h-.01l-11-.116a1 1 0 0 1-.99-1V18h0" stroke="#00ADEF" stroke-width="2" stroke-linecap="round"/><g transform="translate(13 8)" fill="#00ABEF" fill-rule="nonzero"><path d="M3.5 10a.666.666 0 0 1-.492-.212L.208 6.93A.693.693 0 0 1 0 6.429c0-.194.07-.361.208-.503A.666.666 0 0 1 .7 5.714h5.6c.19 0 .354.071.492.212A.693.693 0 0 1 7 6.43c0 .193-.07.36-.208.502l-2.8 2.857A.666.666 0 0 1 3.5 10Z"/><rect transform="rotate(90 3.5 4)" x="-.5" y="2.5" width="8" height="3" rx="1"/></g></g></svg>