<svg width="57" height="54" viewBox="0 0 57 54" fill="none" xmlns="http://www.w3.org/2000/svg">
<g clip-path="url(#clip0_1953:7477)">
<path d="M56.5681 5.61423V41.5242C56.5778 41.5738 56.5778 41.6247 56.5681 41.6742C56.5681 41.6742 56.5681 41.6742 56.5681 41.6742C56.5114 42.9618 55.9597 44.1778 55.0281 45.0684C54.0965 45.959 52.8569 46.4555 51.5681 46.4542C50.0481 46.4542 48.5681 46.4542 47.0381 46.4542V45.0042H51.4681C51.9356 45.0149 52.4007 44.9333 52.8367 44.7641C53.2727 44.5949 53.6711 44.3415 54.0091 44.0184C54.3471 43.6952 54.6182 43.3086 54.8067 42.8806C54.9953 42.4527 55.0977 41.9918 55.1081 41.5242C55.1081 41.0842 55.1081 40.6442 55.1081 40.2142V5.78423C55.1229 5.5478 55.1229 5.31067 55.1081 5.07423C55.0328 4.45166 54.793 3.86038 54.4133 3.36123C54.0337 2.86208 53.528 2.47308 52.9481 2.23423C52.2528 2.00381 51.5182 1.9154 50.7881 1.97423H6.3481C5.60169 1.9134 4.85098 2.01577 4.1481 2.27423C3.55905 2.53583 3.05286 2.95371 2.68443 3.48256C2.316 4.01141 2.0994 4.63103 2.0581 5.27423C2.04811 5.45409 2.04811 5.63437 2.0581 5.81423V40.2442C2.01812 40.8269 2.01812 41.4116 2.0581 41.9942C2.20269 42.8521 2.65305 43.6286 3.32589 44.1801C3.99873 44.7316 4.84852 45.0208 5.7181 44.9942H36.3581V46.4242H5.7381C4.75054 46.4529 3.77591 46.1941 2.93267 45.6792C2.08943 45.1644 1.41387 44.4158 0.988102 43.5242C0.63392 42.5661 0.49066 41.5428 0.568102 40.5242V5.52423C0.566767 4.77645 0.733176 4.03789 1.05508 3.36294C1.37697 2.68799 1.84617 2.09384 2.4281 1.62423C3.32497 0.921597 4.42882 0.534897 5.5681 0.524233H50.6681C51.4233 0.482205 52.1806 0.54616 52.9181 0.714233C53.9826 1.01256 54.9182 1.65527 55.5786 2.54185C56.239 3.42843 56.587 4.50888 56.5681 5.61423V5.61423Z" fill="black"/>
<path fill-rule="evenodd" clip-rule="evenodd" d="M45.1281 49.6727H37.7981L37.4981 48.0527H45.3981C45.7805 48.0555 46.1519 47.9246 46.4481 47.6827C46.7475 47.4264 46.946 47.0719 47.0081 46.6827L47.8381 42.1827C47.8509 42.1034 47.8468 42.0224 47.8261 41.9448C47.8055 41.8673 47.7686 41.795 47.7181 41.7327C47.666 41.6725 47.6015 41.6243 47.5289 41.5915C47.4564 41.5587 47.3777 41.5421 47.2981 41.5427H36.2981L35.9681 39.7327C35.9201 39.4866 35.7896 39.2644 35.5981 39.1027C35.4021 38.9384 35.1538 38.8497 34.8981 38.8527H33.6781C33.6017 38.8422 33.5239 38.8482 33.4501 38.8703C33.3762 38.8924 33.3079 38.93 33.2498 38.9807C33.1917 39.0314 33.1451 39.094 33.1132 39.1641C33.0813 39.2343 33.0648 39.3105 33.0648 39.3877C33.0648 39.4648 33.0813 39.541 33.1132 39.6112C33.1451 39.6814 33.1917 39.7439 33.2498 39.7946C33.3079 39.8453 33.3762 39.8829 33.4501 39.905C33.5239 39.9271 33.6017 39.9331 33.6781 39.9227H34.9081L36.7781 50.1127C36.5751 50.2874 36.412 50.5037 36.2998 50.747C36.1877 50.9903 36.1291 51.2548 36.1281 51.5227C36.1281 52.0292 36.3293 52.515 36.6875 52.8732C37.0457 53.2314 37.5315 53.4327 38.0381 53.4327C38.5446 53.4327 39.0305 53.2314 39.3886 52.8732C39.7468 52.515 39.9481 52.0292 39.9481 51.5227C39.9436 51.241 39.8752 50.964 39.7481 50.7127H43.4081C43.2844 50.9648 43.2194 51.2418 43.2181 51.5227C43.2141 51.9012 43.3227 52.2725 43.5302 52.5892C43.7376 52.9059 44.0345 53.1538 44.3832 53.3015C44.7318 53.4491 45.1165 53.4898 45.4883 53.4184C45.8601 53.3469 46.2023 53.1666 46.4714 52.9003C46.7405 52.634 46.9244 52.2937 46.9998 51.9227C47.0751 51.5517 47.0385 51.1666 46.8945 50.8164C46.7506 50.4663 46.5058 50.1668 46.1913 49.956C45.8767 49.7452 45.5067 49.6327 45.1281 49.6327V49.6727ZM46.6481 42.6727L45.9381 46.5227C45.9155 46.6488 45.848 46.7625 45.7481 46.8427C45.6488 46.9219 45.5251 46.9643 45.3981 46.9627H37.2981L36.5081 42.6527L46.6481 42.6727ZM38.0381 52.3827C37.8783 52.3807 37.7227 52.3315 37.5908 52.2413C37.4589 52.1511 37.3567 52.0239 37.2969 51.8758C37.2371 51.7276 37.2225 51.5651 37.2549 51.4086C37.2872 51.2521 37.3652 51.1087 37.4788 50.9965C37.5925 50.8842 37.7368 50.808 37.8937 50.7776C38.0505 50.7471 38.2129 50.7637 38.3603 50.8253C38.5077 50.8869 38.6337 50.9907 38.7222 51.1237C38.8108 51.2567 38.8581 51.4129 38.8581 51.5727C38.8529 51.7866 38.7642 51.9901 38.6109 52.1396C38.4577 52.2891 38.2521 52.3727 38.0381 52.3727V52.3827ZM45.1181 52.3827C44.9583 52.3807 44.8027 52.3315 44.6708 52.2413C44.5389 52.1511 44.4367 52.0239 44.3769 51.8758C44.3171 51.7276 44.3025 51.5651 44.3349 51.4086C44.3673 51.2521 44.4452 51.1087 44.5588 50.9965C44.6725 50.8842 44.8168 50.808 44.9737 50.7776C45.1305 50.7471 45.2929 50.7637 45.4403 50.8253C45.5877 50.8869 45.7137 50.9907 45.8022 51.1237C45.8908 51.2567 45.9381 51.4129 45.9381 51.5727C45.9329 51.7866 45.8442 51.9901 45.6909 52.1396C45.5377 52.2891 45.3321 52.3727 45.1181 52.3727V52.3827Z" fill="black"/>
</g>
<path d="M37.2755 13.5826L32.885 10.5984C32.6152 10.4 32.291 10.2893 31.9562 10.2813H30.2403C29.9438 10.279 29.6524 10.3581 29.3978 10.5101C29.1433 10.662 28.9353 10.8809 28.7966 11.143C28.5521 11.6095 28.1845 12.0002 27.7338 12.2729C27.283 12.5455 26.7663 12.6896 26.2395 12.6896C25.7128 12.6896 25.1961 12.5455 24.7453 12.2729C24.2946 12.0002 23.927 11.6095 23.6825 11.143C23.5441 10.8815 23.3367 10.6629 23.0829 10.511C22.829 10.3591 22.5384 10.2797 22.2426 10.2813H20.3178C19.9862 10.2806 19.6622 10.3808 19.3889 10.5685L14.9984 13.5527C14.6596 13.7789 14.4168 14.1226 14.3169 14.5174C14.217 14.9123 14.2671 15.3302 14.4575 15.6902L15.7855 18.2827C15.9773 18.6631 16.3097 18.9537 16.7122 19.093C17.1148 19.2323 17.5557 19.2093 17.9416 19.0288L18.6876 18.6893C18.7677 18.6524 18.8559 18.6362 18.9439 18.6423C19.0319 18.6484 19.1169 18.6765 19.1912 18.724C19.2655 18.7716 19.3267 18.837 19.369 18.9144C19.4114 18.9918 19.4336 19.0786 19.4337 19.1668V25.7209C19.4337 26.1572 19.607 26.5756 19.9155 26.8841C20.224 27.1926 20.6424 27.3659 21.0787 27.3659H31.2101C31.6464 27.3659 32.0648 27.1926 32.3734 26.8841C32.6819 26.5756 32.8552 26.1572 32.8552 25.7209V19.1593C32.8552 19.0711 32.8774 18.9843 32.9198 18.907C32.9622 18.8296 33.0233 18.7641 33.0976 18.7166C33.1719 18.669 33.257 18.6409 33.345 18.6348C33.433 18.6288 33.5211 18.6449 33.6012 18.6819L34.3473 19.0213C34.7333 19.2008 35.1739 19.2234 35.5762 19.0842C35.9784 18.945 36.3109 18.6549 36.5034 18.2753L37.8314 15.6827C38.0097 15.3249 38.0517 14.9144 37.9494 14.5279C37.8471 14.1413 37.6076 13.8053 37.2755 13.5826V13.5826ZM36.813 15.1791L35.485 17.7717C35.4234 17.8921 35.3173 17.984 35.1893 18.0278C35.0613 18.0717 34.9212 18.0641 34.7986 18.0067L34.0526 17.6672C33.802 17.5514 33.5264 17.5006 33.251 17.5193C32.9756 17.538 32.7093 17.6257 32.4767 17.7743C32.2441 17.9229 32.0527 18.1277 31.92 18.3697C31.7873 18.6118 31.7176 18.8833 31.7174 19.1593V25.7209C31.7174 25.8604 31.662 25.9941 31.5634 26.0928C31.4648 26.1914 31.331 26.2468 31.1915 26.2468H21.0675C20.928 26.2468 20.7943 26.1914 20.6956 26.0928C20.597 25.9941 20.5416 25.8604 20.5416 25.7209V19.1593C20.5424 18.8829 20.4733 18.6108 20.3409 18.3682C20.2085 18.1256 20.0169 17.9204 19.784 17.7716C19.5511 17.6228 19.2844 17.5352 19.0086 17.5169C18.7328 17.4987 18.4569 17.5504 18.2064 17.6672L17.4604 18.0067C17.3378 18.0641 17.1978 18.0717 17.0697 18.0278C16.9417 17.984 16.8357 17.8921 16.774 17.7717L15.446 15.1791C15.3884 15.0654 15.374 14.9347 15.4056 14.8112C15.4372 14.6877 15.5125 14.5798 15.6176 14.5077L20.0081 11.5235C20.095 11.4645 20.1978 11.4333 20.3028 11.434H22.2239C22.3157 11.4329 22.406 11.4567 22.4854 11.5026C22.5648 11.5486 22.6304 11.615 22.6753 11.6951C23.0155 12.3402 23.5253 12.8802 24.1498 13.2569C24.7743 13.6335 25.4897 13.8326 26.219 13.8326C26.9483 13.8326 27.6638 13.6335 28.2883 13.2569C28.9128 12.8802 29.4226 12.3402 29.7628 11.6951C29.8077 11.615 29.8732 11.5486 29.9527 11.5026C30.0321 11.4567 30.1224 11.4329 30.2141 11.434H31.9338C32.0392 11.4344 32.142 11.4669 32.2285 11.5272L36.619 14.5114C36.7277 14.5795 36.8078 14.6849 36.8442 14.8079C36.8806 14.9308 36.8708 15.0629 36.8167 15.1791H36.813Z" fill="black"/>
<path d="M37.8314 31.4004C37.8029 31.3319 37.761 31.2697 37.7083 31.2176L35.7685 29.2778C35.6632 29.1725 35.5203 29.1133 35.3713 29.1133C35.2223 29.1133 35.0794 29.1725 34.974 29.2778C34.8686 29.3832 34.8094 29.5261 34.8094 29.6751C34.8094 29.8241 34.8686 29.967 34.974 30.0724L35.9588 31.0572H16.1884L17.1732 30.0724C17.272 29.9663 17.3258 29.826 17.3232 29.6811C17.3207 29.5361 17.262 29.3978 17.1595 29.2953C17.0569 29.1928 16.9186 29.134 16.7737 29.1315C16.6287 29.1289 16.4884 29.1827 16.3823 29.2816L14.4575 31.2176C14.4048 31.2697 14.3629 31.3319 14.3344 31.4004V31.4004C14.3079 31.4655 14.294 31.5352 14.2934 31.6055V31.6055C14.294 31.6759 14.3079 31.7455 14.3344 31.8107V31.8107C14.3629 31.8792 14.4048 31.9413 14.4575 31.9935L16.3973 33.9332C16.4485 33.9882 16.5103 34.0323 16.5789 34.0629C16.6475 34.0934 16.7216 34.1099 16.7968 34.1112C16.8719 34.1125 16.9465 34.0987 17.0162 34.0706C17.0859 34.0424 17.1492 34.0005 17.2023 33.9474C17.2554 33.8943 17.2973 33.831 17.3254 33.7613C17.3536 33.6916 17.3674 33.617 17.3661 33.5419C17.3648 33.4668 17.3483 33.3927 17.3177 33.324C17.2871 33.2554 17.2431 33.1936 17.1881 33.1424L16.2033 32.1576H35.9737L34.974 33.1573C34.919 33.2085 34.8749 33.2703 34.8443 33.3389C34.8138 33.4076 34.7973 33.4817 34.796 33.5568C34.7947 33.6319 34.8085 33.7066 34.8366 33.7762C34.8648 33.8459 34.9067 33.9092 34.9598 33.9623C35.0129 34.0155 35.0762 34.0574 35.1459 34.0855C35.2156 34.1136 35.2902 34.1275 35.3653 34.1261C35.4404 34.1248 35.5145 34.1084 35.5832 34.0778C35.6518 34.0472 35.7136 34.0031 35.7648 33.9481L37.7045 32.0084C37.7573 31.9562 37.7991 31.8941 37.8276 31.8256C37.8542 31.7604 37.8681 31.6908 37.8687 31.6204V31.6204C37.8681 31.5501 37.8542 31.4805 37.8276 31.4153L37.8314 31.4004Z" fill="black"/>
<path d="M43.9266 25.0249L42.9418 26.0097V12.1443L43.9266 13.1291C44.0327 13.2279 44.173 13.2817 44.3179 13.2791C44.4629 13.2766 44.6012 13.2179 44.7037 13.1154C44.8062 13.0128 44.865 12.8745 44.8675 12.7296C44.8701 12.5846 44.8163 12.4443 44.7174 12.3382L42.8075 10.3985C42.7554 10.3458 42.6932 10.3039 42.6248 10.2754V10.2754C42.5596 10.2489 42.49 10.2349 42.4196 10.2344V10.2344C42.3492 10.2349 42.2796 10.2489 42.2144 10.2754V10.2754C42.1463 10.3028 42.0841 10.3434 42.0316 10.3948V10.3948L40.0919 12.3345C40.0369 12.3857 39.9928 12.4475 39.9623 12.5162C39.9317 12.5848 39.9152 12.6589 39.9139 12.734C39.9126 12.8091 39.9264 12.8838 39.9545 12.9534C39.9827 13.0231 40.0246 13.0864 40.0777 13.1395C40.1308 13.1927 40.1941 13.2346 40.2638 13.2627C40.3335 13.2908 40.4081 13.3047 40.4832 13.3033C40.5584 13.302 40.6325 13.2856 40.7011 13.255C40.7697 13.2244 40.8315 13.1803 40.8827 13.1253L41.8414 12.1443V26.0097L40.8566 25.0249C40.7505 24.926 40.6103 24.8722 40.4653 24.8748C40.3203 24.8774 40.182 24.9361 40.0795 25.0386C39.977 25.1411 39.9183 25.2794 39.9157 25.4244C39.9132 25.5693 39.967 25.7096 40.0658 25.8157L42.0055 27.7554C42.058 27.8068 42.1201 27.8474 42.1883 27.8748C42.2535 27.9013 42.3231 27.9153 42.3935 27.9158V27.9158C42.4639 27.9153 42.5335 27.9013 42.5986 27.8748V27.8748C42.6671 27.8463 42.7293 27.8044 42.7814 27.7517L44.7212 25.812C44.8196 25.7054 44.8727 25.5649 44.8695 25.4199C44.8663 25.2749 44.8069 25.1369 44.7039 25.0348C44.6009 24.9328 44.4623 24.8747 44.3173 24.8728C44.1723 24.871 44.0322 24.9255 43.9266 25.0249V25.0249Z" fill="black"/>
<defs>
<clipPath id="clip0_1953:7477">
<rect width="56" height="52.93" fill="white" transform="translate(0.568115 0.523438)"/>
</clipPath>
</defs>
</svg>
