<svg xmlns="http://www.w3.org/2000/svg" viewBox="0 0 56 52.93"><defs><style>.cls-1{fill-rule:evenodd;}.cls-2{fill:none;}</style></defs><g id="Layer_2" data-name="Layer 2"><g id="Layer_1-2" data-name="Layer 1"><path d="M56,5.09V41a.39.39,0,0,1,0,.15s0,0,0,0a5,5,0,0,1-5,4.78c-1.52,0-3,0-4.53,0V44.48H50.9A3.56,3.56,0,0,0,54.54,41c0-.44,0-.88,0-1.31V5.26a5.67,5.67,0,0,0,0-.71,3.53,3.53,0,0,0-2.16-2.84,5.47,5.47,0,0,0-2.16-.26H5.78a5.16,5.16,0,0,0-2.2.3,3.53,3.53,0,0,0-2.09,3,4.87,4.87,0,0,0,0,.54V39.72a12.78,12.78,0,0,0,0,1.75,3.6,3.6,0,0,0,3.66,3H35.79v1.43H5.17A5.1,5.1,0,0,1,.42,43,7.1,7.1,0,0,1,0,40V5A5,5,0,0,1,1.86,1.1,5.17,5.17,0,0,1,5,0h45.1a8.1,8.1,0,0,1,2.25.19A5,5,0,0,1,56,5.09Z"/><path class="cls-1" d="M28,13.93a.9.9,0,0,1,.91.9V31.09a.91.91,0,0,1-1.82,0V14.83A.9.9,0,0,1,28,13.93Z"/><path class="cls-1" d="M18,14.83a.9.9,0,0,1,.91-.9H37.13a.9.9,0,0,1,.91.9v3.62a.92.92,0,0,1-1.83,0V15.74H19.78v2.71a.91.91,0,0,1-1.82,0Z"/><path class="cls-1" d="M23.44,31.09a.9.9,0,0,1,.91-.9h7.3a.9.9,0,1,1,0,1.8h-7.3A.9.9,0,0,1,23.44,31.09Z"/><path class="cls-1" d="M44.56,49.15H37.23l-.3-1.62h7.9a1.64,1.64,0,0,0,1.05-.37,1.66,1.66,0,0,0,.56-1l.83-4.5a.57.57,0,0,0-.12-.45.55.55,0,0,0-.42-.19h-11l-.33-1.81a1.1,1.1,0,0,0-.37-.63,1.07,1.07,0,0,0-.7-.25H33.11a.54.54,0,1,0,0,1.07h1.23l1.87,10.19A1.87,1.87,0,0,0,35.56,51a1.91,1.91,0,0,0,3.82,0,1.86,1.86,0,0,0-.2-.81h3.66a1.86,1.86,0,0,0-.19.81,1.91,1.91,0,1,0,1.91-1.89Zm1.52-7L45.37,46a.53.53,0,0,1-.19.32.55.55,0,0,1-.35.12h-8.1l-.79-4.31Zm-8.61,9.71a.81.81,0,1,1,.82-.81A.82.82,0,0,1,37.47,51.85Zm7.08,0a.81.81,0,1,1,.82-.81A.82.82,0,0,1,44.55,51.85Z"/><polyline class="cls-2" points="35.79 48.88 35.79 45.91 35.79 44.48 35.79 42.95"/><polyline class="cls-2" points="46.44 48.61 46.44 45.91 46.44 44.48 46.44 42.68"/></g></g></svg>