<svg width="65" height="61" viewBox="0 0 65 61" fill="none" xmlns="http://www.w3.org/2000/svg">
<path d="M64.788 5.85765V46.7522C64.7991 46.8086 64.7991 46.8666 64.788 46.923C64.788 46.923 64.788 46.923 64.788 46.923C64.7234 48.3893 64.0951 49.774 63.0342 50.7883C61.9733 51.8025 60.5617 52.3679 59.094 52.3665C57.363 52.3665 55.6776 52.3665 53.9352 52.3665V50.7152H58.9801C59.5125 50.7273 60.0421 50.6344 60.5386 50.4418C61.0351 50.2491 61.4888 49.9605 61.8738 49.5925C62.2587 49.2245 62.5674 48.7842 62.7821 48.2969C62.9969 47.8095 63.1135 47.2846 63.1253 46.7522C63.1253 46.2511 63.1253 45.75 63.1253 45.2603V6.05125C63.1422 5.78199 63.1422 5.51195 63.1253 5.24269C63.0396 4.5337 62.7665 3.86035 62.3342 3.29192C61.9018 2.72348 61.3259 2.28048 60.6655 2.00848C59.8737 1.74608 59.0372 1.64539 58.2057 1.71239H7.59718C6.74715 1.64312 5.89224 1.7597 5.0918 2.05404C4.42099 2.35195 3.84454 2.82783 3.42497 3.43009C3.0054 4.03234 2.75872 4.73797 2.7117 5.47045C2.70032 5.67528 2.70032 5.88058 2.7117 6.08541V45.2945C2.66616 45.958 2.66616 46.6239 2.7117 47.2874C2.87636 48.2644 3.38923 49.1487 4.15547 49.7767C4.9217 50.4048 5.88945 50.7341 6.87973 50.7038H41.7727V52.3323H6.9025C5.77786 52.365 4.66795 52.0702 3.70766 51.4839C2.74737 50.8976 1.97805 50.0451 1.49318 49.0298C1.08983 47.9386 0.926686 46.7733 1.01488 45.6134V5.75516C1.01336 4.90358 1.20286 4.0625 1.56945 3.29387C1.93603 2.52523 2.47035 1.8486 3.13306 1.31381C4.15442 0.513646 5.41149 0.0732707 6.70891 0.0611262H58.069C58.9291 0.0132651 59.7915 0.0860969 60.6314 0.277499C61.8436 0.617236 62.9091 1.34916 63.6612 2.3588C64.4133 3.36844 64.8095 4.59887 64.788 5.85765V5.85765Z" fill="black"/>
<path fill-rule="evenodd" clip-rule="evenodd" d="M51.7601 56.0307H43.4126L43.071 54.1858H52.0675C52.5031 54.1891 52.926 54.0401 53.2633 53.7645C53.6043 53.4726 53.8304 53.0689 53.901 52.6257L54.8462 47.501C54.8608 47.4108 54.8562 47.3185 54.8326 47.2302C54.8091 47.1419 54.7671 47.0596 54.7096 46.9886C54.6502 46.9201 54.5767 46.8652 54.4942 46.8279C54.4116 46.7905 54.3219 46.7715 54.2313 46.7722H41.7044L41.3286 44.711C41.274 44.4308 41.1253 44.1777 40.9072 43.9935C40.6841 43.8064 40.4013 43.7054 40.1101 43.7088H38.7207C38.6337 43.6969 38.5452 43.7037 38.4611 43.7289C38.3769 43.7541 38.2992 43.7969 38.233 43.8547C38.1668 43.9124 38.1138 43.9836 38.0774 44.0635C38.0411 44.1435 38.0223 44.2303 38.0223 44.3181C38.0223 44.4059 38.0411 44.4927 38.0774 44.5726C38.1138 44.6526 38.1668 44.7238 38.233 44.7815C38.2992 44.8392 38.3769 44.8821 38.4611 44.9073C38.5452 44.9324 38.6337 44.9393 38.7207 44.9273H40.1215L42.251 56.5318C42.0198 56.7308 41.8341 56.9771 41.7064 57.2542C41.5787 57.5312 41.512 57.8324 41.5108 58.1375C41.5108 58.7144 41.74 59.2676 42.1479 59.6755C42.5558 60.0834 43.109 60.3126 43.6859 60.3126C44.2628 60.3126 44.816 60.0834 45.224 59.6755C45.6319 59.2676 45.861 58.7144 45.861 58.1375C45.8559 57.8167 45.7781 57.5013 45.6333 57.2151H49.8013C49.6605 57.5023 49.5865 57.8176 49.5849 58.1375C49.5804 58.5686 49.7041 58.9914 49.9404 59.3521C50.1766 59.7127 50.5147 59.9951 50.9118 60.1632C51.3088 60.3313 51.7468 60.3777 52.1703 60.2963C52.5937 60.215 52.9834 60.0096 53.2899 59.7064C53.5963 59.4031 53.8058 59.0156 53.8916 58.5931C53.9774 58.1705 53.9356 57.732 53.7717 57.3332C53.6077 56.9345 53.329 56.5934 52.9708 56.3534C52.6126 56.1133 52.1912 55.9852 51.7601 55.9851V56.0307ZM53.491 48.0591L52.6825 52.4435C52.6568 52.5871 52.5799 52.7166 52.4661 52.8079C52.353 52.8981 52.2122 52.9464 52.0675 52.9445H42.8432L41.9435 48.0363L53.491 48.0591ZM43.6859 59.1169C43.504 59.1146 43.3268 59.0586 43.1766 58.9559C43.0264 58.8532 42.9099 58.7083 42.8419 58.5396C42.7738 58.3709 42.7571 58.1858 42.794 58.0076C42.8309 57.8294 42.9196 57.6661 43.0491 57.5383C43.1785 57.4104 43.3429 57.3237 43.5215 57.289C43.7001 57.2543 43.885 57.2732 44.0529 57.3434C44.2208 57.4135 44.3642 57.5317 44.465 57.6832C44.5659 57.8346 44.6197 58.0125 44.6197 58.1944C44.6138 58.4381 44.5128 58.6698 44.3383 58.8401C44.1638 59.0103 43.9297 59.1055 43.6859 59.1055V59.1169ZM51.7487 59.1169C51.5667 59.1146 51.3895 59.0586 51.2393 58.9559C51.0891 58.8532 50.9727 58.7083 50.9046 58.5396C50.8365 58.3709 50.8199 58.1858 50.8568 58.0076C50.8936 57.8294 50.9824 57.6661 51.1118 57.5383C51.2413 57.4104 51.4056 57.3237 51.5842 57.289C51.7629 57.2543 51.9477 57.2732 52.1156 57.3434C52.2835 57.4135 52.4269 57.5317 52.5278 57.6832C52.6286 57.8346 52.6825 58.0125 52.6825 58.1944C52.6765 58.4381 52.5755 58.6698 52.4011 58.8401C52.2266 59.0103 51.9924 59.1055 51.7487 59.1055V59.1169Z" fill="black"/>
<path d="M46.8991 19.0402H43.1078V14.668H18.8339V32.3441H22.9402C23.0781 31.9108 23.216 31.3889 23.4622 30.9655H20.2125V16.0466H41.7291V30.9655H30.6508C30.9659 31.3594 31.2022 31.8419 31.3598 32.3441H41.739H42.448H43.1176V30.6897C43.1176 30.6897 43.1176 30.6897 43.1176 30.6799V20.4189H46.8991C47.8838 20.4189 48.7799 20.7931 49.4594 21.4036H46.0128V26.6228H50.7396V30.9655H50.1586C50.1782 31.0049 50.2078 31.0344 50.2275 31.0738C50.4934 31.4775 50.7396 31.901 50.9267 32.3441H52.1182V24.2594C52.1182 21.3839 49.7745 19.0402 46.8991 19.0402ZM47.3914 25.2441V22.7823H50.4441C50.6312 23.2352 50.7396 23.7375 50.7396 24.2594V25.2441H47.3914Z" fill="black"/>
<path d="M26.9876 29.6719C25.1461 29.6719 23.6394 31.1785 23.6394 33.02C23.6394 34.8615 25.1461 36.3681 26.9876 36.3681C28.829 36.3681 30.3357 34.8615 30.3357 33.02C30.3357 31.1785 28.829 29.6719 26.9876 29.6719ZM26.9876 34.9895C25.9043 34.9895 25.0181 34.1032 25.0181 33.02C25.0181 31.9368 25.9043 31.0505 26.9876 31.0505C28.0708 31.0505 28.957 31.9368 28.957 33.02C28.957 34.1032 28.0708 34.9895 26.9876 34.9895Z" fill="black"/>
<path d="M26.9876 34.3899C27.7435 34.3899 28.3564 33.7771 28.3564 33.0211C28.3564 32.2652 27.7435 31.6523 26.9876 31.6523C26.2316 31.6523 25.6188 32.2652 25.6188 33.0211C25.6188 33.7771 26.2316 34.3899 26.9876 34.3899Z" fill="black"/>
<path d="M46.712 29.6719C44.8705 29.6719 43.3638 31.1785 43.3638 33.02C43.3638 34.8615 44.8705 36.3681 46.712 36.3681C48.5534 36.3681 50.0601 34.8615 50.0601 33.02C50.0601 31.1785 48.5534 29.6719 46.712 29.6719ZM46.712 34.9895C45.6287 34.9895 44.7425 34.1032 44.7425 33.02C44.7425 31.9368 45.6287 31.0505 46.712 31.0505C47.7952 31.0505 48.6814 31.9368 48.6814 33.02C48.6814 34.1032 47.7952 34.9895 46.712 34.9895Z" fill="black"/>
<path d="M46.712 34.3899C47.4679 34.3899 48.0808 33.7771 48.0808 33.0211C48.0808 32.2652 47.4679 31.6523 46.712 31.6523C45.956 31.6523 45.3432 32.2652 45.3432 33.0211C45.3432 33.7771 45.956 34.3899 46.712 34.3899Z" fill="black"/>
<path d="M16.4705 14.9023H11.3498V16.281H16.4705V14.9023Z" fill="black"/>
<path d="M16.4705 17.8594H12.5315V19.238H16.4705V17.8594Z" fill="black"/>
<path d="M31.2416 28.3963C34.2845 28.3963 36.7562 25.9246 36.7562 22.8818C36.7562 19.8389 34.2845 17.3672 31.2416 17.3672C28.1988 17.3672 25.7271 19.8389 25.7271 22.8818C25.7271 25.9246 28.1988 28.3963 31.2416 28.3963ZM31.2416 18.7458C33.5263 18.7458 35.3776 20.5971 35.3776 22.8818C35.3776 25.1664 33.5263 27.0177 31.2416 27.0177C28.957 27.0177 27.1057 25.1664 27.1057 22.8818C27.1057 20.5971 28.957 18.7458 31.2416 18.7458Z" fill="black"/>
<path d="M33.8807 21.6003L32.7384 20.8125L30.8182 23.619L29.538 22.4669L28.6124 23.491L31.0742 25.687L33.8807 21.6003Z" fill="black"/>
</svg>
