<svg width="84" height="80" viewBox="0 0 84 80" fill="none" xmlns="http://www.w3.org/2000/svg">
<path d="M83.0143 8.30374V61.3154C83.0143 61.3994 83.0269 61.4832 83.0248 61.5671V61.5671C83.0232 61.6317 83.0131 61.6961 83.0095 61.7607C82.9037 63.6298 82.1002 65.3906 80.7591 66.686C79.3948 68.0039 77.5795 68.7386 75.6921 68.7368C73.9902 68.7368 74.491 68.7109 73.8198 68.6986C73.2396 68.6881 72.7677 68.222 72.7677 67.6418V67.6418C72.7677 67.0615 73.2381 66.5912 73.8183 66.5912H75.5456C76.2303 66.6069 76.9114 66.4861 77.5499 66.2357C78.1884 65.9855 78.7717 65.6105 79.2668 65.1323C79.7618 64.654 80.1587 64.082 80.4349 63.4488C80.7111 62.8154 80.861 62.1334 80.8762 61.4416C80.8762 60.7905 80.8762 60.1395 80.8762 59.5032V8.5553C80.8979 8.20544 80.8979 7.85455 80.8762 7.50467C80.766 6.58343 80.4148 5.70848 79.8587 4.96986C79.3028 4.23124 78.5621 3.65562 77.713 3.30218C76.6948 2.96122 75.619 2.83039 74.5498 2.91745H9.46956C8.37646 2.82744 7.27708 2.97892 6.24776 3.36137C5.38511 3.74848 4.64384 4.36683 4.10429 5.1494C3.56474 5.93195 3.24753 6.84885 3.18706 7.80062C3.17243 8.06677 3.17243 8.33354 3.18706 8.59969V59.5476C3.1285 60.4097 3.1285 61.2749 3.18706 62.1371C3.3988 63.4064 4.05834 64.5555 5.04368 65.3716C6.02902 66.1878 7.2735 66.6157 8.54695 66.5764H49.0258C49.6101 66.5764 50.0838 67.0501 50.0838 67.6344V67.6344C50.0838 68.2187 49.6101 68.6924 49.0258 68.6924H8.57624C7.12999 68.7347 5.70271 68.3518 4.46782 67.59C3.23293 66.8281 2.24361 65.7203 1.62009 64.4011C1.10141 62.9832 0.891611 61.469 1.00502 59.9619V8.17056C1.00307 7.06403 1.24676 5.97115 1.71817 4.97239C2.18958 3.97364 2.87668 3.09444 3.72891 2.39954C5.04233 1.35981 6.65886 0.787594 8.32729 0.771814H74.3741C75.48 0.709623 76.5891 0.804261 77.6691 1.05297C79.228 1.49442 80.5981 2.44547 81.5653 3.75738C82.5324 5.0693 83.042 6.6681 83.0143 8.30374Z" fill="#556068"/>
<path fill-rule="evenodd" clip-rule="evenodd" d="M66.7769 73.5694H56.0424L55.6031 71.1722H67.1723C67.7323 71.1763 68.2762 70.9828 68.7099 70.6247C69.1484 70.2454 69.4391 69.7208 69.53 69.1449L70.7455 62.486C70.7643 62.3687 70.7583 62.2488 70.728 62.1341C70.6976 62.0193 70.6437 61.9123 70.5698 61.8201C70.4935 61.7311 70.3989 61.6599 70.2927 61.6112C70.1865 61.5627 70.0711 61.5381 69.9547 61.539H53.8458L53.3625 58.8606C53.2922 58.4966 53.1011 58.1677 52.8206 57.9284C52.5336 57.6853 52.17 57.554 51.7955 57.5585H50.0089C49.897 57.5429 49.7831 57.5518 49.6748 57.5845C49.5668 57.6172 49.4668 57.673 49.3817 57.7479C49.2966 57.8229 49.2283 57.9155 49.1816 58.0194C49.1349 58.1233 49.1106 58.236 49.1106 58.3501C49.1106 58.4642 49.1349 58.577 49.1816 58.6808C49.2283 58.7847 49.2966 58.8772 49.3817 58.9522C49.4668 59.0273 49.5668 59.0829 49.6748 59.1156C49.7831 59.1483 49.897 59.1572 50.0089 59.1418H51.8102L54.5487 74.2204C54.2513 74.479 54.0126 74.7992 53.8482 75.1591C53.6841 75.5191 53.5983 75.9105 53.5968 76.3069C53.5968 77.0564 53.8914 77.7754 54.416 78.3053C54.9406 78.8353 55.652 79.1332 56.3939 79.1332C57.1356 79.1332 57.8471 78.8353 58.3716 78.3053C58.8962 77.7754 59.191 77.0564 59.191 76.3069C59.1844 75.89 59.0842 75.4802 58.8981 75.1083H64.258C64.0769 75.4815 63.9817 75.8912 63.9798 76.3069C63.9739 76.8671 64.1329 77.4164 64.4368 77.885C64.7405 78.3537 65.1753 78.7205 65.686 78.9391C66.1965 79.1575 66.7599 79.2177 67.3044 79.1121C67.8488 79.0064 68.35 78.7395 68.7441 78.3454C69.1381 77.9513 69.4075 77.4479 69.5179 76.8988C69.6282 76.3498 69.5746 75.78 69.3637 75.2617C69.1528 74.7437 68.7944 74.3005 68.3337 73.9886C67.8732 73.6766 67.3313 73.5102 66.7769 73.5102V73.5694ZM69.0028 63.2111L67.9631 68.9081C67.93 69.0947 67.8311 69.263 67.6848 69.3817C67.5394 69.4989 67.3583 69.5616 67.1723 69.5592H55.3102L54.1533 63.1815L69.0028 63.2111ZM56.3939 77.5795C56.1599 77.5765 55.932 77.5037 55.7389 77.3702C55.5457 77.2368 55.396 77.0487 55.3084 76.8294C55.2209 76.6101 55.1995 76.3696 55.2469 76.1381C55.2942 75.9066 55.4085 75.6944 55.5748 75.5283C55.7413 75.3621 55.9527 75.2493 56.1824 75.2043C56.4121 75.1592 56.6499 75.1838 56.8657 75.2749C57.0816 75.3661 57.266 75.5197 57.3957 75.7165C57.5255 75.9133 57.5946 76.1444 57.5948 76.3809C57.587 76.6975 57.4571 76.9985 57.2327 77.2197C57.0084 77.441 56.7073 77.5647 56.3939 77.5647V77.5795ZM66.7622 77.5795C66.5282 77.5765 66.3003 77.5037 66.1072 77.3702C65.914 77.2368 65.7643 77.0487 65.6768 76.8294C65.5892 76.6101 65.5678 76.3696 65.6153 76.1381C65.6626 75.9066 65.7768 75.6944 65.9431 75.5283C66.1097 75.3621 66.321 75.2493 66.5508 75.2043C66.7804 75.1592 67.0182 75.1838 67.2341 75.2749C67.4499 75.3661 67.6343 75.5197 67.764 75.7165C67.8938 75.9133 67.9629 76.1444 67.9631 76.3809C67.9553 76.6975 67.8254 76.9985 67.6011 77.2197C67.3767 77.441 67.0756 77.5647 66.7622 77.5647V77.5795Z" fill="#556068"/>
<path d="M33.6604 35.9286C35.9633 35.9286 37.8303 34.0617 37.8303 31.7588C37.8303 29.4558 35.9633 27.5889 33.6604 27.5889C31.3574 27.5889 29.4905 29.4558 29.4905 31.7588C29.4905 34.0617 31.3574 35.9286 33.6604 35.9286Z" stroke="#556068" stroke-width="2" stroke-linecap="round" stroke-linejoin="round"/>
<path d="M48.2551 45.311C50.5581 45.311 52.425 43.444 52.425 41.1411C52.425 38.8381 50.5581 36.9712 48.2551 36.9712C45.9521 36.9712 44.0852 38.8381 44.0852 41.1411C44.0852 43.444 45.9521 45.311 48.2551 45.311Z" stroke="#556068" stroke-width="2" stroke-linecap="round" stroke-linejoin="round"/>
<path d="M48.2551 26.5463C50.5581 26.5463 52.425 24.6794 52.425 22.3764C52.425 20.0735 50.5581 18.2065 48.2551 18.2065C45.9521 18.2065 44.0852 20.0735 44.0852 22.3764C44.0852 24.6794 45.9521 26.5463 48.2551 26.5463Z" stroke="#556068" stroke-width="2" stroke-linecap="round" stroke-linejoin="round"/>
<path d="M44.7495 24.6309L37.1655 29.5044" stroke="#556068" stroke-width="2" stroke-linecap="round" stroke-linejoin="round"/>
<path d="M37.1655 34.0132L44.7495 38.8867" stroke="#556068" stroke-width="2" stroke-linecap="round" stroke-linejoin="round"/>
</svg>
