<svg width="85" height="80" viewBox="0 0 85 80" fill="none" xmlns="http://www.w3.org/2000/svg">
<g clip-path="url(#clip0_108_2569)">
<path d="M85 8.33479V61.4084C85 61.4925 85.0131 61.5764 85.0109 61.6605V61.6605C85.0092 61.7252 84.9988 61.7896 84.995 61.8543C84.8853 63.7256 84.0525 65.4884 82.6625 66.7854C81.2485 68.1048 79.367 68.8403 77.4108 68.8386C75.6156 68.8386 76.1849 68.8117 75.4321 68.7997C74.8513 68.7905 74.3797 68.3232 74.3797 67.7423V67.7423C74.3797 67.1613 74.8507 66.6904 75.4316 66.6904H77.259C77.9686 66.7061 78.6745 66.5852 79.3363 66.3346C79.9981 66.084 80.6027 65.7086 81.1158 65.2298C81.6289 64.751 82.0402 64.1783 82.3265 63.5443C82.6128 62.9103 82.7682 62.2275 82.784 61.5349C82.784 60.883 82.784 60.2312 82.784 59.5941V8.58664C82.8064 8.23638 82.8064 7.88507 82.784 7.53479C82.6697 6.61246 82.3057 5.73649 81.7294 4.99701C81.1532 4.25753 80.3855 3.68123 79.5054 3.32738C78.45 2.98602 77.335 2.85504 76.2268 2.9422H8.77323C7.64027 2.85208 6.5008 3.00374 5.43394 3.38664C4.53983 3.7742 3.77153 4.39328 3.2123 5.17676C2.65308 5.96023 2.32429 6.8782 2.26162 7.83109C2.24646 8.09755 2.24646 8.36463 2.26162 8.63109V59.6386C2.20092 60.5017 2.20092 61.3679 2.26162 62.2312C2.48109 63.502 3.16467 64.6523 4.18595 65.4694C5.20722 66.2866 6.49708 66.715 7.81698 66.6756H49.8094C50.3944 66.6756 50.8686 67.1499 50.8686 67.7349V67.7349C50.8686 68.3199 50.3944 68.7941 49.8094 68.7941H7.84734C6.34835 68.8365 4.86901 68.4531 3.58909 67.6904C2.30916 66.9276 1.28377 65.8186 0.63751 64.4978C0.0999116 63.0783 -0.117537 61.5623 8.9818e-06 60.0534V8.20146C-0.00201746 7.09363 0.250568 5.99947 0.739165 4.99955C1.22776 3.99962 1.93993 3.1194 2.82323 2.42368C4.18455 1.38274 5.86004 0.809851 7.5893 0.794052H76.0447C77.191 0.731789 78.3404 0.826537 79.4599 1.07553C81.0756 1.5175 82.4957 2.46966 83.4981 3.78312C84.5005 5.09657 85.0287 6.69723 85 8.33479Z" fill="#556068"/>
<path fill-rule="evenodd" clip-rule="evenodd" d="M52.3422 62.8326C51.797 61.7837 51.6871 60.5692 52.0309 59.4399C52.3747 58.3106 53.1475 57.3472 54.1939 56.7513C55.2409 56.1551 56.482 55.9727 57.6599 56.2472C58.8377 56.5217 59.8559 57.2306 60.5052 58.2227C60.5124 58.2336 60.5193 58.2446 60.5259 58.2558L68.8594 72.2653C68.8682 72.2802 68.8766 72.2953 68.8846 72.3107C69.2116 72.9398 69.2769 73.6667 69.0714 74.3417C68.8659 75.0168 68.4037 75.5939 67.7758 75.9514C67.1473 76.3093 66.4006 76.4196 65.6908 76.2542C64.9809 76.0887 64.3684 75.6617 63.9785 75.0659C63.9716 75.0554 63.9649 75.0447 63.9584 75.0338L56.9422 63.275C56.6806 62.8367 56.8365 62.2765 57.2903 62.0238C57.7441 61.7712 58.324 61.9217 58.5856 62.3601L65.5905 74.0998C65.7195 74.2897 65.9146 74.4215 66.1356 74.473C66.3617 74.5257 66.604 74.4918 66.8125 74.373C67.0217 74.2539 67.1805 74.0584 67.2516 73.8249C67.3206 73.5984 67.3002 73.3582 67.1991 73.152L58.892 59.1867C58.5034 58.6015 57.9032 58.1887 57.215 58.0284C56.5209 57.8666 55.7842 57.9726 55.1572 58.3297C54.5295 58.6871 54.0601 59.2689 53.8507 59.9568C53.6437 60.6369 53.7083 61.3636 54.0263 61.989L62.3489 75.9801C62.9651 77.0331 63.9818 77.7949 65.173 78.1032C66.3642 78.4116 67.6391 78.2428 68.7178 77.6286C69.7972 77.0139 70.5912 76.0033 70.9204 74.8168C71.2495 73.6304 71.0849 72.3716 70.4683 71.318L63.7314 59.7739C63.4742 59.3331 63.6356 58.7744 64.0919 58.526C64.5482 58.2775 65.1266 58.4334 65.3838 58.8742L72.1195 70.4163C72.9833 71.8922 73.209 73.6455 72.7526 75.291C72.2961 76.9366 71.193 78.346 69.6811 79.2069C68.1684 80.0683 66.37 80.3099 64.6821 79.873C62.9952 79.4364 61.5636 78.3598 60.6993 76.8847L52.3674 62.8779C52.3586 62.863 52.3502 62.8479 52.3422 62.8326Z" fill="#556068"/>
<path d="M54.0994 16.9168C52.761 16.2382 48.0806 14.9895 47.8977 14.9374C47.7792 14.9073 47.6546 14.9073 47.5361 14.9374C44.2623 15.9594 40.7384 15.9594 37.4646 14.9374C37.3501 14.9093 37.23 14.9093 37.1154 14.9374C36.9201 14.9895 32.2397 16.2423 30.8805 16.9168C30.3402 17.1898 28.8022 18.7275 26.2168 27.119C26.1866 27.2159 26.1823 27.3186 26.204 27.4176C26.2259 27.5165 26.2731 27.6085 26.3414 27.6852C27.1262 28.4936 28.0929 29.1167 29.1669 29.5067C30.2408 29.8965 31.3931 30.0426 32.5349 29.9337L31.9446 46.2188C31.9406 46.3546 31.9837 46.4878 32.0675 46.597C32.1512 46.7062 32.2704 46.7852 32.406 46.8211C35.705 47.6261 39.0917 48.048 42.4941 48.0777C45.8966 48.048 49.2834 47.6261 52.5823 46.8211C52.718 46.7852 52.8372 46.7062 52.9209 46.597C53.0045 46.4878 53.0478 46.3546 53.0436 46.2188L52.4452 29.9337C53.5868 30.0426 54.7392 29.8965 55.813 29.5067C56.887 29.1167 57.8537 28.4936 58.6385 27.6852C58.7068 27.6085 58.754 27.5165 58.7759 27.4176C58.7977 27.3186 58.7933 27.2159 58.7632 27.119C56.1695 18.7275 54.6399 17.1898 54.0994 16.9168ZM46.9874 16.3507C46.7214 17.5793 45.7862 19.7072 42.4941 19.7072C39.2021 19.7072 38.2543 17.5512 37.9966 16.3305C40.9406 17.0941 44.0399 17.1009 46.9874 16.3507ZM52.3911 28.713L52.229 24.2964C52.226 24.2174 52.2068 24.1397 52.1727 24.0676C52.1386 23.9957 52.0902 23.931 52.0302 23.8771C51.9702 23.8232 51.8998 23.7812 51.823 23.7536C51.7462 23.7261 51.6645 23.7133 51.5826 23.7163C51.5008 23.7192 51.4203 23.7376 51.3457 23.7706C51.2713 23.8035 51.2042 23.8503 51.1485 23.9083C51.0927 23.9663 51.0492 24.0343 51.0207 24.1085C50.9921 24.1827 50.979 24.2616 50.982 24.3406L51.1607 29.2551L51.7676 45.7772C48.7272 46.469 45.6175 46.8366 42.4941 46.8732C39.3664 46.8362 36.2525 46.4673 33.2082 45.7732L33.8151 29.2551L33.9938 24.3406C33.9968 24.2616 33.9837 24.1827 33.9551 24.1085C33.9265 24.0343 33.8832 23.9663 33.8274 23.9083C33.7716 23.8503 33.7046 23.8035 33.63 23.7706C33.5556 23.7376 33.4751 23.7192 33.3932 23.7163C33.3113 23.7133 33.2296 23.7261 33.1529 23.7536C33.0761 23.7812 33.0057 23.8232 32.9457 23.8771C32.8856 23.931 32.8371 23.9957 32.803 24.0676C32.7689 24.1397 32.7498 24.2174 32.7468 24.2964L32.5847 28.713C31.6702 28.8286 30.7405 28.7442 29.8642 28.4662C28.988 28.1882 28.1875 27.7238 27.5219 27.1071C29.0225 22.3171 30.735 18.334 31.4624 17.9687C32.327 17.531 35.1119 16.72 36.7247 16.2744C36.9866 17.764 38.0631 20.8957 42.49 20.8957C46.9168 20.8957 47.9934 17.764 48.2552 16.2744C49.868 16.72 52.653 17.531 53.5175 17.9687C54.2449 18.334 55.9575 22.3171 57.458 27.1071C56.7924 27.7225 55.9926 28.1861 55.1172 28.4641C54.2418 28.7419 53.3133 28.827 52.3994 28.713H52.3911Z" fill="#556068" stroke="#556068" stroke-width="0.2"/>
</g>
<defs>
<clipPath id="clip0_108_2569">
<rect width="85" height="80" fill="white"/>
</clipPath>
</defs>
</svg>
