<svg width="50" height="39" viewBox="0 0 50 39" fill="none" xmlns="http://www.w3.org/2000/svg">
<path fill-rule="evenodd" clip-rule="evenodd" d="M44.413 4.46946H43.3028C43.2306 4.46946 43.1613 4.44878 43.1103 4.41197C43.0592 4.37517 43.0305 4.32525 43.0305 4.27319C43.0333 3.7743 42.8993 3.27993 42.6363 2.81844C42.3733 2.35695 41.9865 1.93743 41.4979 1.58396C41.0094 1.23048 40.4289 0.95001 39.7896 0.758634C39.1503 0.567258 38.4649 0.468746 37.7727 0.46875H6.16291C4.77015 0.472725 3.436 0.873236 2.45116 1.58302C1.46632 2.2928 0.910606 3.25432 0.90509 4.2581V28.6398C0.910632 29.6421 1.46702 30.6021 2.45246 31.3095C3.43789 32.0168 4.77207 32.414 6.16291 32.414H26.2097V31.629H6.16291C5.05179 31.629 3.98617 31.3108 3.20049 30.7446C2.4148 30.1783 1.97341 29.4104 1.97341 28.6096V4.27319C1.97341 3.4724 2.4148 2.7044 3.20049 2.13816C3.98617 1.57191 5.05179 1.25379 6.16291 1.25379H13.3689C14.48 1.25379 15.5456 1.57191 16.3313 2.13816C17.117 2.7044 17.5583 3.4724 17.5583 4.27319V5.05824C17.5583 5.11029 17.587 5.16021 17.6381 5.19702C17.6892 5.23382 17.7584 5.2545 17.8307 5.2545H44.413C45.5242 5.2545 46.5898 5.57261 47.3755 6.13886C48.1611 6.70511 48.6025 7.4731 48.6025 8.2739V28.6548C48.6025 29.4556 48.1611 30.2236 47.3755 30.7899C46.5898 31.3561 45.5242 31.6743 44.413 31.6743H41.9203V32.4593H44.413C45.1035 32.4593 45.7872 32.3613 46.4251 32.1708C47.063 31.9804 47.6426 31.7013 48.1309 31.3494C48.6191 30.9975 49.0064 30.5798 49.2706 30.1201C49.5349 29.6603 49.6709 29.1676 49.6709 28.6699V8.2588C49.6709 7.25381 49.1169 6.28997 48.1309 5.57933C47.1448 4.86869 45.8075 4.46946 44.413 4.46946ZM29.7498 4.27319C29.7498 4.32525 29.7211 4.37517 29.67 4.41197C29.619 4.44878 29.5497 4.46946 29.4775 4.46946H18.6267V4.07693C18.6706 3.17516 18.2362 2.29519 17.4117 1.61612C17.3728 1.59844 17.3407 1.57394 17.3184 1.5449C17.2962 1.51586 17.2845 1.48323 17.2845 1.45005C17.2845 1.41688 17.2962 1.38425 17.3184 1.35521C17.3407 1.32617 17.3728 1.30167 17.4117 1.28399H25.5812C26.6924 1.28399 27.758 1.6021 28.5437 2.16835C29.3293 2.7346 29.7707 3.50259 29.7707 4.30339L29.7498 4.27319ZM41.9412 4.27319C41.9412 4.32525 41.9125 4.37517 41.8615 4.41197C41.8104 4.44878 41.7411 4.46946 41.6689 4.46946H30.8391V4.07693C30.8466 3.16311 30.3666 2.28213 29.4984 1.61612C29.4619 1.58872 29.4372 1.55426 29.4273 1.51694C29.4174 1.47961 29.4228 1.44102 29.4428 1.40586C29.4627 1.37069 29.4964 1.34045 29.5398 1.31882C29.5831 1.29719 29.6342 1.28509 29.6869 1.28399H37.7727C38.8838 1.28399 39.9494 1.6021 40.7351 2.16835C41.5208 2.7346 41.9622 3.50259 41.9622 4.30339L41.9412 4.27319Z" fill="black" stroke="black" stroke-width="0.25" stroke-miterlimit="10" stroke-linecap="square" stroke-linejoin="round"/>
<path fill-rule="evenodd" clip-rule="evenodd" d="M38.5341 34.9481H31.0229L30.7155 33.2881H38.8108C39.2027 33.291 39.5833 33.1569 39.8868 32.9089C40.1936 32.6463 40.397 32.2831 40.4606 31.8842L41.3111 27.2729C41.3242 27.1917 41.3201 27.1087 41.2989 27.0292C41.2777 26.9498 41.24 26.8757 41.1882 26.8118C41.1348 26.7501 41.0687 26.7008 40.9943 26.6672C40.92 26.6336 40.8393 26.6165 40.7578 26.6171H29.4858L29.1476 24.7623C29.0985 24.5102 28.9647 24.2825 28.7685 24.1168C28.5677 23.9484 28.3132 23.8575 28.0512 23.8606H26.801C26.7227 23.8499 26.6431 23.856 26.5674 23.8787C26.4917 23.9013 26.4217 23.9399 26.3621 23.9918C26.3026 24.0438 26.2549 24.1079 26.2222 24.1798C26.1895 24.2517 26.1725 24.3298 26.1725 24.4088C26.1725 24.4878 26.1895 24.5659 26.2222 24.6379C26.2549 24.7098 26.3026 24.7739 26.3621 24.8258C26.4217 24.8778 26.4917 24.9163 26.5674 24.939C26.6431 24.9616 26.7227 24.9678 26.801 24.957H28.0614L29.9777 35.399C29.7696 35.5781 29.6025 35.7997 29.4876 36.049C29.3727 36.2983 29.3127 36.5694 29.3116 36.8438C29.3116 37.3629 29.5178 37.8608 29.8849 38.2278C30.2519 38.5949 30.7497 38.8011 31.2688 38.8011C31.7879 38.8011 32.2857 38.5949 32.6528 38.2278C33.0198 37.8608 33.226 37.3629 33.226 36.8438C33.2215 36.5552 33.1514 36.2714 33.0211 36.0138H36.7716C36.6449 36.2722 36.5783 36.556 36.5769 36.8438C36.5728 37.2318 36.6842 37.6122 36.8967 37.9368C37.1093 38.2613 37.4136 38.5153 37.7708 38.6666C38.1281 38.8179 38.5222 38.8596 38.9032 38.7864C39.2842 38.7132 39.6349 38.5285 39.9107 38.2556C40.1865 37.9827 40.3749 37.634 40.4521 37.2538C40.5293 36.8736 40.4918 36.479 40.3442 36.1202C40.1967 35.7613 39.9459 35.4544 39.6236 35.2384C39.3013 35.0225 38.9221 34.9071 38.5341 34.9071V34.9481ZM40.0917 27.775L39.3641 31.7202C39.341 31.8495 39.2719 31.966 39.1695 32.0481C39.0677 32.1293 38.941 32.1728 38.8108 32.1711H30.5105L29.701 27.7545L40.0917 27.775ZM31.2688 37.7251C31.1051 37.7231 30.9457 37.6727 30.8105 37.5803C30.6754 37.4878 30.5706 37.3575 30.5093 37.2057C30.4481 37.0539 30.4331 36.8873 30.4663 36.727C30.4994 36.5666 30.5793 36.4197 30.6958 36.3046C30.8122 36.1896 30.9601 36.1115 31.1209 36.0803C31.2816 36.0491 31.448 36.0662 31.599 36.1293C31.7501 36.1924 31.8791 36.2988 31.9699 36.435C32.0607 36.5713 32.1091 36.7314 32.1091 36.8951C32.1037 37.1144 32.0129 37.3229 31.8559 37.476C31.6989 37.6292 31.4882 37.7149 31.2688 37.7149V37.7251ZM38.5239 37.7251C38.3602 37.7231 38.2007 37.6727 38.0656 37.5803C37.9304 37.4878 37.8256 37.3575 37.7644 37.2057C37.7031 37.0539 37.6881 36.8873 37.7213 36.727C37.7545 36.5666 37.8343 36.4197 37.9508 36.3046C38.0673 36.1896 38.2152 36.1115 38.3759 36.0803C38.5366 36.0491 38.703 36.0662 38.8541 36.1293C39.0052 36.1924 39.1342 36.2988 39.2249 36.435C39.3157 36.5713 39.3641 36.7314 39.3641 36.8951C39.3588 37.1144 39.2679 37.3229 39.1109 37.476C38.9539 37.6292 38.7432 37.7149 38.5239 37.7149V37.7251Z" fill="black"/>
</svg>
