<svg width="78" height="76" viewBox="0 0 78 76" fill="none" xmlns="http://www.w3.org/2000/svg">
<g clip-path="url(#clip0_104_2471)">
<path d="M77.9999 7.91801V58.338C77.9999 58.4179 78.0119 58.4976 78.0099 58.5774V58.5774C78.0083 58.6389 77.9988 58.7001 77.9953 58.7615C77.8947 60.5393 77.1304 62.2139 75.8549 63.4461C74.5573 64.6995 72.8307 65.3983 71.0356 65.3966C69.4169 65.3966 69.8933 65.3719 69.2549 65.3603C68.7031 65.3502 68.2542 64.907 68.2542 64.3551V64.3551C68.2542 63.8032 68.7016 63.3558 69.2535 63.3558H70.8963C71.5475 63.3708 72.1953 63.2559 72.8026 63.0178C73.4099 62.7798 73.9647 62.4232 74.4356 61.9683C74.9064 61.5134 75.2838 60.9693 75.5465 60.3671C75.8092 59.7647 75.9519 59.116 75.9663 58.4581C75.9663 57.8388 75.9663 57.2196 75.9663 56.6144V8.15727C75.987 7.82451 75.987 7.49077 75.9663 7.15801C75.8615 6.2818 75.5275 5.44963 74.9986 4.74712C74.4699 4.04461 73.7654 3.49713 72.9578 3.16097C71.9893 2.83668 70.9661 2.71225 69.9492 2.79504H8.05062C7.01096 2.70943 5.96533 2.85351 4.98633 3.21727C4.16585 3.58544 3.46082 4.17357 2.94765 4.91788C2.43448 5.66217 2.13277 6.53425 2.07526 7.43949C2.06134 7.69263 2.06134 7.94635 2.07526 8.19949V56.6566C2.01956 57.4765 2.01956 58.2995 2.07526 59.1196C2.27665 60.3268 2.90394 61.4197 3.84111 62.1959C4.77828 62.9722 5.96192 63.3792 7.17312 63.3418H45.673C46.2288 63.3418 46.6793 63.7923 46.6793 64.3481V64.3481C46.6793 64.9038 46.2288 65.3544 45.673 65.3544H7.20097C5.82543 65.3946 4.46792 65.0304 3.29341 64.3059C2.11888 63.5812 1.17794 62.5276 0.584897 61.2729C0.0915715 59.9243 -0.107969 58.4841 -0.000103777 57.0507V7.79134C-0.00196334 6.73891 0.229821 5.69946 0.678181 4.74953C1.12654 3.7996 1.78006 2.96338 2.59062 2.30245C3.83983 1.31356 5.37733 0.769316 6.96419 0.754307H69.7821C70.8339 0.695157 71.8888 0.785167 72.916 1.02171C74.3987 1.44158 75.7018 2.34614 76.6217 3.59392C77.5415 4.8417 78.0262 6.36233 77.9999 7.91801Z" fill="#556068"/>
<path fill-rule="evenodd" clip-rule="evenodd" d="M62.0655 69.9261H51.8559L51.438 67.6461H62.4416C62.9742 67.6501 63.4915 67.466 63.9041 67.1254C64.3211 66.7647 64.5976 66.2658 64.6841 65.718L65.8402 59.3847C65.858 59.2731 65.8523 59.1591 65.8235 59.05C65.7946 58.9408 65.7434 58.839 65.673 58.7513C65.6005 58.6666 65.5105 58.5989 65.4095 58.5526C65.3085 58.5064 65.1988 58.4831 65.088 58.4839H49.7666L49.307 55.9365C49.2401 55.5903 49.0583 55.2774 48.7916 55.0498C48.5186 54.8186 48.1728 54.6938 47.8166 54.698H46.1173C46.0109 54.6832 45.9025 54.6917 45.7996 54.7228C45.6968 54.7539 45.6017 54.8069 45.5208 54.8781C45.4398 54.9495 45.3749 55.0376 45.3305 55.1364C45.2861 55.2352 45.2629 55.3424 45.2629 55.451C45.2629 55.5595 45.2861 55.6667 45.3305 55.7655C45.3749 55.8643 45.4398 55.9523 45.5208 56.0236C45.6017 56.095 45.6968 56.1479 45.7996 56.179C45.9025 56.2101 46.0109 56.2186 46.1173 56.2039H47.8305L50.4352 70.5454C50.1523 70.7913 49.9253 71.0958 49.769 71.4381C49.6128 71.7805 49.5312 72.1528 49.5298 72.5298C49.5298 73.2427 49.8101 73.9266 50.309 74.4305C50.8079 74.9347 51.4846 75.218 52.1902 75.218C52.8957 75.218 53.5723 74.9347 54.0712 74.4305C54.5701 73.9266 54.8505 73.2427 54.8505 72.5298C54.8443 72.1334 54.749 71.7435 54.572 71.3898H59.6698C59.4975 71.7448 59.407 72.1345 59.4052 72.5298C59.3996 73.0627 59.5509 73.5851 59.8399 74.0308C60.1288 74.4766 60.5423 74.8255 61.028 75.0333C61.5135 75.2411 62.0494 75.2984 62.5672 75.1979C63.0851 75.0974 63.5617 74.8435 63.9366 74.4687C64.3114 74.0939 64.5675 73.6151 64.6725 73.0928C64.7774 72.5707 64.7264 72.0287 64.5259 71.5358C64.3253 71.0431 63.9845 70.6215 63.5463 70.3249C63.1082 70.0282 62.5929 69.8698 62.0655 69.8698V69.9261ZM64.1827 60.0743L63.1937 65.4928C63.1623 65.6703 63.0682 65.8303 62.9291 65.9432C62.7908 66.0546 62.6185 66.1143 62.4416 66.1121H51.1595L50.0591 60.0461L64.1827 60.0743ZM52.1902 73.7402C51.9676 73.7374 51.7509 73.6682 51.5672 73.5412C51.3834 73.4143 51.2411 73.2354 51.1578 73.0268C51.0745 72.8182 51.0542 72.5895 51.0993 72.3693C51.1443 72.1491 51.2529 71.9473 51.4112 71.7893C51.5695 71.6312 51.7705 71.524 51.989 71.4812C52.2074 71.4383 52.4336 71.4616 52.6389 71.5483C52.8443 71.635 53.0196 71.7811 53.143 71.9683C53.2664 72.1555 53.3322 72.3753 53.3323 72.6002C53.3249 72.9014 53.2014 73.1877 52.988 73.3981C52.7746 73.6085 52.4882 73.7261 52.1902 73.7261V73.7402ZM62.0516 73.7402C61.829 73.7374 61.6123 73.6682 61.4286 73.5412C61.2449 73.4143 61.1025 73.2354 61.0192 73.0268C60.9359 72.8182 60.9156 72.5895 60.9607 72.3693C61.0057 72.1491 61.1143 71.9473 61.2726 71.7893C61.4309 71.6312 61.6319 71.524 61.8505 71.4812C62.0689 71.4383 62.2951 71.4616 62.5004 71.5483C62.7057 71.635 62.881 71.7811 63.0045 71.9683C63.1279 72.1555 63.1936 72.3753 63.1937 72.6002C63.1864 72.9014 63.0628 73.1877 62.8494 73.3981C62.636 73.6085 62.3497 73.7261 62.0516 73.7261V73.7402Z" fill="#556068"/>
<path d="M39.0164 21.9152V30.2173" stroke="#556068" stroke-width="2" stroke-linecap="round" stroke-linejoin="round"/>
<path d="M46.2115 34.3684L39.0164 30.2173" stroke="#556068" stroke-width="2" stroke-linecap="round" stroke-linejoin="round"/>
<path d="M29.2959 25.3225H22.3774V18.4041" stroke="#556068" stroke-width="2" stroke-linecap="round" stroke-linejoin="round"/>
<path d="M28.2581 40.9755C30.3863 43.1053 33.0983 44.5562 36.0511 45.1445C39.004 45.7328 42.0649 45.4321 44.8469 44.2804C47.6288 43.1288 50.0066 41.178 51.6797 38.6747C53.3527 36.1714 54.2456 33.2282 54.2456 30.2173C54.2456 27.2064 53.3527 24.2632 51.6797 21.7599C50.0066 19.2566 47.6288 17.3058 44.8469 16.1541C42.0649 15.0025 39.004 14.7018 36.0511 15.2901C33.0983 15.8784 30.3863 17.3292 28.2581 19.4591L22.3774 25.3225" stroke="#556068" stroke-width="2" stroke-linecap="round" stroke-linejoin="round"/>
</g>
<defs>
<clipPath id="clip0_104_2471">
<rect width="78" height="76" fill="white"/>
</clipPath>
</defs>
</svg>
