<svg width="81" height="69" viewBox="0 0 81 69" fill="none" xmlns="http://www.w3.org/2000/svg">
<path d="M67.8335 62.7627C67.8063 65.2705 65.7783 67.1627 63.3067 67.1627C62.5734 67.1627 61.8311 67.1627 61.0976 67.1627C57.5307 67.1627 53.9636 67.1627 50.3966 67.1627C45.2815 67.1627 40.1572 67.1627 35.0421 67.1627C29.9178 67.1627 24.7936 67.1627 19.6784 67.1627C16.057 67.1627 12.4266 67.1627 8.80529 67.1627C8.0267 67.1627 7.24811 67.1627 6.46952 67.1627C4.24238 67.1627 2.25064 65.6597 1.92471 63.3874C1.82512 62.6721 1.88849 61.9026 1.88849 61.1873C1.88849 59.6755 1.88849 58.1635 1.88849 56.6517C1.88849 51.8714 1.88849 47.0912 1.88849 42.311C1.88849 37.2049 1.88849 32.0988 1.88849 26.9927C1.88849 23.9779 1.88849 20.9631 1.88849 17.9483C1.88849 17.7221 1.87945 17.4957 1.89755 17.2694C1.97904 15.6398 3.02018 14.1731 4.49588 13.5031C5.38311 13.0957 6.2975 13.1229 7.23906 13.1229C10.1995 13.1229 13.169 13.1229 16.1294 13.1229C21.0093 13.1229 25.8981 13.1229 30.7779 13.1229C36.0379 13.1229 41.2979 13.1229 46.5489 13.1229C50.6864 13.1229 54.8328 13.1229 58.9701 13.1229C60.1381 13.1229 61.306 13.1229 62.4648 13.1229C63.3791 13.1229 64.2664 13.0867 65.1446 13.4488C66.6021 14.0464 67.6613 15.4496 67.8335 17.0158C67.8697 17.3146 67.8605 17.6133 67.8605 17.9121C67.8605 18.9805 67.8605 20.0578 67.8605 21.1261C67.8605 25.4627 67.8605 29.7993 67.8605 34.1449C67.8605 39.3958 67.8605 44.6469 67.8605 49.8888C67.8605 53.6277 67.8605 57.3668 67.8605 61.1149C67.8335 61.6582 67.8335 62.2104 67.8335 62.7627C67.8335 63.9305 69.6441 63.9305 69.6441 62.7627C69.6441 60.5536 69.6441 58.3446 69.6441 56.1265C69.6441 51.2196 69.6441 46.3127 69.6441 41.4057C69.6441 36.2814 69.6441 31.1573 69.6441 26.024C69.6441 23.2446 69.6441 20.4743 69.6441 17.6949C69.6441 14.8793 67.8969 12.3353 65.1446 11.5386C64.2212 11.276 63.2977 11.3032 62.347 11.3032C59.2418 11.3032 56.1364 11.3032 53.0311 11.3032C48.0517 11.3032 43.0724 11.3032 38.1021 11.3032C32.7878 11.3032 27.4643 11.3032 22.15 11.3032C18.1213 11.3032 14.0925 11.3032 10.0637 11.3032C9.01352 11.3032 7.96332 11.3032 6.90408 11.3032C6.70491 11.3032 6.50573 11.3032 6.2975 11.3032C4.84896 11.3122 3.49095 11.792 2.35927 12.6884C0.901682 13.8472 0.0687652 15.6578 0.0506592 17.5137C0.0506592 17.6859 0.0506592 17.8579 0.0506592 18.0208C0.0506592 19.1797 0.0506592 20.3294 0.0506592 21.4882C0.0506592 25.9788 0.0506592 30.4782 0.0506592 34.9688C0.0506592 40.2649 0.0506592 45.5612 0.0506592 50.8575C0.0506592 54.4336 0.0506592 58.0005 0.0506592 61.5766C0.0506592 62.8441 0.0597122 64.0391 0.575755 65.2433C1.59879 67.6062 3.95268 68.9642 6.46952 68.9642C8.86866 68.9642 11.2769 68.9642 13.676 68.9642C18.3657 68.9642 23.0644 68.9642 27.754 68.9642C33.1137 68.9642 38.4732 68.9642 43.8329 68.9642C48.3233 68.9642 52.8139 68.9642 57.3043 68.9642C59.3322 68.9642 61.3602 68.9823 63.3883 68.9642C66.8104 68.9371 69.5898 66.1758 69.626 62.7536C69.6531 61.5948 67.8425 61.5948 67.8335 62.7627Z" fill="#556068"/>
<path d="M74.5509 57.8524C78.0092 57.8162 80.7525 55.0006 80.7615 51.5512C80.7615 50.6549 80.7615 49.7587 80.7615 48.8624C80.7615 44.4534 80.7615 40.0352 80.7615 35.6263C80.7615 30.0947 80.7615 24.554 80.7615 19.0224C80.7615 15.2289 80.7615 11.4265 80.7615 7.63317C80.7615 6.30233 80.7525 5.05296 80.1821 3.79454C79.1229 1.45876 76.76 0.191284 74.2611 0.191284C71.5995 0.191284 68.9378 0.191284 66.2852 0.191284C61.3148 0.191284 56.3355 0.191284 51.3652 0.191284C45.7973 0.191284 40.2385 0.191284 34.6706 0.191284C30.325 0.191284 25.9704 0.191284 21.6248 0.191284C20.4659 0.191284 19.2981 0.191284 18.1392 0.191284C16.6182 0.191284 15.1425 0.381405 13.857 1.2958C12.1911 2.4818 11.2043 4.35585 11.1771 6.40191C11.159 7.5698 12.9697 7.5698 12.9877 6.40191C13.0149 3.86696 15.0701 2.00196 17.5507 2.00196C18.3656 2.00196 19.1713 2.00196 19.9861 2.00196C23.7975 2.00196 27.6 2.00196 31.4115 2.00196C36.7439 2.00196 42.0764 2.00196 47.4179 2.00196C52.6054 2.00196 57.7931 2.00196 62.9897 2.00196C66.3576 2.00196 69.7345 2.00196 73.1023 2.00196C73.6636 2.00196 74.234 1.98386 74.8044 2.01102C76.4883 2.09249 78.0274 3.21512 78.643 4.7723C78.8783 5.37887 78.9509 6.00357 78.9509 6.6373C78.9509 9.58871 78.9509 12.5401 78.9509 15.4915C78.9509 20.7515 78.9509 26.0116 78.9509 31.2716C78.9509 36.1695 78.9509 41.0674 78.9509 45.9652C78.9509 47.441 78.9509 48.9166 78.9509 50.4014C78.9509 51.4788 79.0143 52.5471 78.5163 53.5429C77.7558 55.0639 76.2439 56.0145 74.5419 56.0326C73.383 56.0507 73.383 57.8614 74.5509 57.8524Z" fill="#556068"/>
<path fill-rule="evenodd" clip-rule="evenodd" d="M33.9847 23.2959C34.2471 23.1451 34.5445 23.0657 34.8473 23.0657C35.15 23.0657 35.4474 23.1451 35.7098 23.2959L49.3397 30.9627C49.6114 31.1171 49.8376 31.3403 49.9956 31.6099C50.1535 31.8795 50.2375 32.186 50.2392 32.4985L50.2392 32.5013L50.2392 47.7735H49.7167L50.2392 47.7763C50.2375 48.0888 50.1535 48.3953 49.9956 48.6649C49.8376 48.9345 49.6114 49.1578 49.3397 49.3121L49.3378 49.3131L35.7098 56.9789C35.4474 57.1297 35.15 57.2091 34.8473 57.2091C34.5445 57.2091 34.2471 57.1297 33.9847 56.9789L20.3567 49.3131L20.3548 49.3121C20.0831 49.1578 19.8569 48.9345 19.699 48.6649C19.541 48.3953 19.457 48.0888 19.4553 47.7763L19.4553 47.7735V32.4985C19.457 32.186 19.541 31.8795 19.699 31.6099C19.8569 31.3403 20.0831 31.1171 20.3548 30.9627L20.3567 30.9617L33.9847 23.2959ZM49.1943 47.7717V32.5031C49.1934 32.3747 49.1588 32.2488 49.0939 32.138C49.029 32.0272 48.9361 31.9354 48.8245 31.8719C48.8242 31.8717 48.8239 31.8716 48.8237 31.8714L35.1901 24.2025C35.0858 24.1423 34.9676 24.1106 34.8473 24.1106C34.7269 24.1106 34.6087 24.1423 34.5044 24.2025L34.4994 24.2054L20.8709 31.8714C20.8706 31.8716 20.8703 31.8717 20.87 31.8719C20.7585 31.9354 20.6656 32.0272 20.6007 32.138C20.5358 32.2488 20.5012 32.3746 20.5003 32.5029V47.7719C20.5012 47.9002 20.5358 48.026 20.6007 48.1368C20.6656 48.2476 20.7585 48.3394 20.8701 48.403C20.8704 48.4031 20.8706 48.4033 20.8709 48.4034L34.5045 56.0723C34.6087 56.1325 34.7269 56.1642 34.8473 56.1642C34.9676 56.1642 35.0859 56.1325 35.1901 56.0723L35.1952 56.0694L48.8237 48.4034C48.8239 48.4033 48.8242 48.4031 48.8244 48.403C48.936 48.3394 49.029 48.2476 49.0939 48.1368C49.1588 48.026 49.1934 47.9001 49.1943 47.7717Z" fill="#556068" stroke="#556068" stroke-width="0.2" stroke-linecap="round" stroke-linejoin="round"/>
<path fill-rule="evenodd" clip-rule="evenodd" d="M26.8777 27.3388C27.0171 27.0862 27.3349 26.9943 27.5875 27.1337L42.6119 35.4203C42.7786 35.5122 42.882 35.6875 42.882 35.8778V43.9321C42.882 44.2207 42.6481 44.4546 42.3596 44.4546C42.071 44.4546 41.8371 44.2207 41.8371 43.9321V36.1863L27.0829 28.0487C26.8302 27.9093 26.7383 27.5915 26.8777 27.3388Z" fill="#556068" stroke="#556068" stroke-width="0.2" stroke-linecap="round" stroke-linejoin="round"/>
<path fill-rule="evenodd" clip-rule="evenodd" d="M19.6919 31.6118C19.8324 31.3598 20.1506 31.2693 20.4027 31.4098L34.9844 39.5378L49.2884 31.4119C49.5393 31.2694 49.8582 31.3572 50.0008 31.6081C50.1433 31.859 50.0555 32.178 49.8046 32.3205L35.2449 40.5916C35.0861 40.6818 34.8919 40.6826 34.7324 40.5937L19.8939 32.3226C19.6419 32.1821 19.5514 31.8639 19.6919 31.6118Z" fill="#556068" stroke="#556068" stroke-width="0.2" stroke-linecap="round" stroke-linejoin="round"/>
<path fill-rule="evenodd" clip-rule="evenodd" d="M34.9214 39.6148C35.21 39.6172 35.4419 39.8531 35.4395 40.1416L35.3001 56.6839C35.2976 56.9725 35.0618 57.2044 34.7732 57.202C34.4847 57.1995 34.2527 56.9637 34.2551 56.6751L34.3945 40.1328C34.397 39.8443 34.6329 39.6123 34.9214 39.6148Z" fill="#556068" stroke="#556068" stroke-width="0.2" stroke-linecap="round" stroke-linejoin="round"/>
</svg>
