<svg viewBox="0 0 65 62" fill="none" xmlns="http://www.w3.org/2000/svg">
<path d="M32.505 9.22266C31.2783 9.22701 30.103 9.71627 29.2356 10.5837C28.3682 11.4512 27.8789 12.6264 27.8745 13.8531V16.5818H23.512C23.4242 16.5818 23.3401 16.6167 23.2781 16.6787C23.2161 16.7407 23.1812 16.8249 23.1812 16.9126V34.6738C23.1812 35.2879 23.4251 35.8767 23.8593 36.3109C24.0743 36.5259 24.3296 36.6965 24.6105 36.8128C24.8914 36.9292 25.1924 36.9891 25.4965 36.9891H36.14C36.72 37.9222 37.5313 38.6896 38.4952 39.2169C39.4591 39.7442 40.5429 40.0136 41.6415 39.9988C42.7401 39.984 43.8163 39.6856 44.7657 39.1325C45.715 38.5795 46.5054 37.7905 47.0601 36.8421C47.6149 35.8937 47.9151 34.8181 47.9318 33.7195C47.9486 32.6209 47.6811 31.5367 47.1555 30.5718C46.6299 29.607 45.8639 28.7944 44.9318 28.2127C43.9997 27.631 42.9331 27.3 41.8355 27.2518V16.9258C41.8355 16.8381 41.8006 16.754 41.7386 16.6919C41.6766 16.6299 41.5924 16.5951 41.5047 16.5951H37.1554V13.8664C37.1536 12.6342 36.6629 11.453 35.791 10.5824C34.9191 9.71169 33.7372 9.22266 32.505 9.22266V9.22266ZM28.536 13.8531C28.536 12.7961 28.9559 11.7824 29.7034 11.035C30.4508 10.2875 31.4645 9.86762 32.5216 9.86762C33.5786 9.86762 34.5923 10.2875 35.3398 11.035C36.0872 11.7824 36.5071 12.7961 36.5071 13.8531V16.5818H28.5228L28.536 13.8531ZM47.2598 33.6088C47.2591 34.7397 46.9232 35.845 46.2944 36.785C45.6656 37.725 44.7723 38.4575 43.7273 38.8898C42.6822 39.3221 41.5325 39.4349 40.4234 39.2139C39.3143 38.9928 38.2957 38.4479 37.4962 37.648C36.6968 36.8481 36.1525 35.8292 35.9321 34.7199C35.7117 33.6107 35.8251 32.4611 36.2581 31.4163C36.691 30.3715 37.424 29.4786 38.3643 28.8504C39.3047 28.2222 40.4102 27.8868 41.5411 27.8868C43.0578 27.8886 44.5119 28.4921 45.584 29.5649C46.6562 30.6377 47.2589 32.0921 47.2598 33.6088V33.6088ZM41.174 17.2566V27.2518C40.1322 27.3091 39.1205 27.6218 38.2281 28.1623C37.3357 28.7028 36.5899 29.4546 36.0566 30.3513C35.5232 31.248 35.2187 32.2622 35.1698 33.3044C35.1209 34.3466 35.3291 35.3848 35.7761 36.3276H25.4965C25.0579 36.3276 24.6372 36.1533 24.3271 35.8432C24.0169 35.5331 23.8427 35.1124 23.8427 34.6738V17.2566H27.8613V21.0602C27.8613 21.1479 27.8962 21.232 27.9582 21.294C28.0202 21.3561 28.1043 21.3909 28.1921 21.3909C28.2798 21.3909 28.3639 21.3561 28.4259 21.294C28.488 21.232 28.5228 21.1479 28.5228 21.0602V17.2566H36.4939V21.0602C36.4939 21.1479 36.5287 21.232 36.5907 21.294C36.6528 21.3561 36.7369 21.3909 36.8246 21.3909C36.9123 21.3909 36.9965 21.3561 37.0585 21.294C37.1205 21.232 37.1554 21.1479 37.1554 21.0602V17.2566H41.174Z" fill="black"/>
<path fill-rule="evenodd" clip-rule="evenodd" d="M27.5746 13.8513C27.5792 12.5454 28.1 11.2942 29.0235 10.3708C29.9469 9.44735 31.198 8.92652 32.504 8.92188L32.505 9.22174V8.92188C33.8167 8.92187 35.0748 9.44246 36.003 10.3693C36.9311 11.2961 37.4535 12.5535 37.4554 13.8652V16.2943H41.5047C41.672 16.2943 41.8325 16.3607 41.9507 16.479C42.069 16.5973 42.1355 16.7577 42.1355 16.925V26.9701C43.1833 27.0614 44.1961 27.3991 45.0906 27.9574C46.0666 28.5664 46.8686 29.4173 47.419 30.4275C47.9693 31.4378 48.2493 32.573 48.2318 33.7233C48.2143 34.8736 47.8999 35.9998 47.3191 36.9928C46.7383 37.9858 45.9107 38.8119 44.9167 39.391C43.9227 39.9701 42.7959 40.2825 41.6456 40.298C40.4953 40.3134 39.3605 40.0315 38.3513 39.4793C37.3912 38.9541 36.5757 38.2014 35.9757 37.2883H25.4965C25.153 37.2883 24.813 37.2206 24.4957 37.0892C24.1784 36.9578 23.8901 36.7651 23.6472 36.5223C23.1568 36.0318 22.8812 35.3666 22.8812 34.673V16.9118C22.8812 16.7445 22.9477 16.5841 23.066 16.4658C23.1843 16.3475 23.3447 16.281 23.512 16.281H27.5746V13.8513ZM36.14 36.9883C36.72 37.9214 37.5313 38.6888 38.4952 39.2161C39.4591 39.7435 40.5429 40.0128 41.6415 39.998C42.7402 39.9832 43.8163 39.6848 44.7657 39.1318C45.715 38.5787 46.5054 37.7897 47.0601 36.8413C47.6149 35.893 47.9151 34.8173 47.9319 33.7187C47.9486 32.6202 47.6812 31.5359 47.1555 30.5711C46.6299 29.6062 45.8639 28.7936 44.9318 28.2119C43.9997 27.6302 42.9331 27.2992 41.8355 27.251V16.925C41.8355 16.8373 41.8006 16.7532 41.7386 16.6912C41.6766 16.6291 41.5925 16.5943 41.5047 16.5943H37.1554V13.8656C37.1536 12.6334 36.6629 11.4523 35.791 10.5816C34.9191 9.71091 33.7372 9.22174 32.505 9.22174C31.2783 9.2261 30.1031 9.71549 29.2356 10.5829C28.3682 11.4504 27.8789 12.6256 27.8746 13.8524V16.581H23.512C23.4243 16.581 23.3401 16.6159 23.2781 16.6779C23.2161 16.7399 23.1812 16.8241 23.1812 16.9118V34.673C23.1812 35.2871 23.4252 35.876 23.8593 36.3102C24.0743 36.5252 24.3296 36.6957 24.6105 36.812C24.8914 36.9284 25.1924 36.9883 25.4965 36.9883H36.14ZM28.5361 13.8524L28.5228 16.581H36.5071V13.8524C36.5071 12.7953 36.0872 11.7816 35.3398 11.0342C34.5923 10.2867 33.5786 9.86684 32.5216 9.86684C31.4646 9.86684 30.4508 10.2867 29.7034 11.0342C28.956 11.7816 28.5361 12.7953 28.5361 13.8524ZM36.2071 16.281V13.8524C36.2071 12.8749 35.8188 11.9375 35.1276 11.2463C34.4365 10.5551 33.499 10.1668 32.5216 10.1668C31.5441 10.1668 30.6067 10.5551 29.9155 11.2463C29.2244 11.9375 28.8361 12.8749 28.8361 13.8524V13.8538L28.8243 16.281H36.2071ZM46.045 36.6174C46.6408 35.7268 46.9591 34.6795 46.9598 33.608C46.9589 32.1708 46.3878 30.7927 45.3719 29.7762C44.3559 28.7596 42.978 28.1877 41.5408 28.1861C40.4693 28.1861 39.4219 28.5038 38.531 29.099C37.64 29.6943 36.9454 30.5404 36.5352 31.5304C36.125 32.5203 36.0175 33.6097 36.2264 34.6607C36.4352 35.7117 36.9509 36.6772 37.7084 37.4352C38.4659 38.1931 39.4312 38.7094 40.4821 38.9189C41.533 39.1283 42.6224 39.0214 43.6126 38.6118C44.6028 38.2022 45.4493 37.5081 46.045 36.6174ZM41.5411 27.8861C40.4102 27.8861 39.3047 28.2214 38.3643 28.8496C37.424 29.4778 36.691 30.3708 36.2581 31.4155C35.8252 32.4603 35.7117 33.6099 35.9321 34.7192C36.1525 35.8284 36.6968 36.8473 37.4963 37.6472C38.2957 38.4471 39.3143 38.9921 40.4234 39.2131C41.5325 39.4341 42.6823 39.3213 43.7273 38.889C44.7723 38.4567 45.6656 37.7242 46.2944 36.7842C46.9232 35.8442 47.2591 34.7389 47.2598 33.608C47.2589 32.0913 46.6562 30.6369 45.584 29.5641C44.5119 28.4913 43.0578 27.8878 41.5411 27.8861ZM40.874 26.9731V17.5558H37.4554V21.0594C37.4554 21.2267 37.3889 21.3871 37.2706 21.5054C37.1524 21.6237 36.9919 21.6901 36.8246 21.6901C36.6573 21.6901 36.4969 21.6237 36.3786 21.5054C36.2603 21.3871 36.1939 21.2267 36.1939 21.0594V17.5558H28.8228V21.0594C28.8228 21.2267 28.7564 21.3871 28.6381 21.5054C28.5198 21.6237 28.3594 21.6901 28.1921 21.6901C28.0248 21.6901 27.8644 21.6237 27.7461 21.5054C27.6278 21.3871 27.5613 21.2267 27.5613 21.0594V17.5558H24.1427V34.673C24.1427 35.0321 24.2854 35.3764 24.5392 35.6303C24.7931 35.8842 25.1374 36.0268 25.4965 36.0268H35.32C34.9802 35.1577 34.8262 34.2251 34.8701 33.2895C34.9214 32.1982 35.2403 31.1362 35.7988 30.1972C36.3572 29.2581 37.1382 28.4709 38.0727 27.9049C38.926 27.388 39.8835 27.0701 40.874 26.9731ZM41.174 27.251C40.1322 27.3083 39.1205 27.621 38.2281 28.1615C37.3357 28.702 36.5899 29.4538 36.0566 30.3505C35.5233 31.2472 35.2187 32.2614 35.1698 33.3036C35.126 34.2364 35.2882 35.166 35.6433 36.0268C35.6849 36.1278 35.7292 36.2278 35.7762 36.3268H25.4965C25.0579 36.3268 24.6372 36.1525 24.3271 35.8424C24.017 35.5323 23.8427 35.1116 23.8427 34.673V17.2558H27.8613V21.0594C27.8613 21.1471 27.8962 21.2312 27.9582 21.2933C28.0202 21.3553 28.1044 21.3901 28.1921 21.3901C28.2798 21.3901 28.3639 21.3553 28.426 21.2933C28.488 21.2312 28.5228 21.1471 28.5228 21.0594V17.2558H36.4939V21.0594C36.4939 21.1471 36.5287 21.2312 36.5908 21.2933C36.6528 21.3553 36.7369 21.3901 36.8246 21.3901C36.9124 21.3901 36.9965 21.3553 37.0585 21.2933C37.1205 21.2312 37.1554 21.1471 37.1554 21.0594V17.2558H41.174V27.251Z" fill="black"/>
<path d="M41.2103 31.0534V33.2793H38.9843C38.8966 33.2793 38.8125 33.3142 38.7505 33.3762C38.6884 33.4383 38.6536 33.5224 38.6536 33.6101C38.6536 33.6978 38.6884 33.7819 38.7505 33.844C38.8125 33.906 38.8966 33.9408 38.9843 33.9408H41.2103V36.1668C41.2103 36.2545 41.2451 36.3386 41.3072 36.4007C41.3692 36.4627 41.4533 36.4975 41.541 36.4975C41.6288 36.4975 41.7129 36.4627 41.7749 36.4007C41.8369 36.3386 41.8718 36.2545 41.8718 36.1668V33.9408H44.0977C44.1854 33.9408 44.2696 33.906 44.3316 33.844C44.3936 33.7819 44.4285 33.6978 44.4285 33.6101C44.4285 33.5224 44.3936 33.4383 44.3316 33.3762C44.2696 33.3142 44.1854 33.2793 44.0977 33.2793H41.8718V31.0534C41.8718 30.9657 41.8369 30.8816 41.7749 30.8195C41.7129 30.7575 41.6288 30.7227 41.541 30.7227C41.4533 30.7227 41.3692 30.7575 41.3072 30.8195C41.2451 30.8816 41.2103 30.9657 41.2103 31.0534Z" fill="black"/>
<path fill-rule="evenodd" clip-rule="evenodd" d="M40.9103 32.9786V31.0526C40.9103 30.8853 40.9768 30.7249 41.095 30.6066C41.2133 30.4883 41.3738 30.4219 41.541 30.4219C41.7083 30.4219 41.8688 30.4883 41.9871 30.6066C42.1053 30.7249 42.1718 30.8853 42.1718 31.0526V32.9786H44.0977C44.265 32.9786 44.4255 33.045 44.5437 33.1633C44.662 33.2816 44.7285 33.442 44.7285 33.6093C44.7285 33.7766 44.662 33.937 44.5437 34.0553C44.4255 34.1736 44.265 34.2401 44.0977 34.2401H42.1718V36.166C42.1718 36.3333 42.1053 36.4937 41.9871 36.612C41.8688 36.7303 41.7083 36.7968 41.541 36.7968C41.3738 36.7968 41.2133 36.7303 41.095 36.612C40.9768 36.4937 40.9103 36.3333 40.9103 36.166V34.2401H38.9844C38.8171 34.2401 38.6566 34.1736 38.5383 34.0553C38.4201 33.937 38.3536 33.7766 38.3536 33.6093C38.3536 33.442 38.4201 33.2816 38.5383 33.1633C38.6566 33.045 38.8171 32.9786 38.9844 32.9786H40.9103ZM41.2103 31.0526C41.2103 30.9649 41.2451 30.8808 41.3072 30.8187C41.3692 30.7567 41.4533 30.7219 41.541 30.7219C41.6288 30.7219 41.7129 30.7567 41.7749 30.8187C41.837 30.8808 41.8718 30.9649 41.8718 31.0526V33.2786H44.0977C44.1855 33.2786 44.2696 33.3134 44.3316 33.3754C44.3936 33.4375 44.4285 33.5216 44.4285 33.6093C44.4285 33.697 44.3936 33.7812 44.3316 33.8432C44.2696 33.9052 44.1855 33.9401 44.0977 33.9401H41.8718V36.166C41.8718 36.2537 41.837 36.3379 41.7749 36.3999C41.7129 36.4619 41.6288 36.4968 41.541 36.4968C41.4533 36.4968 41.3692 36.4619 41.3072 36.3999C41.2451 36.3379 41.2103 36.2537 41.2103 36.166V33.9401H38.9844C38.8966 33.9401 38.8125 33.9052 38.7505 33.8432C38.6885 33.7812 38.6536 33.697 38.6536 33.6093C38.6536 33.5216 38.6885 33.4375 38.7505 33.3754C38.8125 33.3134 38.8966 33.2786 38.9844 33.2786H41.2103V31.0526Z" fill="black"/>
<path d="M64.3515 6.70531V47.5998C64.3626 47.6562 64.3626 47.7142 64.3515 47.7707C64.3515 47.7707 64.3515 47.7707 64.3515 47.7707C64.2869 49.237 63.6586 50.6217 62.5977 51.6359C61.5368 52.6502 60.1252 53.2156 58.6575 53.2141C56.9265 53.2141 55.2411 53.2141 53.4987 53.2141V51.5629H58.5436C59.076 51.575 59.6056 51.482 60.1021 51.2894C60.5987 51.0968 61.0523 50.8082 61.4373 50.4402C61.8222 50.0721 62.1309 49.6319 62.3457 49.1445C62.5604 48.6572 62.677 48.1323 62.6889 47.5998C62.6889 47.0988 62.6889 46.5977 62.6889 46.108V6.8989C62.7057 6.62965 62.7057 6.3596 62.6889 6.09035C62.6031 5.38136 62.33 4.70801 61.8977 4.13958C61.4653 3.57114 60.8894 3.12814 60.229 2.85614C59.4372 2.59374 58.6007 2.49305 57.7692 2.56005H7.16068C6.31066 2.49078 5.45575 2.60735 4.65531 2.90169C3.98449 3.1996 3.40804 3.67549 2.98847 4.27774C2.5689 4.87999 2.32223 5.58563 2.27521 6.31811C2.26383 6.52294 2.26383 6.72824 2.27521 6.93307V46.1422C2.22967 46.8057 2.22967 47.4715 2.27521 48.1351C2.43987 49.112 2.95274 49.9963 3.71897 50.6244C4.48521 51.2524 5.45296 51.5818 6.44323 51.5515H41.3362V53.18H6.46601C5.34137 53.2126 4.23146 52.9179 3.27117 52.3316C2.31088 51.7453 1.54155 50.8927 1.05668 49.8774C0.653338 48.7863 0.490193 47.621 0.578384 46.461V6.60281C0.576864 5.75124 0.766372 4.91016 1.13295 4.14152C1.49953 3.37288 2.03385 2.69626 2.69656 2.16147C3.71792 1.3613 4.975 0.920927 6.27241 0.908782H57.6326C58.4926 0.860921 59.3551 0.933753 60.1949 1.12516C61.4071 1.46489 62.4726 2.19681 63.2247 3.20646C63.9768 4.2161 64.373 5.44652 64.3515 6.70531V6.70531Z" fill="black"/>
<path fill-rule="evenodd" clip-rule="evenodd" d="M51.3235 56.8784H42.9761L42.6344 55.0335H51.631C52.0665 55.0368 52.4895 54.8877 52.8268 54.6121C53.1678 54.3203 53.3938 53.9166 53.4645 53.4733L54.4097 48.3487C54.4243 48.2585 54.4196 48.1662 54.3961 48.0779C54.3725 47.9896 54.3306 47.9072 54.273 47.8362C54.2137 47.7677 54.1402 47.7129 54.0576 47.6755C53.9751 47.6382 53.8854 47.6192 53.7947 47.6199H41.2679L40.8921 45.5586C40.8375 45.2785 40.6888 45.0253 40.4707 44.8412C40.2475 44.6541 39.9648 44.5531 39.6735 44.5565H38.2842C38.1972 44.5446 38.1087 44.5514 38.0245 44.5766C37.9404 44.6017 37.8626 44.6446 37.7965 44.7023C37.7303 44.76 37.6772 44.8313 37.6409 44.9112C37.6046 44.9911 37.5858 45.0779 37.5858 45.1657C37.5858 45.2535 37.6046 45.3403 37.6409 45.4203C37.6772 45.5002 37.7303 45.5714 37.7965 45.6292C37.8626 45.6869 37.9404 45.7298 38.0245 45.7549C38.1087 45.7801 38.1972 45.7869 38.2842 45.775H39.6849L41.8145 57.3794C41.5833 57.5784 41.3976 57.8248 41.2699 58.1018C41.1422 58.3789 41.0755 58.6801 41.0743 58.9851C41.0743 59.562 41.3034 60.1153 41.7114 60.5232C42.1193 60.9311 42.6725 61.1603 43.2494 61.1603C43.8263 61.1603 44.3795 60.9311 44.7874 60.5232C45.1954 60.1153 45.4245 59.562 45.4245 58.9851C45.4194 58.6644 45.3415 58.349 45.1968 58.0627H49.3648C49.2239 58.3499 49.15 58.6653 49.1484 58.9851C49.1439 59.4163 49.2676 59.839 49.5039 60.1997C49.7401 60.5604 50.0782 60.8427 50.4752 61.0109C50.8723 61.179 51.3103 61.2253 51.7337 61.144C52.1572 61.0627 52.5469 60.8573 52.8533 60.554C53.1598 60.2508 53.3692 59.8633 53.455 59.4407C53.5408 59.0182 53.4991 58.5797 53.3352 58.1809C53.1712 57.7821 52.8925 57.441 52.5343 57.201C52.1761 56.961 51.7547 56.8328 51.3235 56.8328V56.8784ZM53.0545 48.9067L52.246 53.2911C52.2203 53.4347 52.1434 53.5642 52.0296 53.6555C51.9165 53.7457 51.7757 53.794 51.631 53.7922H42.4067L41.507 48.8839L53.0545 48.9067ZM43.2494 59.9645C43.0675 59.9623 42.8902 59.9063 42.7401 59.8036C42.5899 59.7008 42.4734 59.556 42.4053 59.3873C42.3373 59.2185 42.3206 59.0334 42.3575 58.8553C42.3944 58.6771 42.4831 58.5138 42.6125 58.3859C42.742 58.258 42.9064 58.1713 43.085 58.1366C43.2636 58.102 43.4485 58.1209 43.6164 58.191C43.7843 58.2612 43.9277 58.3794 44.0285 58.5308C44.1294 58.6822 44.1832 58.8601 44.1832 59.0421C44.1773 59.2858 44.0763 59.5175 43.9018 59.6877C43.7273 59.8579 43.4932 59.9532 43.2494 59.9531V59.9645ZM51.3121 59.9645C51.1302 59.9623 50.953 59.9063 50.8028 59.8036C50.6526 59.7008 50.5362 59.556 50.4681 59.3873C50.4 59.2185 50.3834 59.0334 50.4202 58.8553C50.4571 58.6771 50.5458 58.5138 50.6753 58.3859C50.8047 58.258 50.9691 58.1713 51.1477 58.1366C51.3263 58.102 51.5112 58.1209 51.6791 58.191C51.847 58.2612 51.9904 58.3794 52.0913 58.5308C52.1921 58.6822 52.2459 58.8601 52.246 59.0421C52.24 59.2858 52.139 59.5175 51.9645 59.6877C51.79 59.8579 51.5559 59.9532 51.3121 59.9531V59.9645Z" fill="black"/>
</svg>
