<svg width="57" height="53" viewBox="0 0 57 53" fill="none" xmlns="http://www.w3.org/2000/svg">
<g clip-path="url(#clip0_1953:7516)">
<path d="M56.8462 5.11033V41.0203C56.8559 41.0699 56.8559 41.1208 56.8462 41.1703C56.8462 41.1703 56.8462 41.1703 56.8462 41.1703C56.7895 42.4579 56.2378 43.6739 55.3062 44.5645C54.3746 45.4551 53.1351 45.9516 51.8462 45.9503C50.3262 45.9503 48.8462 45.9503 47.3162 45.9503V44.5003H51.7462C52.2138 44.511 52.6788 44.4294 53.1148 44.2602C53.5508 44.091 53.9492 43.8376 54.2872 43.5145C54.6253 43.1913 54.8963 42.8047 55.0849 42.3767C55.2734 41.9488 55.3758 41.4879 55.3862 41.0203C55.3862 40.5803 55.3862 40.1403 55.3862 39.7103V5.28033C55.4011 5.04389 55.4011 4.80676 55.3862 4.57033C55.3109 3.94775 55.0711 3.35648 54.6915 2.85733C54.3118 2.35818 53.8061 1.96917 53.2262 1.73033C52.5309 1.49991 51.7964 1.41149 51.0662 1.47033H6.62624C5.87982 1.40949 5.12911 1.51186 4.42624 1.77033C3.83719 2.03193 3.331 2.44981 2.96257 2.97865C2.59414 3.5075 2.37753 4.12712 2.33624 4.77033C2.32625 4.95019 2.32625 5.13047 2.33624 5.31033V39.7403C2.29625 40.323 2.29625 40.9077 2.33624 41.4903C2.48083 42.3482 2.93119 43.1247 3.60403 43.6762C4.27687 44.2277 5.12666 44.5169 5.99624 44.4903H36.6362V45.9203H6.01624C5.02868 45.949 4.05405 45.6902 3.21081 45.1753C2.36757 44.6605 1.69201 43.9119 1.26624 43.0203C0.912057 42.0622 0.768797 41.0389 0.846239 40.0203V5.02033C0.844904 4.27255 1.01131 3.53399 1.33321 2.85904C1.65511 2.18409 2.1243 1.58993 2.70624 1.12033C3.60311 0.41769 4.70696 0.0309909 5.84624 0.0203266H50.9462C51.7014 -0.0217008 52.4588 0.0422538 53.1962 0.210327C54.2607 0.508654 55.1964 1.15136 55.8568 2.03794C56.5172 2.92452 56.8651 4.00497 56.8462 5.11033V5.11033Z" fill="black"/>
<path fill-rule="evenodd" clip-rule="evenodd" d="M45.4062 49.1688H38.0762L37.7762 47.5487H45.6762C46.0586 47.5516 46.4301 47.4207 46.7262 47.1787C47.0257 46.9225 47.2242 46.568 47.2862 46.1787L48.1162 41.6787C48.129 41.5995 48.1249 41.5185 48.1043 41.4409C48.0836 41.3634 48.0468 41.2911 47.9962 41.2287C47.9441 41.1686 47.8796 41.1204 47.8071 41.0876C47.7346 41.0548 47.6558 41.0381 47.5762 41.0387H36.5762L36.2462 39.2287C36.1983 38.9827 36.0677 38.7605 35.8762 38.5988C35.6802 38.4344 35.4319 38.3458 35.1762 38.3488H33.9562C33.8798 38.3383 33.8021 38.3443 33.7282 38.3664C33.6543 38.3885 33.586 38.4261 33.5279 38.4768C33.4698 38.5275 33.4232 38.59 33.3913 38.6602C33.3594 38.7304 33.3429 38.8066 33.3429 38.8838C33.3429 38.9609 33.3594 39.0371 33.3913 39.1073C33.4232 39.1775 33.4698 39.24 33.5279 39.2907C33.586 39.3414 33.6543 39.379 33.7282 39.4011C33.8021 39.4232 33.8798 39.4292 33.9562 39.4188H35.1862L37.0562 49.6087C36.8532 49.7835 36.6901 49.9998 36.578 50.2431C36.4658 50.4864 36.4072 50.7509 36.4062 51.0187C36.4062 51.5253 36.6074 52.0111 36.9656 52.3693C37.3238 52.7275 37.8096 52.9287 38.3162 52.9287C38.8228 52.9287 39.3086 52.7275 39.6668 52.3693C40.025 52.0111 40.2262 51.5253 40.2262 51.0187C40.2217 50.7371 40.1534 50.4601 40.0262 50.2087H43.6862C43.5625 50.4609 43.4976 50.7379 43.4962 51.0187C43.4922 51.3973 43.6009 51.7686 43.8083 52.0853C44.0158 52.402 44.3127 52.6499 44.6613 52.7976C45.01 52.9452 45.3946 52.9859 45.7664 52.9145C46.1382 52.843 46.4804 52.6627 46.7496 52.3964C47.0187 52.1301 47.2026 51.7898 47.2779 51.4188C47.3532 51.0477 47.3166 50.6627 47.1727 50.3125C47.0287 49.9623 46.7839 49.6629 46.4694 49.4521C46.1549 49.2413 45.7848 49.1288 45.4062 49.1287V49.1688ZM46.9262 42.1688L46.2162 46.0187C46.1936 46.1449 46.1261 46.2586 46.0262 46.3387C45.9269 46.418 45.8032 46.4604 45.6762 46.4587H37.5762L36.7862 42.1488L46.9262 42.1688ZM38.3162 51.8787C38.1564 51.8768 38.0008 51.8276 37.869 51.7374C37.7371 51.6472 37.6348 51.52 37.575 51.3719C37.5153 51.2237 37.5006 51.0611 37.533 50.9047C37.5654 50.7482 37.6433 50.6048 37.757 50.4925C37.8706 50.3803 38.015 50.3041 38.1718 50.2737C38.3287 50.2432 38.491 50.2598 38.6385 50.3214C38.7859 50.383 38.9118 50.4868 39.0004 50.6198C39.0889 50.7528 39.1362 50.909 39.1362 51.0687C39.131 51.2827 39.0423 51.4862 38.8891 51.6357C38.7359 51.7852 38.5303 51.8688 38.3162 51.8687V51.8787ZM45.3962 51.8787C45.2364 51.8768 45.0808 51.8276 44.949 51.7374C44.8171 51.6472 44.7148 51.52 44.655 51.3719C44.5953 51.2237 44.5806 51.0611 44.613 50.9047C44.6454 50.7482 44.7233 50.6048 44.837 50.4925C44.9506 50.3803 45.095 50.3041 45.2518 50.2737C45.4087 50.2432 45.571 50.2598 45.7184 50.3214C45.8659 50.383 45.9918 50.4868 46.0804 50.6198C46.1689 50.7528 46.2162 50.909 46.2162 51.0687C46.211 51.2827 46.1223 51.4862 45.9691 51.6357C45.8159 51.7852 45.6103 51.8688 45.3962 51.8687V51.8787Z" fill="black"/>
<path d="M29.4552 23.674H26.4104C26.0754 23.674 25.8014 23.9481 25.8014 24.283C25.8014 24.6179 26.0754 24.892 26.4104 24.892H28.2373V25.501C28.2373 25.8359 28.5113 26.1099 28.8462 26.1099C29.1812 26.1099 29.4552 25.8359 29.4552 25.501V24.892C30.801 24.892 31.8911 23.8019 31.8911 22.4561C31.8911 21.1103 30.801 20.0202 29.4552 20.0202H28.2373C27.5674 20.0202 27.0193 19.4721 27.0193 18.8023C27.0193 18.1324 27.5674 17.5843 28.2373 17.5843H31.2821C31.6171 17.5843 31.8911 17.3103 31.8911 16.9754C31.8911 16.6404 31.6171 16.3664 31.2821 16.3664H29.4552V15.7574C29.4552 15.4225 29.1812 15.1484 28.8462 15.1484C28.5113 15.1484 28.2373 15.4225 28.2373 15.7574V16.3664C26.8915 16.3664 25.8014 17.4564 25.8014 18.8023C25.8014 20.1481 26.8915 21.2382 28.2373 21.2382H29.4552C30.1251 21.2382 30.6732 21.7862 30.6732 22.4561C30.6732 23.126 30.1251 23.674 29.4552 23.674Z" fill="black"/>
<path d="M28.8463 28.5442C33.2126 28.5442 36.7629 24.9939 36.7629 20.6276C36.7629 16.2612 33.2126 12.7109 28.8463 12.7109C24.4799 12.7109 20.9296 16.2612 20.9296 20.6276C20.9296 24.9939 24.4799 28.5442 28.8463 28.5442ZM28.8463 13.9289C32.5427 13.9289 35.5449 16.9311 35.5449 20.6276C35.5449 24.324 32.5427 27.3263 28.8463 27.3263C25.1498 27.3263 22.1476 24.324 22.1476 20.6276C22.1476 16.9311 25.1498 13.9289 28.8463 13.9289Z" fill="black"/>
<path d="M17.9578 19.4642C17.9091 19.8844 17.8847 20.2619 17.8847 20.6273C17.8847 23.5808 19.0966 26.4247 21.228 28.4891L20.6982 31.5827C20.6616 31.8141 20.753 32.0394 20.9418 32.1795C21.1305 32.3135 21.3802 32.3317 21.5812 32.2282L24.5103 30.6875C27.2812 31.8872 30.4174 31.8872 33.1821 30.6875L36.1112 32.2282C36.2026 32.2769 36.3 32.2952 36.3975 32.2952C36.5253 32.2952 36.6471 32.2587 36.7567 32.1795C36.9455 32.0455 37.0369 31.8141 37.0003 31.5827L36.4705 28.4891C38.5958 26.4247 39.8077 23.5808 39.8077 20.6273C39.8077 20.2619 39.7833 19.8905 39.7346 19.4703L41.4885 17.7652C41.6529 17.6007 41.7138 17.3632 41.6407 17.1379C41.5676 16.9187 41.3788 16.7543 41.1474 16.7238L38.949 16.4071C37.4327 12.7899 34.0468 10.2261 30.1677 9.75718L29.3943 8.17386C29.1872 7.75976 28.5052 7.75976 28.3042 8.17386L27.5308 9.745C23.6456 10.22 20.2536 12.7838 18.7434 16.4011L16.545 16.7177C16.3136 16.7482 16.1248 16.9126 16.0517 17.1318C15.9786 17.3511 16.0395 17.5946 16.204 17.7591L17.9578 19.4642ZM19.2671 17.552C19.4863 17.5216 19.669 17.3754 19.7482 17.1684C21.0636 13.7033 24.2972 11.2553 27.9754 10.9264C28.1885 10.9081 28.3712 10.7803 28.4686 10.5915L28.8462 9.82417L29.2238 10.5915C29.3151 10.7803 29.5039 10.9081 29.717 10.9264C33.3952 11.2553 36.6289 13.7033 37.9442 17.1684C38.0234 17.3754 38.2061 17.5216 38.4253 17.552L39.7529 17.7469L38.6689 18.8065C38.5289 18.9405 38.468 19.1353 38.4923 19.3241C38.5593 19.8174 38.5898 20.2315 38.5898 20.6273C38.5898 23.3494 37.4266 25.9741 35.3987 27.8193C35.2465 27.9593 35.1734 28.1664 35.21 28.3734L35.5875 30.5718L33.4866 29.4696C33.3952 29.4209 33.2978 29.4026 33.2004 29.4026C33.1151 29.4026 33.0238 29.4209 32.9446 29.4574C30.3382 30.6693 27.3481 30.6693 24.7417 29.4574C24.5712 29.3782 24.3703 29.3843 24.1998 29.4696L22.0988 30.5718L22.4764 28.3734C22.5129 28.1664 22.4398 27.9593 22.2876 27.8193C20.2658 25.968 19.1027 23.3494 19.1027 20.6273C19.1027 20.2315 19.1331 19.8174 19.2001 19.3241C19.2245 19.1353 19.1575 18.9405 19.0235 18.8065L17.9395 17.7469L19.2671 17.552Z" fill="black"/>
</g>
<defs>
<clipPath id="clip0_1953:7516">
<rect width="56" height="52.93" fill="white" transform="translate(0.846252 0.0195312)"/>
</clipPath>
</defs>
</svg>
