<svg width="78" height="76" viewBox="0 0 78 76" fill="none" xmlns="http://www.w3.org/2000/svg">
<g clip-path="url(#clip0_103_2467)">
<path d="M77.9999 7.91801V58.338C77.9999 58.4179 78.0119 58.4976 78.0099 58.5774V58.5774C78.0083 58.6389 77.9988 58.7001 77.9953 58.7615C77.8947 60.5393 77.1304 62.2139 75.8549 63.4461C74.5573 64.6995 72.8307 65.3983 71.0356 65.3966C69.4169 65.3966 69.8933 65.3719 69.2549 65.3603C68.7031 65.3502 68.2542 64.907 68.2542 64.3551V64.3551C68.2542 63.8032 68.7016 63.3558 69.2535 63.3558H70.8963C71.5475 63.3708 72.1953 63.2559 72.8026 63.0178C73.4099 62.7798 73.9647 62.4232 74.4356 61.9683C74.9064 61.5134 75.2838 60.9693 75.5465 60.3671C75.8092 59.7647 75.9519 59.116 75.9663 58.4581C75.9663 57.8388 75.9663 57.2196 75.9663 56.6144V8.15727C75.987 7.82451 75.987 7.49077 75.9663 7.15801C75.8615 6.2818 75.5275 5.44963 74.9986 4.74712C74.4699 4.04461 73.7654 3.49713 72.9578 3.16097C71.9893 2.83668 70.9661 2.71225 69.9492 2.79504H8.05062C7.01096 2.70943 5.96533 2.85351 4.98633 3.21727C4.16585 3.58544 3.46082 4.17357 2.94765 4.91788C2.43448 5.66217 2.13277 6.53425 2.07526 7.43949C2.06134 7.69263 2.06134 7.94635 2.07526 8.19949V56.6566C2.01956 57.4765 2.01956 58.2995 2.07526 59.1196C2.27665 60.3268 2.90394 61.4197 3.84111 62.1959C4.77828 62.9722 5.96192 63.3792 7.17312 63.3418H45.673C46.2288 63.3418 46.6793 63.7923 46.6793 64.3481V64.3481C46.6793 64.9038 46.2288 65.3544 45.673 65.3544H7.20097C5.82543 65.3946 4.46792 65.0304 3.29341 64.3059C2.11888 63.5812 1.17794 62.5276 0.584897 61.2729C0.0915715 59.9243 -0.107969 58.4841 -0.000103777 57.0507V7.79134C-0.00196334 6.73891 0.229821 5.69946 0.678181 4.74953C1.12654 3.7996 1.78006 2.96338 2.59062 2.30245C3.83983 1.31356 5.37733 0.769316 6.96419 0.754307H69.7821C70.8339 0.695157 71.8888 0.785167 72.916 1.02171C74.3987 1.44158 75.7018 2.34614 76.6217 3.59392C77.5415 4.8417 78.0262 6.36233 77.9999 7.91801Z" fill="#556068"/>
<path fill-rule="evenodd" clip-rule="evenodd" d="M62.0655 69.9261H51.8559L51.438 67.6461H62.4416C62.9742 67.6501 63.4915 67.466 63.9041 67.1254C64.3211 66.7647 64.5976 66.2658 64.6841 65.718L65.8402 59.3847C65.858 59.2731 65.8523 59.1591 65.8235 59.05C65.7946 58.9408 65.7434 58.839 65.673 58.7513C65.6005 58.6666 65.5105 58.5989 65.4095 58.5526C65.3085 58.5064 65.1988 58.4831 65.088 58.4839H49.7666L49.307 55.9365C49.2401 55.5903 49.0583 55.2774 48.7916 55.0498C48.5186 54.8186 48.1728 54.6938 47.8166 54.698H46.1173C46.0109 54.6832 45.9025 54.6917 45.7996 54.7228C45.6968 54.7539 45.6017 54.8069 45.5208 54.8781C45.4398 54.9495 45.3749 55.0376 45.3305 55.1364C45.2861 55.2352 45.2629 55.3424 45.2629 55.451C45.2629 55.5595 45.2861 55.6667 45.3305 55.7655C45.3749 55.8643 45.4398 55.9523 45.5208 56.0236C45.6017 56.095 45.6968 56.1479 45.7996 56.179C45.9025 56.2101 46.0109 56.2186 46.1173 56.2039H47.8305L50.4352 70.5454C50.1523 70.7913 49.9253 71.0958 49.769 71.4381C49.6128 71.7805 49.5312 72.1528 49.5298 72.5298C49.5298 73.2427 49.8101 73.9266 50.309 74.4305C50.8079 74.9347 51.4846 75.218 52.1902 75.218C52.8957 75.218 53.5723 74.9347 54.0712 74.4305C54.5701 73.9266 54.8505 73.2427 54.8505 72.5298C54.8443 72.1334 54.749 71.7435 54.572 71.3898H59.6698C59.4975 71.7448 59.407 72.1345 59.4052 72.5298C59.3996 73.0627 59.5509 73.5851 59.8399 74.0308C60.1288 74.4766 60.5423 74.8255 61.028 75.0333C61.5135 75.2411 62.0494 75.2984 62.5672 75.1979C63.0851 75.0974 63.5617 74.8435 63.9366 74.4687C64.3114 74.0939 64.5675 73.6151 64.6725 73.0928C64.7774 72.5707 64.7264 72.0287 64.5259 71.5358C64.3253 71.0431 63.9845 70.6215 63.5463 70.3249C63.1082 70.0282 62.5929 69.8698 62.0655 69.8698V69.9261ZM64.1827 60.0743L63.1937 65.4928C63.1623 65.6703 63.0682 65.8303 62.9291 65.9432C62.7908 66.0546 62.6185 66.1143 62.4416 66.1121H51.1595L50.0591 60.0461L64.1827 60.0743ZM52.1902 73.7402C51.9676 73.7374 51.7509 73.6682 51.5672 73.5412C51.3834 73.4143 51.2411 73.2354 51.1578 73.0268C51.0745 72.8182 51.0542 72.5895 51.0993 72.3693C51.1443 72.1491 51.2529 71.9473 51.4112 71.7893C51.5695 71.6312 51.7705 71.524 51.989 71.4812C52.2074 71.4383 52.4336 71.4616 52.6389 71.5483C52.8443 71.635 53.0196 71.7811 53.143 71.9683C53.2664 72.1555 53.3322 72.3753 53.3323 72.6002C53.3249 72.9014 53.2014 73.1877 52.988 73.3981C52.7746 73.6085 52.4882 73.7261 52.1902 73.7261V73.7402ZM62.0516 73.7402C61.829 73.7374 61.6123 73.6682 61.4286 73.5412C61.2449 73.4143 61.1025 73.2354 61.0192 73.0268C60.9359 72.8182 60.9156 72.5895 60.9607 72.3693C61.0057 72.1491 61.1143 71.9473 61.2726 71.7893C61.4309 71.6312 61.6319 71.524 61.8505 71.4812C62.0689 71.4383 62.2951 71.4616 62.5004 71.5483C62.7057 71.635 62.881 71.7811 63.0045 71.9683C63.1279 72.1555 63.1936 72.3753 63.1937 72.6002C63.1864 72.9014 63.0628 73.1877 62.8494 73.3981C62.636 73.6085 62.3497 73.7261 62.0516 73.7261V73.7402Z" fill="#556068"/>
<path fill-rule="evenodd" clip-rule="evenodd" d="M15.9714 22.2693C16.2099 22.1005 16.494 22.01 16.7852 22.01C17.0763 22.01 17.3604 22.1005 17.5989 22.2693C17.8337 22.4355 18.0131 22.6695 18.1136 22.9406L19.785 27.1936L24.2651 27.4851C25.6 27.5727 26.0489 29.2559 25.0832 30.0671C25.083 30.0673 25.0828 30.0675 25.0826 30.0677L21.6375 32.9712L22.7491 37.3873C23.0545 38.6054 21.7508 39.7155 20.6076 38.9869L16.7851 36.5345L13.236 38.8055C13.2357 38.8057 13.2355 38.8058 13.2352 38.806C11.9923 39.6043 10.5707 38.3874 10.9064 37.0588C10.9064 37.0586 10.9063 37.0589 10.9064 37.0588L11.9329 32.9712L8.4877 30.0677C8.48749 30.0675 8.48728 30.0673 8.48707 30.0671C7.52146 29.2559 7.96996 27.5728 9.30481 27.4852L13.7853 27.1936L15.4567 22.9406C15.5572 22.6695 15.7366 22.4355 15.9714 22.2693ZM13.7528 27.2768C13.7531 27.2758 13.7535 27.2749 13.7539 27.2739L13.7528 27.2768ZM16.7089 36.4857C16.7091 36.4858 16.7088 36.4856 16.7089 36.4857ZM17.5422 35.1606L21.1715 37.489L20.1134 33.2855C20.0476 33.0177 20.0581 32.7365 20.1436 32.4744C20.2288 32.2129 20.3853 31.9811 20.595 31.8054C20.5955 31.8049 20.5961 31.8045 20.5966 31.8041L23.8839 29.0335L19.6084 28.7553C19.6075 28.7552 19.6065 28.7552 19.6056 28.7551C19.3315 28.7384 19.068 28.6417 18.8472 28.4767C18.6285 28.3132 18.4609 28.0896 18.3645 27.8327L16.7852 23.8142L15.2058 27.8327C15.1094 28.0896 14.9418 28.3132 14.7231 28.4767C14.5023 28.6417 14.2388 28.7384 13.9647 28.7551L9.68641 29.0335L12.9737 31.8041C12.9743 31.8045 12.9748 31.8049 12.9753 31.8054C13.185 31.9811 13.3415 32.2129 13.4267 32.4744C13.5122 32.7365 13.5227 33.0177 13.4569 33.2855L13.4559 33.2896L12.4118 37.447C12.4089 37.4584 12.4091 37.4643 12.4092 37.4657C12.4093 37.4668 12.4094 37.4675 12.4095 37.468C12.4096 37.4682 12.4095 37.4678 12.4095 37.468C12.4099 37.469 12.4111 37.4716 12.4129 37.4739L16.0281 35.1606C16.0282 35.1605 16.028 35.1607 16.0281 35.1606C16.2543 35.0154 16.5172 34.938 16.7852 34.938C17.0533 34.938 17.3159 35.0152 17.5422 35.1606ZM21.5873 33.0134C21.5871 33.0136 21.5869 33.0138 21.5867 33.014Z" fill="#556068"/>
<path d="M10.9064 37.0588C10.5707 38.3874 11.9923 39.6043 13.2352 38.806C13.2355 38.8058 13.2357 38.8057 13.236 38.8055L16.7851 36.5345L20.6076 38.9869C21.7508 39.7155 23.0545 38.6054 22.7491 37.3873L21.6375 32.9712L25.0826 30.0677C25.0828 30.0675 25.083 30.0673 25.0832 30.0671C26.0489 29.2559 25.6 27.5727 24.2651 27.4851L19.785 27.1936L18.1136 22.9406C18.0131 22.6695 17.8337 22.4355 17.5989 22.2693C17.3604 22.1005 17.0763 22.01 16.7852 22.01C16.494 22.01 16.2099 22.1005 15.9714 22.2693C15.7366 22.4355 15.5572 22.6695 15.4567 22.9406L13.7853 27.1936L9.30481 27.4852C7.96996 27.5728 7.52146 29.2559 8.48707 30.0671C8.48728 30.0673 8.48749 30.0675 8.4877 30.0677L11.9329 32.9712L10.9064 37.0588ZM10.9064 37.0588C10.9063 37.0589 10.9064 37.0586 10.9064 37.0588ZM16.7089 36.4857C16.7088 36.4856 16.7091 36.4858 16.7089 36.4857ZM16.7089 36.4857L17.1256 35.8226M12.4095 37.468C12.4094 37.4675 12.4093 37.4668 12.4092 37.4657C12.4091 37.4643 12.4089 37.4584 12.4118 37.447L13.4559 33.2896L13.4569 33.2855C13.5227 33.0177 13.5122 32.7365 13.4267 32.4744C13.3415 32.2129 13.185 31.9811 12.9753 31.8054C12.9748 31.8049 12.9743 31.8045 12.9737 31.8041L9.68641 29.0335L13.9647 28.7551C14.2388 28.7384 14.5023 28.6417 14.7231 28.4767C14.9418 28.3132 15.1094 28.0896 15.2058 27.8327L16.7852 23.8142L18.3645 27.8327C18.4609 28.0896 18.6285 28.3132 18.8472 28.4767C19.068 28.6417 19.3315 28.7384 19.6056 28.7551C19.6065 28.7552 19.6075 28.7552 19.6084 28.7553L23.8839 29.0335L20.5966 31.8041C20.5961 31.8045 20.5955 31.8049 20.595 31.8054C20.3853 31.9811 20.2288 32.2129 20.1436 32.4744C20.0581 32.7365 20.0476 33.0177 20.1134 33.2855L21.1715 37.489L17.5422 35.1606C17.3159 35.0152 17.0533 34.938 16.7852 34.938C16.5172 34.938 16.2543 35.0154 16.0281 35.1606M12.4095 37.468C12.4095 37.4678 12.4096 37.4682 12.4095 37.468ZM12.4095 37.468C12.4099 37.469 12.4111 37.4716 12.4129 37.4739L16.0281 35.1606M16.0281 35.1606C16.028 35.1607 16.0282 35.1605 16.0281 35.1606ZM21.5873 33.0134C21.5871 33.0136 21.5869 33.0138 21.5867 33.014M13.7528 27.2768C13.7531 27.2758 13.7535 27.2749 13.7539 27.2739L13.7528 27.2768Z" stroke="#556068" stroke-width="0.25" stroke-linecap="round" stroke-linejoin="round"/>
<path fill-rule="evenodd" clip-rule="evenodd" d="M38.1865 22.2693C38.425 22.1005 38.7091 22.01 39.0002 22.01C39.2914 22.01 39.5755 22.1005 39.814 22.2693C40.0488 22.4355 40.2282 22.6695 40.3287 22.9406L42.0001 27.1936L46.4802 27.4851C47.815 27.5727 48.2639 29.2559 47.2983 30.0671C47.2981 30.0673 47.2979 30.0675 47.2977 30.0677L43.8525 32.9712L44.9642 37.3873C45.2696 38.6054 43.9659 39.7155 42.8227 38.9869L39.0001 36.5345L35.451 38.8055C35.4508 38.8057 35.4506 38.8058 35.4503 38.806C34.2074 39.6043 32.7858 38.3874 33.1214 37.0588C33.1215 37.0586 33.1214 37.0589 33.1214 37.0588L34.148 32.9712L30.7028 30.0677C30.7026 30.0675 30.7024 30.0673 30.7022 30.0671C29.7365 29.2559 30.185 27.5728 31.5199 27.4852L36.0004 27.1936L37.6718 22.9406C37.7723 22.6695 37.9517 22.4355 38.1865 22.2693ZM35.9679 27.2768C35.9682 27.2758 35.9686 27.2749 35.969 27.2739L35.9679 27.2768ZM38.924 36.4857C38.9242 36.4858 38.9239 36.4856 38.924 36.4857ZM39.7573 35.1606L43.3866 37.489L42.3285 33.2855C42.2627 33.0177 42.2732 32.7365 42.3587 32.4744C42.4439 32.2129 42.6004 31.9811 42.8101 31.8054C42.8106 31.8049 42.8111 31.8045 42.8117 31.8041L46.099 29.0335L41.8235 28.7553C41.8226 28.7552 41.8216 28.7552 41.8207 28.7551C41.5466 28.7384 41.2831 28.6417 41.0623 28.4767C40.8436 28.3132 40.676 28.0896 40.5796 27.8327L39.0002 23.8142L37.4209 27.8327C37.3245 28.0896 37.1569 28.3132 36.9382 28.4767C36.7174 28.6417 36.4539 28.7384 36.1798 28.7551L31.9015 29.0335L35.1888 31.8041C35.1893 31.8045 35.1899 31.8049 35.1904 31.8054C35.4001 31.9811 35.5566 32.2129 35.6418 32.4744C35.7273 32.7365 35.7378 33.0177 35.672 33.2855L35.671 33.2896L34.6269 37.447C34.624 37.4584 34.6242 37.4643 34.6243 37.4657C34.6244 37.4668 34.6245 37.4675 34.6246 37.468C34.6247 37.4682 34.6246 37.4678 34.6246 37.468C34.625 37.469 34.6262 37.4716 34.628 37.4739L38.2432 35.1606C38.2433 35.1605 38.2431 35.1607 38.2432 35.1606C38.4694 35.0154 38.7322 34.938 39.0002 34.938C39.2684 34.938 39.531 35.0152 39.7573 35.1606ZM43.8024 33.0134C43.8022 33.0136 43.802 33.0138 43.8018 33.014Z" fill="#556068"/>
<path d="M33.1214 37.0588C32.7858 38.3874 34.2074 39.6043 35.4503 38.806C35.4506 38.8058 35.4508 38.8057 35.451 38.8055L39.0001 36.5345L42.8227 38.9869C43.9659 39.7155 45.2696 38.6054 44.9642 37.3873L43.8525 32.9712L47.2977 30.0677C47.2979 30.0675 47.2981 30.0673 47.2983 30.0671C48.2639 29.2559 47.815 27.5727 46.4802 27.4851L42.0001 27.1936L40.3287 22.9406C40.2282 22.6695 40.0488 22.4355 39.814 22.2693C39.5755 22.1005 39.2914 22.01 39.0002 22.01C38.7091 22.01 38.425 22.1005 38.1865 22.2693C37.9517 22.4355 37.7723 22.6695 37.6718 22.9406L36.0004 27.1936L31.5199 27.4852C30.185 27.5728 29.7365 29.2559 30.7022 30.0671C30.7024 30.0673 30.7026 30.0675 30.7028 30.0677L34.148 32.9712L33.1214 37.0588ZM33.1214 37.0588C33.1214 37.0589 33.1215 37.0586 33.1214 37.0588ZM38.924 36.4857C38.9239 36.4856 38.9242 36.4858 38.924 36.4857ZM38.924 36.4857L39.3407 35.8226M34.6246 37.468C34.6245 37.4675 34.6244 37.4668 34.6243 37.4657C34.6242 37.4643 34.624 37.4584 34.6269 37.447L35.671 33.2896L35.672 33.2855C35.7378 33.0177 35.7273 32.7365 35.6418 32.4744C35.5566 32.2129 35.4001 31.9811 35.1904 31.8054C35.1899 31.8049 35.1893 31.8045 35.1888 31.8041L31.9015 29.0335L36.1798 28.7551C36.4539 28.7384 36.7174 28.6417 36.9382 28.4767C37.1569 28.3132 37.3245 28.0896 37.4209 27.8327L39.0002 23.8142L40.5796 27.8327C40.676 28.0896 40.8436 28.3132 41.0623 28.4767C41.2831 28.6417 41.5466 28.7384 41.8207 28.7551C41.8216 28.7552 41.8226 28.7552 41.8235 28.7553L46.099 29.0335L42.8117 31.8041C42.8111 31.8045 42.8106 31.8049 42.8101 31.8054C42.6004 31.9811 42.4439 32.2129 42.3587 32.4744C42.2732 32.7365 42.2627 33.0177 42.3285 33.2855L43.3866 37.489L39.7573 35.1606C39.531 35.0152 39.2684 34.938 39.0002 34.938C38.7322 34.938 38.4694 35.0154 38.2432 35.1606M34.6246 37.468C34.6246 37.4678 34.6247 37.4682 34.6246 37.468ZM34.6246 37.468C34.625 37.469 34.6262 37.4716 34.628 37.4739L38.2432 35.1606M38.2432 35.1606C38.2431 35.1607 38.2433 35.1605 38.2432 35.1606ZM43.8024 33.0134C43.8022 33.0136 43.802 33.0138 43.8018 33.014M35.9679 27.2768C35.9682 27.2758 35.9686 27.2749 35.969 27.2739L35.9679 27.2768Z" stroke="#556068" stroke-width="0.25" stroke-linecap="round" stroke-linejoin="round"/>
<path fill-rule="evenodd" clip-rule="evenodd" d="M60.4011 22.2693C60.6396 22.1005 60.9237 22.01 61.2148 22.01C61.506 22.01 61.7901 22.1005 62.0286 22.2693C62.2634 22.4355 62.4428 22.6695 62.5433 22.9406L64.2147 27.1936L68.6948 27.4851C70.0296 27.5727 70.4785 29.2559 69.5129 30.0671C69.5127 30.0673 69.5125 30.0675 69.5123 30.0677L66.0671 32.9712L67.1788 37.3873C67.4842 38.6054 66.1805 39.7155 65.0373 38.9869L61.2147 36.5345L57.6656 38.8055C57.6654 38.8057 57.6652 38.8058 57.6649 38.806C56.422 39.6043 55.0004 38.3874 55.336 37.0588C55.3361 37.0586 55.336 37.0589 55.336 37.0588L56.3626 32.9712L52.9174 30.0677C52.9172 30.0675 52.917 30.0673 52.9168 30.0671C51.9511 29.2559 52.3996 27.5728 53.7345 27.4852L58.215 27.1936L59.8864 22.9406C59.9869 22.6695 60.1663 22.4355 60.4011 22.2693ZM58.1825 27.2768C58.1828 27.2758 58.1832 27.2749 58.1836 27.2739L58.1825 27.2768ZM61.1386 36.4857C61.1388 36.4858 61.1385 36.4856 61.1386 36.4857ZM61.9719 35.1606L65.6012 37.489L64.5431 33.2855C64.4773 33.0177 64.4878 32.7365 64.5733 32.4744C64.6585 32.2129 64.815 31.9811 65.0247 31.8054C65.0252 31.8049 65.0257 31.8045 65.0263 31.8041L68.3136 29.0335L64.0381 28.7553C64.0372 28.7552 64.0362 28.7552 64.0353 28.7551C63.7612 28.7384 63.4977 28.6417 63.2769 28.4767C63.0582 28.3132 62.8906 28.0896 62.7942 27.8327L61.2148 23.8142L59.6355 27.8327C59.5391 28.0896 59.3715 28.3132 59.1528 28.4767C58.932 28.6417 58.6685 28.7384 58.3944 28.7551L54.1161 29.0335L57.4034 31.8041C57.4039 31.8045 57.4045 31.8049 57.405 31.8054C57.6147 31.9811 57.7712 32.2129 57.8564 32.4744C57.9419 32.7365 57.9524 33.0177 57.8866 33.2855L57.8856 33.2896L56.8415 37.447C56.8386 37.4584 56.8388 37.4643 56.8389 37.4657C56.839 37.4668 56.8391 37.4675 56.8392 37.468C56.8393 37.4682 56.8392 37.4678 56.8392 37.468C56.8396 37.469 56.8408 37.4716 56.8426 37.4739L60.4578 35.1606C60.4579 35.1605 60.4577 35.1607 60.4578 35.1606C60.684 35.0154 60.9468 34.938 61.2148 34.938C61.483 34.938 61.7456 35.0152 61.9719 35.1606ZM66.017 33.0134C66.0168 33.0136 66.0166 33.0138 66.0164 33.014Z" fill="#556068"/>
<path d="M55.336 37.0588C55.0004 38.3874 56.422 39.6043 57.6649 38.806C57.6652 38.8058 57.6654 38.8057 57.6656 38.8055L61.2147 36.5345L65.0373 38.9869C66.1805 39.7155 67.4842 38.6054 67.1788 37.3873L66.0671 32.9712L69.5123 30.0677C69.5125 30.0675 69.5127 30.0673 69.5129 30.0671C70.4785 29.2559 70.0296 27.5727 68.6948 27.4851L64.2147 27.1936L62.5433 22.9406C62.4428 22.6695 62.2634 22.4355 62.0286 22.2693C61.7901 22.1005 61.506 22.01 61.2148 22.01C60.9237 22.01 60.6396 22.1005 60.4011 22.2693C60.1663 22.4355 59.9869 22.6695 59.8864 22.9406L58.215 27.1936L53.7345 27.4852C52.3996 27.5728 51.9511 29.2559 52.9168 30.0671C52.917 30.0673 52.9172 30.0675 52.9174 30.0677L56.3626 32.9712L55.336 37.0588ZM55.336 37.0588C55.336 37.0589 55.3361 37.0586 55.336 37.0588ZM61.1386 36.4857C61.1385 36.4856 61.1388 36.4858 61.1386 36.4857ZM61.1386 36.4857L61.5553 35.8226M56.8392 37.468C56.8391 37.4675 56.839 37.4668 56.8389 37.4657C56.8388 37.4643 56.8386 37.4584 56.8415 37.447L57.8856 33.2896L57.8866 33.2855C57.9524 33.0177 57.9419 32.7365 57.8564 32.4744C57.7712 32.2129 57.6147 31.9811 57.405 31.8054C57.4045 31.8049 57.4039 31.8045 57.4034 31.8041L54.1161 29.0335L58.3944 28.7551C58.6685 28.7384 58.932 28.6417 59.1528 28.4767C59.3715 28.3132 59.5391 28.0896 59.6355 27.8327L61.2148 23.8142L62.7942 27.8327C62.8906 28.0896 63.0582 28.3132 63.2769 28.4767C63.4977 28.6417 63.7612 28.7384 64.0353 28.7551C64.0362 28.7552 64.0372 28.7552 64.0381 28.7553L68.3136 29.0335L65.0263 31.8041C65.0257 31.8045 65.0252 31.8049 65.0247 31.8054C64.815 31.9811 64.6585 32.2129 64.5733 32.4744C64.4878 32.7365 64.4773 33.0177 64.5431 33.2855L65.6012 37.489L61.9719 35.1606C61.7456 35.0152 61.483 34.938 61.2148 34.938C60.9468 34.938 60.684 35.0154 60.4578 35.1606M56.8392 37.468C56.8392 37.4678 56.8393 37.4682 56.8392 37.468ZM56.8392 37.468C56.8396 37.469 56.8408 37.4716 56.8426 37.4739L60.4578 35.1606M60.4578 35.1606C60.4577 35.1607 60.4579 35.1605 60.4578 35.1606ZM66.017 33.0134C66.0168 33.0136 66.0166 33.0138 66.0164 33.014M58.1825 27.2768C58.1828 27.2758 58.1832 27.2749 58.1836 27.2739L58.1825 27.2768Z" stroke="#556068" stroke-width="0.25" stroke-linecap="round" stroke-linejoin="round"/>
</g>
<defs>
<clipPath id="clip0_103_2467">
<rect width="78" height="76" fill="white"/>
</clipPath>
</defs>
</svg>
