<svg width="56" height="54" viewBox="0 0 56 54" fill="none" xmlns="http://www.w3.org/2000/svg">
<g clip-path="url(#clip0_1953:7391)">
<path d="M56 5.62595V41.536C56.0097 41.5855 56.0097 41.6364 56 41.686C56 41.686 56 41.686 56 41.686C55.9433 42.9735 55.3916 44.1895 54.46 45.0801C53.5284 45.9707 52.2888 46.4672 51 46.466C49.48 46.466 48 46.466 46.47 46.466V45.016H50.9C51.3675 45.0266 51.8326 44.945 52.2686 44.7758C52.7046 44.6067 53.1029 44.3533 53.441 44.0301C53.779 43.7069 54.05 43.3203 54.2386 42.8924C54.4272 42.4644 54.5296 42.0035 54.54 41.536C54.54 41.096 54.54 40.656 54.54 40.226V5.79595C54.5548 5.55952 54.5548 5.32239 54.54 5.08595C54.4647 4.46338 54.2249 3.8721 53.8452 3.37295C53.4656 2.8738 52.9598 2.4848 52.38 2.24595C51.6847 2.01553 50.9501 1.92712 50.22 1.98595H5.77999C5.03357 1.92512 4.28286 2.02749 3.57999 2.28595C2.99093 2.54755 2.48475 2.96543 2.11632 3.49428C1.74789 4.02312 1.53128 4.64275 1.48999 5.28595C1.48 5.46581 1.48 5.64609 1.48999 5.82595V40.256C1.45 40.8386 1.45 41.4233 1.48999 42.006C1.63458 42.8638 2.08494 43.6403 2.75778 44.1918C3.43062 44.7434 4.28041 45.0326 5.14999 45.006H35.79V46.436H5.16999C4.18242 46.4646 3.2078 46.2058 2.36456 45.691C1.52131 45.1761 0.845758 44.4275 0.419987 43.536C0.0658047 42.5778 -0.0774555 41.5545 -1.34725e-05 40.536V5.53595C-0.00134854 4.78817 0.165061 4.04961 0.48696 3.37466C0.80886 2.69971 1.27805 2.10556 1.85999 1.63595C2.75686 0.933315 3.86071 0.546616 4.99999 0.535952H50.1C50.8552 0.493924 51.6125 0.557879 52.35 0.725952C53.4145 1.02428 54.3501 1.66699 55.0105 2.55357C55.6709 3.44015 56.0189 4.5206 56 5.62595V5.62595Z" fill="black"/>
<path fill-rule="evenodd" clip-rule="evenodd" d="M44.56 49.6844H37.23L36.93 48.0644H44.83C45.2124 48.0672 45.5838 47.9364 45.88 47.6944C46.1794 47.4381 46.3779 47.0836 46.44 46.6944L47.27 42.1944C47.2828 42.1151 47.2787 42.0341 47.258 41.9566C47.2373 41.879 47.2005 41.8067 47.15 41.7444C47.0979 41.6842 47.0333 41.6361 46.9608 41.6032C46.8883 41.5704 46.8095 41.5538 46.73 41.5544H35.73L35.4 39.7444C35.352 39.4984 35.2215 39.2761 35.03 39.1144C34.834 38.9501 34.5857 38.8614 34.33 38.8644H33.11C33.0336 38.8539 32.9558 38.8599 32.8819 38.882C32.8081 38.9041 32.7398 38.9418 32.6817 38.9924C32.6236 39.0431 32.577 39.1057 32.5451 39.1759C32.5132 39.2461 32.4966 39.3223 32.4966 39.3994C32.4966 39.4765 32.5132 39.5527 32.5451 39.6229C32.577 39.6931 32.6236 39.7556 32.6817 39.8063C32.7398 39.857 32.8081 39.8946 32.8819 39.9167C32.9558 39.9388 33.0336 39.9448 33.11 39.9344H34.34L36.21 50.1244C36.0069 50.2991 35.8439 50.5155 35.7317 50.7587C35.6196 51.002 35.561 51.2665 35.56 51.5344C35.56 52.0409 35.7612 52.5268 36.1194 52.8849C36.4776 53.2431 36.9634 53.4444 37.47 53.4444C37.9765 53.4444 38.4623 53.2431 38.8205 52.8849C39.1787 52.5268 39.38 52.0409 39.38 51.5344C39.3755 51.2527 39.3071 50.9757 39.18 50.7244H42.84C42.7163 50.9766 42.6513 51.2535 42.65 51.5344C42.646 51.913 42.7546 52.2842 42.9621 52.6009C43.1695 52.9176 43.4664 53.1655 43.8151 53.3132C44.1637 53.4608 44.5484 53.5015 44.9202 53.4301C45.292 53.3587 45.6342 53.1783 45.9033 52.912C46.1724 52.6457 46.3563 52.3055 46.4317 51.9344C46.507 51.5634 46.4704 51.1783 46.3264 50.8281C46.1824 50.478 45.9377 50.1785 45.6231 49.9677C45.3086 49.7569 44.9386 49.6444 44.56 49.6444V49.6844ZM46.08 42.6844L45.37 46.5344C45.3474 46.6605 45.2799 46.7742 45.18 46.8544C45.0807 46.9336 44.957 46.976 44.83 46.9744H36.73L35.94 42.6644L46.08 42.6844ZM37.47 52.3944C37.3102 52.3924 37.1546 52.3432 37.0227 52.253C36.8908 52.1628 36.7886 52.0357 36.7288 51.8875C36.669 51.7393 36.6544 51.5768 36.6868 51.4203C36.7191 51.2639 36.7971 51.1205 36.9107 51.0082C37.0244 50.8959 37.1687 50.8197 37.3256 50.7893C37.4824 50.7588 37.6448 50.7754 37.7922 50.837C37.9396 50.8986 38.0655 51.0024 38.1541 51.1354C38.2427 51.2684 38.2899 51.4246 38.29 51.5844C38.2847 51.7984 38.196 52.0018 38.0428 52.1513C37.8896 52.3008 37.684 52.3844 37.47 52.3844V52.3944ZM44.55 52.3944C44.3902 52.3924 44.2346 52.3432 44.1027 52.253C43.9708 52.1628 43.8686 52.0357 43.8088 51.8875C43.749 51.7393 43.7344 51.5768 43.7668 51.4203C43.7991 51.2639 43.8771 51.1205 43.9907 51.0082C44.1044 50.8959 44.2487 50.8197 44.4056 50.7893C44.5624 50.7588 44.7248 50.7754 44.8722 50.837C45.0196 50.8986 45.1455 51.0024 45.2341 51.1354C45.3227 51.2684 45.3699 51.4246 45.37 51.5844C45.3647 51.7984 45.276 52.0018 45.1228 52.1513C44.9696 52.3008 44.764 52.3844 44.55 52.3844V52.3944Z" fill="black"/>
<path d="M32.2647 27L13.2797 27" stroke="black" stroke-width="1.5" stroke-linecap="round" stroke-linejoin="round"/>
<path d="M40.2005 23H13.2797" stroke="black" stroke-width="1.5" stroke-linecap="round" stroke-linejoin="round"/>
<path d="M44.5583 19L13.2797 19" stroke="black" stroke-width="1.5" stroke-linecap="round" stroke-linejoin="round"/>
<path d="M44.5583 15L13.2797 15" stroke="black" stroke-width="1.5" stroke-linecap="round" stroke-linejoin="round"/>
</g>
<defs>
<clipPath id="clip0_1953:7391">
<rect width="56" height="52.93" fill="white" transform="translate(0 0.535156)"/>
</clipPath>
</defs>
</svg>
