<svg width="62" height="53" viewBox="0 0 62 53" fill="none" xmlns="http://www.w3.org/2000/svg">
<path d="M51.6833 47.9984C51.6628 49.8896 50.1335 51.3165 48.2696 51.3165C47.7166 51.3165 47.1568 51.3165 46.6037 51.3165C43.9138 51.3165 41.2238 51.3165 38.5339 51.3165C34.6765 51.3165 30.8122 51.3165 26.9548 51.3165C23.0905 51.3165 19.2263 51.3165 15.3688 51.3165C12.6379 51.3165 9.90018 51.3165 7.16926 51.3165C6.58211 51.3165 5.99497 51.3165 5.40782 51.3165C3.7283 51.3165 2.2263 50.1831 1.98051 48.4695C1.90541 47.9301 1.9532 47.3498 1.9532 46.8104C1.9532 45.6703 1.9532 44.5301 1.9532 43.39C1.9532 39.7851 1.9532 36.1803 1.9532 32.5755C1.9532 28.7249 1.9532 24.8743 1.9532 21.0237C1.9532 18.7502 1.9532 16.4767 1.9532 14.2032C1.9532 14.0326 1.94638 13.8619 1.96003 13.6912C2.02148 12.4623 2.80662 11.3563 3.91947 10.851C4.58854 10.5438 5.2781 10.5643 5.98814 10.5643C8.22067 10.5643 10.46 10.5643 12.6925 10.5643C16.3725 10.5643 20.0592 10.5643 23.7391 10.5643C27.7058 10.5643 31.6724 10.5643 35.6323 10.5643C38.7524 10.5643 41.8793 10.5643 44.9993 10.5643C45.8801 10.5643 46.7608 10.5643 47.6347 10.5643C48.3242 10.5643 48.9933 10.537 49.6556 10.8101C50.7547 11.2607 51.5535 12.3189 51.6833 13.5C51.7106 13.7253 51.7037 13.9506 51.7037 14.1759C51.7037 14.9816 51.7037 15.794 51.7037 16.5996C51.7037 19.8699 51.7037 23.1402 51.7037 26.4173C51.7037 30.3771 51.7037 34.337 51.7037 38.29C51.7037 41.1096 51.7037 43.9293 51.7037 46.7558C51.6833 47.1655 51.6833 47.5819 51.6833 47.9984C51.6833 48.8791 53.0487 48.8791 53.0487 47.9984C53.0487 46.3325 53.0487 44.6667 53.0487 42.994C53.0487 39.2936 53.0487 35.5932 53.0487 31.8928C53.0487 28.0285 53.0487 24.1643 53.0487 20.2932C53.0487 18.1972 53.0487 16.1081 53.0487 14.0121C53.0487 11.8888 51.7311 9.97032 49.6556 9.36952C48.9592 9.17153 48.2628 9.19201 47.5459 9.19201C45.2042 9.19201 42.8624 9.19201 40.5206 9.19201C36.7656 9.19201 33.0106 9.19201 29.2624 9.19201C25.2548 9.19201 21.2403 9.19201 17.2327 9.19201C14.1946 9.19201 11.1564 9.19201 8.11826 9.19201C7.32629 9.19201 6.53432 9.19201 5.73553 9.19201C5.58533 9.19201 5.43513 9.19201 5.2781 9.19201C4.18573 9.19884 3.16164 9.56068 2.30822 10.2366C1.20903 11.1105 0.580915 12.4759 0.567261 13.8755C0.567261 14.0053 0.567261 14.135 0.567261 14.2579C0.567261 15.1318 0.567261 15.9988 0.567261 16.8727C0.567261 20.2591 0.567261 23.6522 0.567261 27.0386C0.567261 31.0325 0.567261 35.0265 0.567261 39.0205C0.567261 41.7173 0.567261 44.4072 0.567261 47.104C0.567261 48.0598 0.574088 48.961 0.963244 49.8691C1.73473 51.651 3.50983 52.6751 5.40782 52.6751C7.21705 52.6751 9.03311 52.6751 10.8423 52.6751C14.3789 52.6751 17.9223 52.6751 21.4588 52.6751C25.5006 52.6751 29.5423 52.6751 33.5841 52.6751C36.9704 52.6751 40.3568 52.6751 43.7431 52.6751C45.2724 52.6751 46.8017 52.6887 48.3311 52.6751C50.9118 52.6546 53.0078 50.5723 53.0351 47.9916C53.0555 47.1177 51.6901 47.1177 51.6833 47.9984Z" fill="black"/>
<path d="M56.7491 44.2956C59.3571 44.2683 61.4258 42.145 61.4326 39.5438C61.4326 38.8679 61.4326 38.192 61.4326 37.5161C61.4326 34.1912 61.4326 30.8594 61.4326 27.5346C61.4326 23.3631 61.4326 19.1848 61.4326 15.0133C61.4326 12.1526 61.4326 9.28518 61.4326 6.42454C61.4326 5.42093 61.4258 4.47876 60.9957 3.52977C60.1969 1.76832 58.415 0.8125 56.5306 0.8125C54.5234 0.8125 52.5162 0.8125 50.5158 0.8125C46.7676 0.8125 43.0126 0.8125 39.2644 0.8125C35.0656 0.8125 30.8736 0.8125 26.6748 0.8125C23.3977 0.8125 20.1138 0.8125 16.8367 0.8125C15.9628 0.8125 15.0821 0.8125 14.2082 0.8125C13.0612 0.8125 11.9483 0.955873 10.9789 1.64543C9.72264 2.53981 8.97847 3.95306 8.95799 5.49603C8.94433 6.37675 10.3098 6.37675 10.3234 5.49603C10.3439 3.58438 11.8937 2.17796 13.7644 2.17796C14.3789 2.17796 14.9865 2.17796 15.601 2.17796C18.4752 2.17796 21.3427 2.17796 24.217 2.17796C28.2383 2.17796 32.2596 2.17796 36.2877 2.17796C40.1997 2.17796 44.1118 2.17796 48.0306 2.17796C50.5704 2.17796 53.117 2.17796 55.6567 2.17796C56.08 2.17796 56.5101 2.16431 56.9403 2.18479C58.2101 2.24623 59.3708 3.09282 59.835 4.26711C60.0125 4.72454 60.0672 5.19563 60.0672 5.67354C60.0672 7.89924 60.0672 10.1249 60.0672 12.3506C60.0672 16.3173 60.0672 20.284 60.0672 24.2506C60.0672 27.9442 60.0672 31.6378 60.0672 35.3313C60.0672 36.4442 60.0672 37.557 60.0672 38.6767C60.0672 39.4892 60.115 40.2948 59.7395 41.0458C59.166 42.1928 58.0258 42.9096 56.7423 42.9233C55.8684 42.9369 55.8684 44.3024 56.7491 44.2956Z" fill="black"/>
<path d="M36.2723 18.6311C35.1812 18.0584 31.3656 17.0045 31.2165 16.9605C31.1199 16.9351 31.0183 16.9351 30.9217 16.9605C28.2528 17.8231 25.38 17.8231 22.7111 16.9605C22.6177 16.9368 22.5198 16.9368 22.4264 16.9605C22.2672 17.0045 18.4516 18.0618 17.3435 18.6311C16.903 18.8615 15.6492 20.1593 13.5415 27.2415C13.5169 27.3233 13.5134 27.4099 13.5311 27.4935C13.5489 27.577 13.5874 27.6546 13.6431 27.7193C14.2829 28.4016 15.071 28.9275 15.9465 29.2566C16.822 29.5856 17.7614 29.7089 18.6922 29.617L18.211 43.3612C18.2077 43.4758 18.2429 43.5882 18.3112 43.6804C18.3794 43.7726 18.4766 43.8392 18.5871 43.8695C21.2766 44.5489 24.0375 44.905 26.8113 44.9301C29.5851 44.905 32.3461 44.5489 35.0355 43.8695C35.1461 43.8392 35.2433 43.7726 35.3115 43.6804C35.3797 43.5882 35.415 43.4758 35.4116 43.3612L34.9237 29.617C35.8544 29.7089 36.7939 29.5856 37.6693 29.2566C38.5448 28.9275 39.3329 28.4016 39.9727 27.7193C40.0284 27.6546 40.0669 27.577 40.0847 27.4935C40.1025 27.4099 40.0989 27.3233 40.0744 27.2415C37.9599 20.1593 36.7129 18.8615 36.2723 18.6311ZM30.4744 18.1533C30.2575 19.1902 29.4951 20.9861 26.8113 20.9861C24.1275 20.9861 23.3549 19.1665 23.1448 18.1363C25.5448 18.7807 28.0715 18.7865 30.4744 18.1533V18.1533ZM34.8796 28.5868L34.7475 24.8593C34.745 24.7926 34.7294 24.727 34.7016 24.6662C34.6738 24.6055 34.6343 24.5509 34.5854 24.5054C34.5365 24.4599 34.4791 24.4245 34.4165 24.4012C34.3539 24.378 34.2873 24.3672 34.2205 24.3697C34.1538 24.3721 34.0882 24.3877 34.0274 24.4155C33.9667 24.4433 33.912 24.4828 33.8666 24.5317C33.8211 24.5807 33.7857 24.6381 33.7624 24.7007C33.7391 24.7633 33.7284 24.8299 33.7309 24.8966L33.8766 29.0443L34.3713 42.9885C31.8927 43.5724 29.3576 43.8826 26.8113 43.9135C24.2615 43.8823 21.7229 43.5709 19.2411 42.9851L19.7359 29.0443L19.8816 24.8966C19.884 24.8299 19.8733 24.7633 19.85 24.7007C19.8267 24.6381 19.7914 24.5807 19.7459 24.5317C19.7004 24.4828 19.6458 24.4433 19.585 24.4155C19.5243 24.3877 19.4587 24.3721 19.3919 24.3697C19.3252 24.3672 19.2586 24.378 19.196 24.4012C19.1334 24.4245 19.076 24.4599 19.0271 24.5054C18.9781 24.5509 18.9386 24.6055 18.9108 24.6662C18.883 24.727 18.8674 24.7926 18.865 24.8593L18.7328 28.5868C17.9873 28.6843 17.2294 28.6131 16.515 28.3785C15.8007 28.1439 15.1481 27.7519 14.6055 27.2314C15.8288 23.1888 17.2249 19.8272 17.8179 19.5189C18.5227 19.1495 20.7931 18.465 22.1079 18.0889C22.3214 19.3461 23.199 21.9892 26.8079 21.9892C30.4168 21.9892 31.2945 19.3461 31.5079 18.0889C32.8227 18.465 35.0931 19.1495 35.7979 19.5189C36.3909 19.8272 37.7871 23.1888 39.0103 27.2314C38.4677 27.7508 37.8157 28.1421 37.102 28.3767C36.3884 28.6112 35.6314 28.683 34.8864 28.5868H34.8796Z" fill="black"/>
</svg>
