<svg width="88" height="68" viewBox="0 0 88 68" fill="none" xmlns="http://www.w3.org/2000/svg">
<rect x="1.63684" y="1.19824" width="84.7262" height="65.6035" rx="8.25" stroke="#556068" stroke-width="1.5"/>
<path fill-rule="evenodd" clip-rule="evenodd" d="M27.5643 56.7178C30.5609 56.7178 32.9902 54.2886 32.9902 51.2919C32.9902 48.2953 30.5609 45.866 27.5643 45.866C24.5676 45.866 22.1384 48.2953 22.1384 51.2919C22.1384 54.2886 24.5676 56.7178 27.5643 56.7178ZM27.5643 57.9557C31.2445 57.9557 34.228 54.9722 34.228 51.2919C34.228 47.6116 31.2445 44.6282 27.5643 44.6282C23.884 44.6282 20.9005 47.6116 20.9005 51.2919C20.9005 54.9722 23.884 57.9557 27.5643 57.9557Z" fill="#556068"/>
<path fill-rule="evenodd" clip-rule="evenodd" d="M44.2468 56.7177C47.2434 56.7177 49.6727 54.2884 49.6727 51.2918C49.6727 48.2952 47.2434 45.8659 44.2468 45.8659C41.2501 45.8659 38.8208 48.2952 38.8208 51.2918C38.8208 54.2884 41.2501 56.7177 44.2468 56.7177ZM44.2468 57.9556C47.927 57.9556 50.9105 54.9721 50.9105 51.2918C50.9105 47.6115 47.927 44.6281 44.2468 44.6281C40.5665 44.6281 37.583 47.6115 37.583 51.2918C37.583 54.9721 40.5665 57.9556 44.2468 57.9556Z" fill="#556068"/>
<path d="M67.5932 51.2918C67.5932 54.9721 64.6098 57.9556 60.9295 57.9556C57.2492 57.9556 54.2657 54.9721 54.2657 51.2918C54.2657 47.6115 57.2492 44.6281 60.9295 44.6281C64.6098 44.6281 67.5932 47.6115 67.5932 51.2918Z" fill="#556068"/>
<path fill-rule="evenodd" clip-rule="evenodd" d="M60.9295 57.1303C64.154 57.1303 66.768 54.5163 66.768 51.2918C66.768 48.0673 64.154 45.4533 60.9295 45.4533C57.705 45.4533 55.091 48.0673 55.091 51.2918C55.091 54.5163 57.705 57.1303 60.9295 57.1303ZM60.9295 57.9556C64.6098 57.9556 67.5932 54.9721 67.5932 51.2918C67.5932 47.6115 64.6098 44.6281 60.9295 44.6281C57.2492 44.6281 54.2657 47.6115 54.2657 51.2918C54.2657 54.9721 57.2492 57.9556 60.9295 57.9556Z" fill="#556068"/>
<path d="M53.621 11.2558C52.5119 10.6736 48.6331 9.6023 48.4815 9.55757C48.3833 9.53175 48.2801 9.53175 48.1819 9.55757C45.4688 10.4344 42.5485 10.4344 39.8354 9.55757C39.7404 9.53348 39.6409 9.53348 39.546 9.55757C39.3841 9.6023 35.5054 10.6771 34.379 11.2558C33.9312 11.49 32.6566 12.8093 30.514 20.0087C30.489 20.0919 30.4855 20.1799 30.5035 20.2649C30.5216 20.3498 30.5607 20.4287 30.6173 20.4944C31.2677 21.188 32.0688 21.7226 32.9588 22.0572C33.8488 22.3916 34.8038 22.517 35.75 22.4235L35.2608 36.3952C35.2575 36.5117 35.2932 36.6259 35.3627 36.7197C35.432 36.8134 35.5308 36.8811 35.6431 36.9119C38.3771 37.6025 41.1837 37.9645 44.0034 37.9901C46.8231 37.9645 49.6298 37.6025 52.3637 36.9119C52.4762 36.8811 52.575 36.8134 52.6443 36.7197C52.7136 36.6259 52.7495 36.5117 52.7461 36.3952L52.2501 22.4235C53.1962 22.517 54.1512 22.3916 55.0411 22.0572C55.9311 21.7226 56.7323 21.188 57.3827 20.4944C57.4393 20.4287 57.4784 20.3498 57.4965 20.2649C57.5146 20.1799 57.5109 20.0919 57.486 20.0087C55.3365 12.8093 54.0689 11.49 53.621 11.2558ZM47.7272 10.7701C47.5067 11.8242 46.7317 13.6498 44.0034 13.6498C41.2752 13.6498 40.4898 11.8001 40.2763 10.7528C42.716 11.4079 45.2845 11.4138 47.7272 10.7701ZM52.2053 21.3763L52.071 17.5871C52.0684 17.5193 52.0526 17.4526 52.0243 17.3908C51.9961 17.3291 51.9559 17.2736 51.9062 17.2273C51.8565 17.1811 51.7981 17.1451 51.7345 17.1214C51.6709 17.0978 51.6032 17.0868 51.5353 17.0894C51.4675 17.0918 51.4008 17.1077 51.339 17.1359C51.2773 17.1642 51.2217 17.2044 51.1755 17.2541C51.1292 17.3039 51.0933 17.3622 51.0696 17.4259C51.0459 17.4895 51.035 17.5572 51.0376 17.625L51.6886 36.0163C49.1689 36.6099 46.5919 36.9252 44.0034 36.9566C41.4114 36.9249 38.8308 36.6084 36.308 36.0129L36.9591 17.625C36.9615 17.5572 36.9506 17.4895 36.9269 17.4259C36.9033 17.3622 36.8674 17.3039 36.8211 17.2541C36.7749 17.2044 36.7194 17.1642 36.6575 17.1359C36.5958 17.1077 36.5292 17.0918 36.4613 17.0894C36.3934 17.0868 36.3257 17.0978 36.2621 17.1214C36.1985 17.1451 36.1401 17.1811 36.0904 17.2273C36.0406 17.2736 36.0005 17.3291 35.9722 17.3908C35.9439 17.4526 35.9281 17.5193 35.9256 17.5871L35.7912 21.3763C35.0334 21.4754 34.263 21.403 33.5367 21.1645C32.8106 20.9261 32.1472 20.5276 31.5956 19.9984C32.8392 15.8889 34.2584 12.4717 34.8612 12.1583C35.5777 11.7828 37.8856 11.087 39.2222 10.7046C39.4392 11.9827 40.3314 14.6695 44 14.6695C47.6686 14.6695 48.5608 11.9827 48.7778 10.7046C50.1143 11.087 52.4223 11.7828 53.1388 12.1583C53.7416 12.4717 55.1609 15.8889 56.4043 19.9984C55.8527 20.5264 55.19 20.9242 54.4644 21.1627C53.739 21.4011 52.9695 21.4741 52.2122 21.3763H52.2053Z" fill="#556068" stroke="#556068" stroke-width="0.2"/>
</svg>
