<svg xmlns="http://www.w3.org/2000/svg" viewBox="0 0 24 24"><title>3</title><g id="Layer_4" data-name="Layer 4"><path d="M17.13,15.75H3.89L.53,4.25H20.48ZM5.76,13.25h9.49l1.89-6.5H3.87Z"/><path d="M14.07,23.14A3.12,3.12,0,1,1,17.19,20,3.12,3.12,0,0,1,14.07,23.14Zm0-4.12a1,1,0,1,0,1,1A1,1,0,0,0,14.07,19Z"/><path d="M7,23.14A3.12,3.12,0,1,1,10.14,20,3.12,3.12,0,0,1,7,23.14ZM7,19a1,1,0,1,0,1,1A1,1,0,0,0,7,19Z"/><polygon points="19.98 5.82 17.64 4.93 19.04 1.25 24 1.25 24 3.75 20.77 3.75 19.98 5.82"/></g></svg>