<svg width="240" height="56" viewBox="0 0 240 56" fill="none" xmlns="http://www.w3.org/2000/svg">
<g clip-path="url(#clip0_997_95364)">
<path fill-rule="evenodd" clip-rule="evenodd" d="M55.0102 33.455H50.2803L54.4172 27.9277H60.0294L63.4214 32.4597V28.2624H69.699V54.7787H63.4214V33.455H59.4364L57.2233 30.4805L55.0102 33.455ZM54.0845 54.815V35.4986H60.3621V54.7786L54.0845 54.815ZM81.9289 51.0479C79.2674 51.0479 77.7487 49.317 77.6402 46.6842V46.6697H91.7143C92.0036 40.1315 88.5754 34.9315 81.7047 34.9315C76.0491 34.9315 71.3625 39.1642 71.3625 45.0697C71.3625 51.5351 75.6079 55.3169 81.8494 55.3169C86.1309 55.3169 90.2389 53.3897 91.3816 48.9315H85.5017C85.1811 49.6 84.6705 50.1579 84.0345 50.5346C83.3986 50.9113 82.6658 51.0899 81.9289 51.0479ZM81.7047 39.2006C83.8021 39.2006 85.3209 40.9679 85.4294 43.1497H77.6402C78.009 40.8006 79.4844 39.2006 81.7047 39.2006ZM106.982 54.7788H104.508V52.7352H104.45C103.633 54.4006 101.709 55.1279 99.6481 55.1279C95.0122 55.1279 92.7123 51.4406 92.7123 47.1279C92.7123 42.8152 94.9543 39.2733 99.5613 39.2733C101.102 39.2733 103.315 39.8552 104.421 41.6442H104.479V33.8697H106.982V54.7788ZM99.988 52.9315C103.315 52.9315 104.595 50.0661 104.595 47.2297C104.595 44.2333 103.25 41.4915 99.8506 41.4915C96.4514 41.4915 95.3304 44.4006 95.3304 47.3097C95.3304 50.1461 96.7769 52.8952 99.988 52.8952V52.9315ZM115.733 55.1278C119.11 55.1278 121.497 53.3169 122.17 49.9787V49.9424H119.711C119.269 51.8987 117.845 52.8951 115.805 52.8951C112.522 52.8951 111.032 50.5606 111.119 47.9278H122.394C122.538 44.2624 120.911 39.2515 115.581 39.2515C111.473 39.2515 108.5 42.5896 108.5 47.1278C108.652 51.7896 110.931 55.1278 115.733 55.1278ZM118.472 42.6996C119.283 43.4976 119.751 44.5833 119.776 45.7242H111.133C111.307 43.4115 112.847 41.4551 115.436 41.4551C116.571 41.4548 117.661 41.9016 118.472 42.6996ZM123.992 28.2624H143.418V33.7969H130.856V39.2151H141.719V44.5605H130.856V54.7787H123.992V28.2624ZM150.766 35.4988H144.669H144.662V54.7788H150.94V45.237C150.94 42.8442 152.567 40.6624 155.67 40.6624C156.483 40.6756 157.291 40.8004 158.071 41.0333V35.2806C157.595 35.1783 157.111 35.1271 156.624 35.1279C153.898 35.1279 151.764 36.4297 150.839 38.8806H150.766V35.4988ZM158.078 41.4551C158.08 40.4061 158.357 39.3762 158.881 38.4695C159.406 37.5628 160.159 36.8114 161.065 36.2914C162.956 35.3452 165.051 34.8878 167.162 34.9605C171.704 34.9605 176.101 35.9642 176.101 41.426V49.8551C176.101 51.4914 176.101 53.266 176.824 54.7933H170.503C170.308 54.2044 170.184 53.5939 170.134 52.9751C169.291 53.7746 168.298 54.3962 167.212 54.8034C166.127 55.2106 164.971 55.3951 163.813 55.346C160.161 55.346 157.304 53.4987 157.304 49.5278C157.304 44.364 161.901 43.7588 165.96 43.2245C166.834 43.1094 167.683 42.9976 168.456 42.8442C169.527 42.6187 170.12 42.2478 170.12 41.0551C170.12 39.6005 168.384 39.0551 167.09 39.0551C165.354 39.0551 164.247 39.8405 163.951 41.4623H158.078V41.4551ZM166.207 51.4551C169.194 51.4551 170.192 49.7533 170.04 45.7751C169.462 46.1375 168.563 46.3123 167.627 46.4943C167.136 46.5898 166.634 46.6874 166.164 46.8151C164.797 47.186 163.582 47.7387 163.582 49.266C163.582 50.7933 164.797 51.4478 166.207 51.4478V51.4551ZM184.491 35.4987H178.394V54.7787H184.671V44.2697C184.671 42.1533 185.706 40.146 188.071 40.146C191.252 40.146 191.233 42.4412 191.213 44.8772C191.211 45.0717 191.209 45.2672 191.209 45.4624V54.7787H197.487V42.4151C197.487 39.6224 196.973 34.946 190.58 34.946C188.287 34.946 185.706 36.1678 184.563 38.1387H184.491V35.4987ZM212.299 42.5606C212.25 41.787 211.903 41.063 211.332 40.5427C210.761 40.0225 210.01 39.747 209.24 39.7751C205.725 39.7751 205.168 42.786 205.168 45.4624C205.168 47.9497 206.245 50.5097 208.9 50.5097C211.069 50.5097 212.198 49.2442 212.48 47.2078H218.576C218.027 52.3642 214.02 55.3315 208.957 55.3315C203.172 55.3315 198.912 51.3606 198.912 45.4624C198.912 39.3315 202.788 34.946 208.957 34.946C213.724 34.946 217.976 37.4697 218.417 42.5606H212.299ZM229.512 51.0479C226.85 51.0479 225.339 49.317 225.23 46.6842V46.6697H239.297C239.594 40.1315 236.158 34.9315 229.288 34.9315C223.639 34.9315 218.945 39.1642 218.945 45.0697C218.945 51.5351 223.198 55.3169 229.439 55.3169C233.721 55.3169 237.822 53.3897 238.972 48.9315H233.092C232.77 49.6006 232.258 50.1587 231.621 50.5354C230.984 50.9121 230.25 51.0904 229.512 51.0479ZM229.288 39.2006C231.392 39.2006 232.911 40.9679 233.019 43.1497H225.23C225.599 40.8006 227.074 39.2006 229.288 39.2006Z" fill="#D71302"/>
<path fill-rule="evenodd" clip-rule="evenodd" d="M82.1753 24.0876C85.8348 24.0876 88.424 22.1458 89.1472 18.5094H86.4858C86.0084 20.6331 84.4318 21.7094 82.2621 21.7094C78.711 21.7094 77.1054 19.1712 77.1995 16.3203H89.4004C89.5595 12.3567 87.8093 6.93125 82.0234 6.93125C77.5755 6.93125 74.3571 10.5458 74.3571 15.4622C74.5163 20.4513 76.9752 24.0876 82.1753 24.0876ZM85.155 10.6588C86.0332 11.5256 86.5372 12.7049 86.5581 13.9422H77.1995C77.3875 11.4331 79.0582 9.30943 81.8643 9.30943C83.0948 9.30734 84.2768 9.79202 85.155 10.6588ZM85.9289 0.53125H82.4935L79.7814 5.09125H81.7992L85.9289 0.53125ZM64.6803 1.06941H54.085V23.7094H57.0791V14.0367H64.391C67.2984 14.0367 67.8336 15.9058 68.1446 18.124C68.3214 19.013 68.3519 19.9382 68.3798 20.7873C68.4215 22.0567 68.4577 23.156 68.9691 23.7094H72.3104C71.3161 22.4867 71.2056 20.6985 71.0952 18.9125C71.0651 18.425 71.035 17.9377 70.9869 17.4621C70.7627 15.244 70.2275 13.3094 67.6094 12.8003V12.7349C70.3215 11.9785 71.5221 9.72395 71.5221 6.99668C71.5221 3.38213 68.904 1.06941 64.6803 1.06941ZM68.5279 7.47668C68.5279 10.7712 66.1268 11.4985 63.3206 11.4985H57.0791V3.60759H64.5212C67.3273 3.60759 68.5279 5.25123 68.5279 7.47668ZM106.259 22.313C106.259 27.6366 103.829 30.3639 98.6939 30.3639C95.6347 30.3639 92.1053 29.1275 91.9462 25.542H94.6221C94.7523 27.513 97.0811 28.2111 98.8458 28.2111C102.346 28.2111 103.735 25.673 103.735 21.993V20.9166H103.67C103.199 21.8494 102.472 22.6265 101.574 23.1552C100.676 23.6839 99.6465 23.9419 98.6071 23.8984C93.747 23.8984 91.3242 20.0584 91.3242 15.593C91.3242 11.7239 93.2118 6.93114 98.853 6.93114C99.8344 6.89134 100.808 7.12497 101.665 7.60624C102.523 8.0875 103.232 8.79768 103.713 9.65841V7.31659H106.259V22.313ZM103.612 15.1784C103.612 12.2693 102.346 9.30932 98.976 9.30932C95.6057 9.30932 94.152 12.1311 94.152 15.273C94.152 18.182 95.2224 21.5202 98.7518 21.5202C102.281 21.5202 103.59 18.2548 103.59 15.1784H103.612ZM110.432 4.36395H113.108V1.06941H110.432V4.36395ZM113.108 7.31668H110.432V23.7094H113.108V7.31668ZM124.34 6.93123C129.511 6.93123 132.252 10.7058 132.252 15.5276C132.252 20.3494 129.475 24.0876 124.34 24.0876C119.205 24.0876 116.384 20.313 116.384 15.5276C116.384 10.7421 119.132 6.93123 124.34 6.93123ZM124.34 21.7094C127.146 21.7094 129.402 19.5276 129.402 15.5276C129.402 11.5276 127.131 9.30941 124.34 9.30941C121.548 9.30941 119.277 11.5349 119.277 15.5276C119.277 19.5203 121.497 21.7094 124.34 21.7094ZM137.893 7.31656H135.376V23.7093H138.052V14.4511C138.052 11.4911 139.629 9.30929 142.876 9.30929C143.318 9.27357 143.762 9.33422 144.178 9.48711C144.594 9.64 144.972 9.8815 145.287 10.1951C145.601 10.5087 145.845 10.8869 146 11.3039C146.156 11.7209 146.22 12.1668 146.189 12.6111V23.7093H148.865V12.9238C148.865 9.40384 147.541 6.93111 143.252 6.93111C142.18 6.87365 141.113 7.12332 140.176 7.65113C139.239 8.17894 138.47 8.96323 137.958 9.91293H137.893V7.31656Z" fill="#2A327B"/>
<path d="M32.7785 20.8586C32.5711 20.9195 32.3681 20.9948 32.171 21.084C32.1276 21.084 32.0914 21.084 32.0987 21.0258C32.1493 20.8295 31.2525 21.6658 31.2091 21.3458C31.2091 21.2877 31.2525 21.3458 31.1295 21.3458C31.455 21.3895 29.119 22.1313 29.119 22.0731C29.0593 21.9588 29.0331 21.8298 29.0433 21.7011C29.0536 21.5724 29.0999 21.4492 29.1768 21.3458C29.3649 20.8731 28.779 20.2113 29.0032 20.4077C28.9671 20.3791 28.9379 20.3426 28.9179 20.3011C28.8978 20.2595 28.8874 20.2139 28.8874 20.1677C28.8874 20.1215 28.8978 20.0758 28.9179 20.0343C28.9379 19.9927 28.9671 19.9562 29.0032 19.9277C29.1045 20.0004 29.0032 19.9277 29.0611 19.7022C29.1262 19.6586 28.9381 19.404 29.1045 19.4913C29.242 19.2785 29.3325 19.0386 29.3699 18.7877C29.4073 18.5368 29.3908 18.2807 29.3215 18.0368C28.9381 17.1349 29.1045 10.6622 29.3215 10.9095C29.3865 10.4586 28.9743 10.1313 29.1696 9.79675C29.1696 9.45493 28.8658 9.44766 28.9092 9.21494C28.7356 8.5313 27.781 8.54585 27.8822 8.40039C27.376 8.50948 25.51 11.5277 25.4956 11.6077C25.6113 11.4913 24.2299 13.5713 24.2588 13.5786C24.107 13.5786 23.9406 13.8186 23.9044 14.1313C23.9044 14.1677 23.1234 15.1204 23.1812 14.9313C22.9136 15.3749 22.6026 15.7968 22.364 16.2477C22.552 16.1313 22.024 16.6186 22.1036 16.604C22.1832 16.5895 21.5105 18.0586 21.5033 17.9349C21.4961 17.8113 20.7801 18.6622 20.6716 18.6622C20.5053 19.3531 17.9595 17.6586 17.9089 16.8877C17.9089 16.8877 17.8582 16.1604 17.5183 16.0877L15.8549 14.5677C14.8279 13.1931 14.0179 13.2295 12.5063 11.8986C12.3498 11.4995 12.1458 11.121 11.8988 10.7713C11.3274 10.9168 10.5536 11.8113 10.7127 12.0295C10.474 12.1313 10.4234 11.8258 10.3294 11.7168C10.3549 12.4834 10.4396 13.2469 10.5825 14.0004C10.5463 14.284 10.7127 15.7313 10.7778 15.5131L10.8863 15.6368C10.8863 15.6368 10.7127 15.8549 10.8863 15.9931C11.1249 16.4077 11.6095 16.7204 11.4287 17.2731C11.219 17.3822 11.4287 18.1386 11.4287 17.8913C11.1973 19.084 13.9817 21.3313 13.5984 22.924C13.4176 23.0622 14.1336 23.9131 13.9817 23.8695C13.5528 24.1812 13.0575 24.3879 12.5352 24.4731C12.3906 24.5604 12.2387 24.4731 12.0796 24.4731C11.9205 24.4731 10.6331 23.9204 10.3077 24.1604C10.3077 24.1604 9.25899 23.9204 9.25176 23.9713C9.4398 23.7531 8.06566 24.2622 8.2754 23.8113C8.36219 23.4622 7.08206 24.1822 7.40028 23.9931C7.40028 23.9931 6.83616 24.3058 6.85063 24.2186C6.86509 24.1313 6.36606 24.2186 6.48901 24.2186C6.40222 24.2186 5.8598 24.0368 5.93935 24.0949C5.64283 23.8913 5.57774 24.1677 5.21612 23.9931C5.05446 24.0534 4.88184 24.0782 4.70986 24.0658H3.9143C3.9143 24.0658 3.23447 24.284 3.19107 24.0658C3.19107 24.0658 2.60525 24.5022 2.43168 24.2113C2.504 23.9713 1.70845 24.4077 1.61442 24.4222C1.5204 24.4368 1.13709 24.2331 1.20942 24.3568C1.14433 24.3568 0.666992 24.9822 0.666992 24.9822C0.666992 24.9822 3.30679 26.9386 2.90178 26.6331C3.20349 26.8646 3.51998 27.076 3.84921 27.2658C3.74073 27.5495 4.83281 27.2658 4.65924 27.8986C5.67176 27.3022 7.74744 30.0804 8.4779 29.6658C8.57192 29.6658 8.88291 30.1531 8.98416 30.1168C8.81782 29.9713 9.51212 30.3495 9.29515 30.3349C9.38918 30.444 9.35301 30.4077 9.6857 30.7495C10.5174 30.7495 10.8646 31.404 11.1322 31.6367C12.0434 33.3967 8.23923 35.1058 7.92824 36.0004C7.92824 36.0513 7.92824 36.0877 7.86315 36.0731C7.79806 36.0586 7.33519 36.3204 7.2701 36.604L6.69875 37.3313C6.19972 37.1858 4.91236 39.2295 4.39164 39.5131L3.16214 40.0804C3.0562 40.1884 2.95943 40.3052 2.87285 40.4295C2.77432 40.6057 2.63236 40.7535 2.46061 40.8586C2.15736 41.1095 1.86765 41.3765 1.59273 41.6586L1.39746 42.0222L1.70845 42.1604C1.61718 42.2613 1.53938 42.3738 1.47701 42.4949C1.43362 42.5822 1.32513 42.8368 1.5638 42.8877C1.80247 42.9386 1.95435 42.9458 2.0122 43.0622C2.07006 43.1786 3.06089 43.2586 3.14045 43.244L3.70457 42.9967C4.43614 42.8369 5.19332 42.8369 5.92489 42.9967C6.72317 42.8233 7.50482 42.5799 8.26093 42.2695C8.33326 42.2695 9.7074 41.7967 9.7074 41.7967C10.0762 41.6222 10.9152 41.484 11.1539 41.1786C11.6088 40.98 12.1069 40.9023 12.6003 40.9531C12.716 41.0186 15.9417 40.3422 16.0501 39.9277C16.1236 39.9379 16.1921 39.9706 16.2465 40.0214C16.3008 40.0721 16.3383 40.1384 16.3539 40.2113C16.3689 40.822 16.3302 41.4329 16.2382 42.0368C16.2382 41.8695 15.7825 42.3495 15.9417 42.604C16.2671 42.7058 16.2454 42.604 16.4479 43.0622C16.3539 42.8513 16.4479 44.0295 16.4479 44.4513C16.4479 44.6768 16.8168 45.4331 16.2237 45.724C16.2237 45.724 15.8838 46.4513 15.8693 46.4513C15.9127 46.1022 15.9127 46.6258 15.8693 46.5313C16.1731 46.3858 16.0791 47.3167 16.014 47.4258C16.0718 47.2804 15.8549 47.6077 15.8332 47.4986C15.3486 48.4586 16.3684 48.5604 15.7825 48.6695C16.0357 48.7495 16.1659 50.0222 16.1514 49.8404C16.2099 50.2602 16.1728 50.688 16.0429 51.0913C15.9561 50.8222 15.8115 51.5786 15.8549 51.8186C15.9561 52.2986 15.7175 53.2077 16.1731 53.4186C16.1008 53.2295 16.513 53.8549 16.513 53.8549C17.5762 54.3058 17.8365 52.9095 18.3139 52.684C18.473 52.684 18.6538 52.0077 18.8129 52.0586C18.8129 52.0077 19.4638 48.9313 19.9556 49.0913C20.3288 48.5137 20.6622 47.911 20.9537 47.2877C20.9537 47.324 20.5486 46.844 21.3948 46.4731C21.8071 46.6186 22.0023 45.5058 22.1181 44.8804C22.1181 44.5167 22.4001 44.6913 22.4363 44.3058C22.7978 43.8047 23.0853 43.2535 23.2897 42.6695C23.4126 42.6695 23.4271 42.1022 23.5139 42.1822C23.2825 41.9786 23.7092 41.7458 23.6586 41.5713C23.7381 41.2658 23.7092 40.9895 23.8394 41.0186C23.9695 40.4222 24.3384 40.684 24.4179 40.7349C24.4975 40.7858 24.8374 40.684 24.8663 41.1204C24.7 41.3458 25.416 41.5495 25.3581 41.6877C25.3581 41.5858 28.8007 45.6877 29.7554 46.4804C29.7988 46.5168 32.482 49.1931 32.3663 49.164C32.6628 49.324 32.9087 49.8913 32.9304 49.8258C32.8147 50.0004 33.4439 50.284 33.5524 50.284C33.9574 51.0113 33.9791 50.8513 34.196 50.7277C34.2684 51.0477 34.8036 50.8949 34.9988 50.9967C34.941 50.844 35.4255 50.7058 35.3171 50.5386C35.4689 50.5895 35.223 49.9567 35.3171 50.0367C35.1507 49.7313 34.131 48.3713 34.2033 48.124C34.2033 48.044 34.3479 48.0731 34.4202 48.124C34.4926 48.1749 34.2901 47.964 34.225 47.9058C34.413 47.9058 34.4492 47.804 34.3479 47.6077C34.1671 47.7022 33.914 46.5458 34.0731 46.3786C34.1382 46.0877 33.2414 42.4513 32.8219 42.0949C32.7991 41.757 32.7384 41.4228 32.6411 41.0986C31.9179 40.6549 32.5254 39.7822 32.0408 39.644C31.9251 39.8622 31.4261 39.0331 31.3537 38.3495C31.1151 37.9204 31.3537 36.8949 31.1946 37.0477C31.0572 36.8877 31.9179 36.5167 32.1348 36.9895C33.9574 37.7167 37.4361 36.5386 38.6946 37.5131C38.9911 36.9531 39.6637 37.3895 39.3021 37.2877C39.2514 37.3531 39.3672 37.3895 39.4467 37.4113C39.9257 37.333 40.4142 37.333 40.8932 37.4113C40.358 37.2804 41.6815 37.3677 41.6164 37.3458C42.4689 37.269 43.2975 37.0217 44.0537 36.6186C44.5961 36.4513 44.4949 36.1677 44.7263 35.6513C44.6323 36.0877 44.8637 35.2077 44.4081 34.924C41.7466 34.2549 39.6275 32.2768 36.9733 31.5786C35.9463 31.3604 34.2828 28.8295 33.4005 28.9895C35.0061 27.1422 36.5682 25.3095 38.2244 23.7458C38.5499 23.4258 41.8406 19.8258 41.8406 19.8695C41.9708 19.6877 42.1516 19.0913 42.1371 19.3458C42.1347 19.2258 42.0913 19.1103 42.0142 19.0186C42.0142 19.0622 40.7702 18.0877 40.4448 18.6986C40.8859 18.9677 39.5624 19.0622 39.237 19.1422C39.1963 19.1616 39.1518 19.1717 39.1068 19.1717C39.0618 19.1717 39.0173 19.1616 38.9766 19.1422C38.6439 19.0622 38.21 19.4404 37.993 19.4913C37.5084 19.0549 36.2862 19.8622 35.7365 20.0513C35.5139 20.0437 35.2918 20.0243 35.0712 19.9931C34.8831 20.2986 34.8903 20.2113 34.9337 20.1822C34.6443 20.3769 34.3274 20.5264 33.9935 20.6258C34.0659 20.6258 33.5813 20.8586 33.3933 20.8149C33.3933 20.8949 33.3209 21.1277 33.0389 21.0695C32.7568 21.0113 32.8508 20.9313 32.7713 21.0186" fill="#D71302"/>
</g>
<defs>
<clipPath id="clip0_997_95364">
<rect width="238.667" height="56" fill="white" transform="translate(0.666992)"/>
</clipPath>
</defs>
</svg>