<svg xmlns="http://www.w3.org/2000/svg" width="373" height="373" viewBox="0 0 373 373"><g id="before-devis" transform="translate(-920)"><g id="img-before-article" transform="translate(1488.214 68.371) rotate(90)" opacity="0.301"><ellipse id="Ellipse_22" data-name="Ellipse 22" cx="62" cy="62.5" rx="62" ry="62.5" transform="translate(180.629 319.214)" fill="#fff" opacity="0.6"></ellipse><path id="Rectangle_514" data-name="Rectangle 514" d="M0,0H124a0,0,0,0,1,0,0V62a62,62,0,0,1-62,62h0A62,62,0,0,1,0,62V0A0,0,0,0,1,0,0Z" transform="translate(304.629 444.214) rotate(90)" fill="#fff" opacity="0.8"></path><path id="Rectangle_826" data-name="Rectangle 826" d="M0,0H124a0,0,0,0,1,0,0V63a62,62,0,0,1-62,62h0A62,62,0,0,1,0,63V0A0,0,0,0,1,0,0Z" transform="translate(-68.371 319.214)" fill="#fff" opacity="0.6"></path><rect id="Rectangle_828" data-name="Rectangle 828" width="124" height="124" rx="62" transform="translate(-68.371 444.214)" fill="#fff" opacity="0.999"></rect><path id="Rectangle_827" data-name="Rectangle 827" d="M0,0H124a0,0,0,0,1,0,0V62a62,62,0,0,1-62,62h0A62,62,0,0,1,0,62V0A0,0,0,0,1,0,0Z" transform="translate(-68.371 195.214)" fill="#fff" opacity="0.999"></path><path id="Rectangle_515" data-name="Rectangle 515" d="M0,0H0A124,124,0,0,1,124,124v1a0,0,0,0,1,0,0H0a0,0,0,0,1,0,0V0A0,0,0,0,1,0,0Z" transform="translate(180.629 444.214) rotate(90)" fill="#fff" opacity="0.4"></path><rect id="Rectangle_823" data-name="Rectangle 823" width="125" height="125" transform="translate(180.629 444.214) rotate(180)" fill="#fff"></rect><path id="Rectangle_824" data-name="Rectangle 824" d="M0,0H125a0,0,0,0,1,0,0V0A124,124,0,0,1,1,124H0a0,0,0,0,1,0,0V0A0,0,0,0,1,0,0Z" transform="translate(55.629 195.214)" fill="#fff" opacity="0.4"></path><path id="Rectangle_825" data-name="Rectangle 825" d="M0,0H62a62,62,0,0,1,62,62v0a62,62,0,0,1-62,62H0a0,0,0,0,1,0,0V0A0,0,0,0,1,0,0Z" transform="translate(180.629 195.214)" fill="#fff" opacity="0.8"></path></g></g></svg>