<svg id="color_line" height="25" viewBox="0 0 74 74" width="25" xmlns="http://www.w3.org/2000/svg" data-name="color line"><path d="m69.66 21.15v43.79a4.746 4.746 0 0 1 -4.75 4.74h-55.87a4.746 4.746 0 0 1 -4.75-4.74v-43.79z" fill="#eeefee"/><path d="m69.66 21.15v43.79a4.746 4.746 0 0 1 -4.75 4.74h-3.42a4.746 4.746 0 0 0 4.75-4.74v-43.79z" fill="#e1e6e9"/><path d="m69.66 9.06v12.09h-65.37v-12.09a4.746 4.746 0 0 1 4.75-4.74h55.87a4.746 4.746 0 0 1 4.75 4.74z" fill="#9297ab"/><path d="m69.41 9.06v12.09h-3.19v-9.28a4.746 4.746 0 0 0 -4.75-4.74h-55.87a4.916 4.916 0 0 0 -1.22.16 4.76 4.76 0 0 1 4.41-2.97h55.87a4.746 4.746 0 0 1 4.75 4.74z" fill="#84879c"/><circle cx="62.372" cy="12.732" fill="#eeefee" r="2.068"/><path d="m62.372 15.3a2.568 2.568 0 1 1 2.568-2.568 2.571 2.571 0 0 1 -2.568 2.568zm0-4.135a1.568 1.568 0 1 0 1.568 1.567 1.569 1.569 0 0 0 -1.568-1.567z" fill="#323c6b"/><circle cx="54.218" cy="12.732" fill="#eeefee" r="2.068"/><path d="m54.218 15.3a2.568 2.568 0 1 1 2.568-2.568 2.571 2.571 0 0 1 -2.568 2.568zm0-4.135a1.568 1.568 0 1 0 1.568 1.567 1.57 1.57 0 0 0 -1.568-1.567z" fill="#323c6b"/><circle cx="46.065" cy="12.732" fill="#eeefee" r="2.068"/><g fill="#323c6b"><path d="m46.065 15.3a2.568 2.568 0 1 1 2.568-2.568 2.571 2.571 0 0 1 -2.568 2.568zm0-4.135a1.568 1.568 0 1 0 1.568 1.567 1.569 1.569 0 0 0 -1.568-1.567z"/><path d="m37.854 13.232h-26.7a.5.5 0 1 1 0-1h26.7a.5.5 0 0 1 0 1z"/><path d="m56.9 73.125h-.643a.5.5 0 0 1 0-1h.643a.5.5 0 0 1 0 1z"/><path d="m54.266 73.125h-10.823a.5.5 0 0 1 0-1h10.823a.5.5 0 0 1 0 1z"/><path d="m1.562 7.808a.5.5 0 0 1 -.488-.615 8.179 8.179 0 0 1 7.153-6.278.5.5 0 0 1 .1.995 7.177 7.177 0 0 0 -6.279 5.512.5.5 0 0 1 -.486.386z"/><path d="m11.281 1.875h-.618a.5.5 0 0 1 0-1h.618a.5.5 0 0 1 0 1z"/><path d="m32.993 44.431a.5.5 0 0 1 -.456-.7l7.963-17.731a.5.5 0 1 1 .912.41l-7.963 17.726a.5.5 0 0 1 -.456.295z"/><path d="m28.225 41.742a.5.5 0 0 1 -.354-.146l-6.171-6.173a.5.5 0 0 1 0-.707l6.173-6.173a.5.5 0 0 1 .707.707l-5.819 5.819 5.819 5.82a.5.5 0 0 1 -.353.853z"/><path d="m45.726 41.742a.5.5 0 0 1 -.354-.853l5.819-5.82-5.819-5.819a.5.5 0 1 1 .707-.707l6.172 6.173a.5.5 0 0 1 0 .707l-6.172 6.177a.5.5 0 0 1 -.353.142z"/><path d="m61.949 61.667h-41.717a.5.5 0 0 1 0-1h41.717a.5.5 0 0 1 0 1z"/><path d="m14.932 61.667h-2.932a.5.5 0 0 1 0-1h2.931a.5.5 0 1 1 0 1z"/><path d="m61.949 51.25h-41.717a.5.5 0 0 1 0-1h41.717a.5.5 0 0 1 0 1z"/><path d="m14.932 51.25h-2.932a.5.5 0 1 1 0-1h2.931a.5.5 0 1 1 0 1z"/><path d="m69.66 21.65h-65.37a.5.5 0 0 1 -.5-.5v-12.09a5.25 5.25 0 0 1 5.25-5.24h55.87a5.25 5.25 0 0 1 5.25 5.24v12.09a.5.5 0 0 1 -.5.5zm-64.87-1h64.37v-11.59a4.25 4.25 0 0 0 -4.25-4.24h-55.87a4.25 4.25 0 0 0 -4.25 4.24z"/><path d="m64.91 70.18h-55.87a5.25 5.25 0 0 1 -5.25-5.24v-43.79a.5.5 0 0 1 .5-.5h65.37a.5.5 0 0 1 .5.5v43.79a5.25 5.25 0 0 1 -5.25 5.24zm-60.12-48.53v43.29a4.25 4.25 0 0 0 4.25 4.24h55.87a4.25 4.25 0 0 0 4.25-4.24v-43.29z"/></g><path d="m69.66 9.06v12.09h-65.37v-12.09a4.746 4.746 0 0 1 4.75-4.74h55.87a4.746 4.746 0 0 1 4.75 4.74z" fill="none"/><path d="m19.628 18.131h-.281a.776.776 0 0 1 0-1.551h.281a.776.776 0 1 1 0 1.551z" fill="#fff"/><path d="m31.99 18.131h-9.49a.776.776 0 0 1 0-1.551h9.49a.776.776 0 0 1 0 1.551z" fill="#fff"/></svg>