<svg height="24" viewBox="0 0 64 64" width="24" xmlns="http://www.w3.org/2000/svg"><path d="m61 11v48a2.006 2.006 0 0 1 -2 2h-54a2.006 2.006 0 0 1 -2-2v-48z" fill="#d1e7f8"/><path d="m3 33v26a2 2 0 0 0 2 2h27c-16.029 0-29-12.523-29-28z" fill="#9bc9ff"/><path d="m59 3h-54a2 2 0 0 0 -2 2v6h58v-6a2 2 0 0 0 -2-2z" fill="#3d9ae2"/><circle cx="32" cy="36" fill="#ffcd00" r="17"/><path d="m24.93 47.31 7.07-7.07 7.07 7.07 4.24-4.24-7.07-7.07 7.07-7.07-4.24-4.24-7.07 7.07-7.07-7.07-4.24 4.24 7.07 7.07-7.07 7.07z" fill="#ff3051"/><g fill="#f1f2f2"><path d="m7 8h1a1 1 0 0 0 0-2h-1a1 1 0 0 0 0 2z"/><path d="m12 8h1a1 1 0 0 0 0-2h-1a1 1 0 0 0 0 2z"/><path d="m17 8h1a1 1 0 0 0 0-2h-1a1 1 0 0 0 0 2z"/></g></svg>